<?xml version="1.0" standalone="no"?>
<!DOCTYPE svg PUBLIC "-//W3C//DTD SVG 1.1//EN" "http://www.w3.org/Graphics/SVG/1.1/DTD/svg11.dtd" >
<svg>
<metadata>
Created by FontForge 20110222 at Mon Jun 13 08:14:55 2011
 By www-data
Copyright (c) 2011 by Mans Greba:ck. All rights reserved.
</metadata>
<defs>
<font id="ChannelSlanted2" horiz-adv-x="490" >
  <font-face 
    font-family="Channel Slanted 2"
    font-weight="400"
    font-style="oblique"
    font-stretch="normal"
    units-per-em="800"
    panose-1="0 0 0 0 0 0 0 0 0 0"
    ascent="600"
    descent="-200"
    x-height="486"
    cap-height="985"
    bbox="-4440.15 -780.667 1988.82 1300.44"
    underline-thickness="50"
    underline-position="-50"
    unicode-range="U+0020-2122"
  />
    <missing-glyph />
    <glyph glyph-name="space" unicode=" " horiz-adv-x="500" 
 />
    <glyph glyph-name="space" unicode="&#xa0;" horiz-adv-x="500" 
 />
    <glyph glyph-name="a" unicode="a" horiz-adv-x="712" 
d="M790 186q13 0 10 -14q-1 -1 -13.5 -14t-34.5 -32.5t-51 -42t-62.5 -41.5t-68.5 -32t-69 -13q-36 0 -56.5 23.5t-30.5 52.5t-12.5 53.5t-2.5 27.5q-3 -3 -26.5 -27.5t-58.5 -53.5t-77.5 -52.5t-83.5 -23.5q-44 0 -70 17.5t-35 47.5t-1.5 69.5t30 83t60 88t89.5 85.5
q55 44 106.5 66t96.5 30q40 7 73 4.5t54 -9.5t29.5 -16.5t1.5 -16.5q-9 -8 -14.5 -7t-14.5 5.5t-25 9.5t-46 5q-28 0 -61 -12.5t-65.5 -34t-62 -50.5t-50.5 -61q-32 -48 -40.5 -84.5t-3 -62t21.5 -38.5t34 -13q33 0 62 20t54 49.5t46 64t39 64t33 49t28 19.5t17 -21.5
t5.5 -53t2.5 -69t7 -69t20 -53t41 -21.5q20 0 40 8.5t37 19.5q18 12 36 28l45 39q7 9 17 9z" />
    <glyph glyph-name="n" unicode="n" horiz-adv-x="720" 
d="M276 482q-20 0 -34 -14t-22 -37t-10.5 -52.5t0.5 -61.5q27 31 49.5 61t34.5 53t9 37t-27 14zM800 186q13 0 10 -14q-1 -1 -13.5 -14t-34.5 -32.5t-51 -42t-62.5 -41.5t-68.5 -32t-69 -13q-37 0 -55.5 22t-24.5 54.5t-3.5 71t6.5 71t7 54.5t-3 22q-9 0 -26.5 -22
t-41.5 -54.5t-52 -71t-58.5 -71t-61 -54.5t-58.5 -22q-27 0 -45 13t-28 35t-13.5 49.5t-3.5 56.5q1 68 20 155q14 55 41 99q12 19 27.5 37t36 32t46.5 22.5t58 8.5q38 0 44.5 -19.5t-7.5 -51t-43.5 -70t-63.5 -77.5q4 -30 10 -57.5t14 -48.5t16.5 -34t16.5 -13
q9 0 30.5 27.5t50 68.5t61 89t64 89t59.5 68.5t46 27.5q16 0 22.5 -18t6.5 -48t-4 -67.5t-9 -77.5t-8 -77.5t-1 -67.5t11.5 -48t29.5 -18t40 8.5t37 19.5q18 12 36 28l45 39q7 9 17 9z" />
    <glyph glyph-name="b" unicode="b" horiz-adv-x="662" 
d="M578 468q56 0 87 -20.5t41.5 -53t2 -73.5t-31.5 -82t-59 -78t-80 -62q-53 -30 -108 -45t-104.5 -21t-89.5 -5.5t-63 2.5q-20 -39 -41.5 -69t-43.5 -49.5t-43.5 -26.5t-41.5 1q-8 3 -5 36.5t15.5 87.5t34.5 125t52 150t67 162t80 161.5t92 148t101.5 121.5t109 82.5
t115.5 30.5q42 0 43.5 -32.5t-25 -85.5t-74 -120t-103.5 -137t-113.5 -136.5t-103.5 -117.5q-14 -40 -25.5 -77t-21.5 -69q27 40 63.5 84.5t79.5 82t91.5 61.5t101.5 24zM371 90q29 15 57.5 42t52.5 58.5t41 65t23 63t-1.5 50.5t-33.5 28q-21 6 -46.5 -4t-52.5 -30
t-54.5 -46.5t-52.5 -54t-45.5 -53.5t-33.5 -44q-10 -30 -18.5 -53.5t-15.5 -38.5q12 -5 30.5 -8.5t42 -3.5t50.5 6.5t57 22.5zM651 951q-31 0 -61.5 -21.5t-60 -58.5t-58.5 -87t-55.5 -107.5t-51.5 -120t-48 -123.5q48 55 98 115t94 117.5t80 109t57 91t24 62.5t-18 23z" />
    <glyph glyph-name="c" unicode="c" horiz-adv-x="522" 
d="M586 186q10 9 16 10t8.5 -3t1 -10t-5.5 -10q-3 -3 -22.5 -17.5t-50.5 -34t-70 -41.5t-82 -40.5t-86 -30.5t-82 -12q-59 0 -93 24t-49 60t-13.5 79t15.5 81q13 39 44 84t74 83.5t96 64t110 25.5q32 0 55 -10t37.5 -26.5t19 -37.5t-1.5 -43q-5 -16 -12.5 -32t-17.5 -30
t-22.5 -24.5t-27.5 -16.5q-14 -7 -30 -7q-23 0 -33 15.5t-2 38.5t30 39t45 16q21 0 30 -14q3 10 5 27t-3.5 33.5t-22 29t-51.5 12.5q-34 0 -65.5 -29.5t-55 -74t-36 -96.5t-8.5 -96.5t27.5 -74t72.5 -29.5q29 0 68 12q33 11 80.5 34.5t107.5 71.5z" />
    <glyph glyph-name="d" unicode="d" horiz-adv-x="710" 
d="M799 172q-1 -1 -13.5 -14t-34.5 -32.5t-51 -42t-62.5 -41.5t-68.5 -32t-69 -13q-31 0 -50 18t-30 42q-13 17 -21 37.5t-11 49.5q-12 -13 -36.5 -37.5t-57 -49t-69.5 -42.5t-73 -18q-44 0 -70 17.5t-35 47.5t-1.5 69.5t30 83t60 88t89.5 85.5q51 41 99 62.5t90 30.5
q1 0 10 1.5t11 -5.5q1 -8 -11 -15q-24 -10 -49.5 -26.5t-50 -37.5t-46 -44t-36.5 -46q-31 -48 -40 -86t-3.5 -64.5t22.5 -40.5t38 -14q38 0 69.5 25t59.5 60q1 36 11 82.5t31 106.5q42 120 100 231t126.5 196t145 136t156.5 51q32 0 38.5 -18.5t-5 -50.5t-39 -75t-64 -93
t-80 -103.5t-86.5 -106.5t-84 -102.5t-72 -91.5q-17 -52 -19 -95t1 -69q2 -8 2.5 -14.5t2.5 -12.5v-3q0 -1 1 -1v-1q5 -32 19 -52t41 -20q20 0 40 8.5t37 19.5q19 12 37 28l44 39q7 9 17 9q13 0 10 -14zM603 434q45 61 94 123t94 119.5t82.5 107.5t60.5 87t27 58.5t-17 21.5
q-31 0 -61.5 -21.5t-61 -58.5t-60 -87t-57 -107.5t-53.5 -119.5t-48 -123z" />
    <glyph glyph-name="e" unicode="e" horiz-adv-x="522" 
d="M479 356q-15 -25 -43.5 -54.5t-63 -58.5t-70 -56t-64.5 -47q10 -32 31.5 -52t61.5 -20q29 0 68 12q33 11 80.5 34.5t107.5 71.5q10 9 16 10t8.5 -3t1 -10t-5.5 -10q-3 -3 -22.5 -17.5t-50.5 -34t-70 -41.5t-82 -40.5t-86 -30.5t-82 -12q-59 0 -93 24t-49 60t-13.5 79
t15.5 81q13 39 44 84t74 83.5t96 64t110 25.5q46 0 69.5 -13.5t30 -34.5t0 -46t-18.5 -48zM399 469q-34 0 -66 -30.5t-56 -75.5t-37 -97.5t-8 -97.5q28 18 61 41.5t64 49t56 51t36 47.5q16 31 17.5 52.5t-6.5 34.5t-24.5 19t-36.5 6z" />
    <glyph glyph-name="f" unicode="f" horiz-adv-x="456" 
d="M104 -169q-21 -45 -44 -81.5t-47 -60t-47 -33t-44 -0.5q-8 3 -3.5 42.5t21 105t43.5 151t62.5 181.5t78.5 196.5t92 195.5t102.5 179t110.5 147t115.5 100t117.5 37q38 0 42.5 -26.5t-14 -70t-56.5 -101t-85 -119.5t-99.5 -125t-99.5 -117q11 8 22.5 14t22.5 12
q25 13 54.5 7t56 -18t46.5 -24t26 -13q6 0 10.5 2.5t8.5 5t7 3t5 -3.5q3 -4 1 -9.5t-11 -15.5t-26.5 -26.5t-47.5 -41.5q-20 -17 -38.5 -18t-36 6.5t-34.5 20t-33 24t-30.5 18.5t-28.5 2q-24 -9 -38 -23q-35 -92 -65 -178.5t-54 -158t-40 -121t-23 -65.5zM648 951
q-39 0 -80.5 -42.5t-83.5 -113.5t-84 -163t-81 -191q48 55 97 114t92.5 115.5t78.5 107.5t55.5 89.5t23.5 61t-18 22.5z" />
    <glyph glyph-name="g" unicode="g" horiz-adv-x="560" 
d="M500 82q-15 -116 -51.5 -199.5t-85 -138.5t-105.5 -84t-113 -37t-107.5 2.5t-88.5 35.5q-31 20 -42 45t-5.5 52.5t25 57.5t49 60.5t67 61.5t78.5 61q-53 9 -70.5 49t-3 96.5t59.5 121.5t117 122q54 44 105.5 66t96.5 30q40 7 73 4.5t54.5 -9.5t30 -16.5t1.5 -16.5
q-10 -8 -15.5 -7t-14.5 5.5t-25 9.5t-46 5q-28 0 -61 -12.5t-65.5 -34t-62 -50.5t-50.5 -61q-31 -48 -40 -84.5t-3.5 -62t21.5 -38.5t34 -13q34 0 63 20t54 49.5t46 64t39 64t33 49t28 19.5q9 0 13.5 -12.5t4.5 -32.5t-2.5 -46t-6.5 -53q-10 -63 -29 -143zM397 155
q-27 -31 -58 -59q-26 -24 -59.5 -48t-69.5 -38l-2 -2q-44 -17 -86.5 -45t-77 -59t-56.5 -63t-24.5 -58t18 -42t71.5 -16q79 0 133.5 37.5t93.5 98.5t66 138t51 156z" />
    <glyph glyph-name="h" unicode="h" horiz-adv-x="693" 
d="M223 169q27 35 58 74t63 76t63.5 70.5t58.5 59t48.5 40.5t34.5 15q16 0 22.5 -18t6.5 -48t-4 -67.5t-9 -77.5t-8 -77.5t-1 -67.5t11.5 -48t29.5 -18t40 8.5t37 19.5q18 12 36 28q12 10 22 19q8 8 15 14t8 6q2 4 7 6.5t10 2.5q13 0 10 -14q-1 -1 -13.5 -14t-34.5 -32.5
t-51 -42t-62.5 -41.5t-68.5 -32t-69 -13q-37 0 -56.5 22.5t-27.5 56.5t-7.5 74t3 74t4 57t-4.5 24q-12 2 -33.5 -18.5t-46 -53t-50.5 -71.5t-48 -73.5t-37 -59.5l-18 -30q-20 -41 -41.5 -72.5t-43.5 -52t-43.5 -28t-40.5 0.5q-11 4 -4 54t28.5 128.5t56.5 177.5t81 201.5
t102 200.5t119.5 174.5t133 123t143.5 46.5q42 0 43.5 -32.5t-25 -85t-74 -120t-103.5 -137.5t-113 -136.5t-103 -117.5q-15 -42 -29 -81t-25 -74zM636 912q-31 0 -61 -21.5t-60 -58.5t-58.5 -87t-55.5 -107.5t-52.5 -119.5t-47.5 -123q48 55 98 114.5t94 117t80 109.5
t57 91t24 62t-18 23z" />
    <glyph glyph-name="i" unicode="i" horiz-adv-x="477" 
d="M414 582q-35 0 -50 24t-3 59q6 17 17.5 32t26.5 26t32.5 17.5t34.5 6.5q35 0 51 -24t4 -58q-6 -17 -18 -32.5t-27.5 -26.5t-33 -17.5t-34.5 -6.5zM555 186q13 0 10 -14q0 -1 -14 -14t-37.5 -32.5t-54 -42t-65 -41.5t-70.5 -32t-70 -13q-37 0 -56 14.5t-25.5 38.5t-3 55
t12 62.5t20 62.5t21 55t14 38.5t0.5 14.5q-21 -25 -50 -57t-55 -60.5t-46 -49.5t-23 -24q-7 -7 -14 -8.5t-11.5 1t-4.5 7.5t8 12q59 55 109.5 115.5t94.5 111.5t83.5 84.5t77.5 33.5q16 0 18 -18t-4.5 -48t-19.5 -67.5t-27 -77.5t-26 -77.5t-16.5 -67.5t0.5 -48t25 -18
t44 8.5t45 19.5q25 12 49 28l44 39q7 9 17 9z" />
    <glyph glyph-name="j" unicode="j" horiz-adv-x="476" 
d="M424 582q-35 0 -50 24t-3 59q6 17 17.5 32t26.5 26t32.5 17.5t34.5 6.5q34 0 50 -24t4 -58q-6 -17 -18 -32.5t-27 -26.5t-32.5 -17.5t-34.5 -6.5zM363 1q-46 -137 -100.5 -219.5t-112.5 -120t-116 -35t-110 37.5q-56 36 -65 85.5t18.5 104t85 110t134.5 104.5
q20 13 42 22t44 16t42 13t36 12q27 74 47 133q9 25 16.5 49t13 43t8 30.5t-0.5 11.5q-14 -17 -37 -40t-50.5 -48.5t-57.5 -52.5t-58.5 -50.5t-54 -42.5t-42.5 -29q-11 -7 -19.5 -9t-11.5 1t1.5 10t19.5 17q37 23 76.5 58t79.5 74t79 78t75.5 70t69 50.5t60.5 19.5
q33 0 36.5 -27.5t-14.5 -87.5t-53.5 -155.5t-80.5 -232.5zM-16 -268q34 -10 72 18.5t74 82t68.5 124.5t55.5 146h-1q-73 -22 -130 -55.5t-97 -71.5t-63 -77.5t-28.5 -73.5t6.5 -59t43 -34z" />
    <glyph glyph-name="k" unicode="k" horiz-adv-x="611" 
d="M549 513q64 11 91.5 -9.5t26 -57t-28 -82.5t-71.5 -86q-36 -31 -77 -51.5t-82.5 -31t-80.5 -12t-70 5.5q1 -20 9 -54t29 -71t60 -71t102 -53t155 -17t219 36q18 10 26 11.5t9.5 -2t-3 -10.5t-12.5 -14q-8 -8 -39.5 -31t-77.5 -50.5t-102 -52t-113 -35t-111 -0.5t-96 52
t-68 123t-27 213l-22.5 -67.5t-15.5 -41.5q-20 -45 -43 -81.5t-47 -59.5t-47.5 -32.5t-44.5 -0.5q-11 4 -4 54t28.5 128.5t56.5 177.5t81 201.5t102 200t119.5 174t133 123t143.5 46.5q42 0 43.5 -32.5t-25 -85t-74 -120t-103.5 -137.5t-113 -136.5t-103 -117.5l-8 -23
q25 27 57 56t67.5 54.5t73.5 44.5t77 25zM643 945q-31 0 -61 -21.5t-60 -58.5t-58.5 -87t-55.5 -107.5t-52.5 -120t-47.5 -123.5q48 55 98 115t94 117.5t80 109t57 91t24 62.5t-18 23zM447 312q19 24 30 50t9.5 44t-18 23.5t-52.5 -10.5q-26 -12 -52 -34.5t-48.5 -47.5
t-40.5 -49.5t-30 -41.5q-3 -7 -4.5 -13.5t-4.5 -13.5l8 -1q16 -4 42.5 1t56 17.5t57.5 32t47 43.5z" />
    <glyph glyph-name="l" unicode="l" horiz-adv-x="383" 
d="M137 489q62 140 139 251q33 47 71.5 92t82 80.5t92 57t99.5 21.5t56 -35t-22.5 -92t-80 -129.5t-114.5 -148.5q-146 -179 -367 -405l-25 8q201 212 339 379q59 71 109.5 139.5t80.5 122t33 86t-34 32.5t-78 -37t-81 -98t-77 -139t-66 -159t-48 -159t-23.5 -139t8 -98
t46.5 -37q16 -2 41 8q21 8 52 28.5t75 62.5q6 5 11 5.5t8.5 -2t4.5 -7.5t-3 -10q-3 -4 -17 -17.5t-36.5 -32.5t-51 -40t-61.5 -39t-68 -29.5t-69 -11.5q-41 0 -63.5 23t-31 62t-5 89.5t14 105.5t26.5 110t33 102z" />
    <glyph glyph-name="m" unicode="m" horiz-adv-x="1095" 
d="M73 306q14 55 41 99q12 19 27.5 37t36 32t46.5 22.5t58 8.5t41.5 -14t3.5 -37t-25.5 -53.5t-45.5 -63t-55.5 -65t-56.5 -60t-48 -48.5l-30 -30q-5 2 -5 5.5t0.5 7.5t1 8.5t-3.5 8.5q18 14 49 43t63.5 64.5t62.5 73t47 68t16.5 50t-28.5 19.5t-42 -26t-18 -64.5t0.5 -83.5
t14 -83.5t21.5 -64.5t24 -26t34.5 27.5t50.5 68.5t60 89t62.5 89t57.5 68.5t46 27.5h1q2 0 4 -0.5t4 -0.5q19 -5 26.5 -31t8.5 -62.5t-1.5 -78.5t-4.5 -81q-1 -24 -1 -45t2 -36.5t7 -25t14 -9.5h2q11 2 27.5 20.5t33.5 40.5q19 25 41 56l22 35q25 38 50 77t49 70.5t46 51
t40 19.5q16 0 22.5 -18t6.5 -48t-4 -67.5t-9 -77.5t-8 -77.5t-1 -67.5t11.5 -48t29.5 -18t40 8.5t37 19.5q18 12 36 28l44 39q7 9 18 9q12 0 9 -14q0 -1 -13 -14t-35 -32.5t-51 -42t-62 -41.5t-68 -32t-69 -13q-37 0 -55.5 22t-24.5 54.5t-3.5 71t6.5 71t6.5 54.5t-3.5 22
t-22 -22t-39 -54.5t-51 -71t-58 -71t-60 -54.5t-57 -22h-9h-1h-7q-34 0 -50.5 22.5t-21 56.5t-1.5 74t7.5 74t6.5 56.5t-4 22.5q-7 0 -22 -22.5t-36.5 -56.5t-49 -74t-58.5 -74t-65 -56.5t-69 -22.5q-28 0 -45.5 13t-28 35t-14 49.5t-3.5 56.5q1 68 20 155z" />
    <glyph glyph-name="o" unicode="o" horiz-adv-x="531" 
d="M388 486q48 0 83.5 -19.5t55.5 -52.5t22.5 -77.5t-15.5 -95.5t-52 -95.5t-77 -77.5t-92 -52.5t-97 -19.5t-83 19.5t-55 52.5t-22.5 77.5t15.5 95.5t52 95.5t77 77.5t91.5 52.5t96.5 19.5zM351 77q30 7 59 27.5t52.5 50t39 66t20.5 74.5q4 38 -4 69t-26 52t-43.5 29.5
t-55.5 1.5q-31 -7 -59.5 -27.5t-51.5 -49.5t-38.5 -65.5t-19.5 -74.5q-5 -38 3 -69.5t25 -52t42.5 -29.5t56.5 -2z" />
    <glyph glyph-name="p" unicode="p" horiz-adv-x="534" 
d="M32 -259q-13 -14 -38.5 -40t-52.5 -49t-49 -36t-28 -1q-4 7 0.5 35t15 69.5t25.5 91t32 99.5t35 95t34 77q24 48 49 99t48.5 93t45.5 68.5t41 26.5q13 0 14 -19.5t-1.5 -49t-6 -64t0.5 -64t18.5 -49.5t48.5 -20q18 0 43 13t48.5 38.5t40.5 62t20 84.5q2 32 -8 61
t-28 50.5t-42.5 34t-52.5 12.5q-30 0 -49.5 -5t-31.5 -9.5t-18 -5.5t-10 7q-3 7 12.5 16.5t42 16.5t61.5 9.5t71 -4.5q38 -8 74 -30t61 -66q23 -41 29 -85.5t-2 -88t-28 -83t-50.5 -69.5t-69 -47.5t-82.5 -17.5q-43 0 -69 24.5t-40 54.5q-17 34 -25 79q-32 -79 -50 -146.5
t-30 -121t-22 -91t-27 -55.5z" />
    <glyph glyph-name="q" unicode="q" horiz-adv-x="639" 
d="M303 -385q-15 -12 -28.5 1t-24.5 36t-18.5 49t-10.5 40q-5 21 15.5 65.5t51.5 108.5q-26 -6 -46 -8.5t-29 2.5q-10 6 -3.5 20.5t20 31t29 31.5t24.5 20q3 2 17.5 6t36.5 9q13 30 24.5 62t22.5 66q-40 -45 -81 -79q-18 -15 -38 -29t-41 -25.5t-43 -18t-43 -6.5
q-44 0 -70 17.5t-35 47.5t-1.5 69.5t30 83t60 88t89.5 85.5q55 44 106.5 66t96.5 30q40 7 73 4.5t54.5 -9.5t30 -16.5t1.5 -16.5q-10 -8 -15.5 -7t-14.5 5.5t-25 9.5t-46 5q-28 0 -61 -12.5t-65.5 -34t-62 -50.5t-50.5 -61q-32 -48 -40.5 -84.5t-3 -62t21.5 -38.5t34 -13
q33 0 62 20t54 49.5t46 64t39 64t33 49t28 19.5q19 0 22 -26.5t-3 -68.5t-17 -93t-21 -99q-2 -6 -4 -14q60 21 118.5 52t103.5 77q3 4 9 6.5t10.5 1.5t4.5 -6t-8 -15q-7 -8 -32.5 -33t-62.5 -56t-81.5 -64t-88.5 -57q-18 -54 -41.5 -114t-45.5 -112t-40 -88.5t-27 -44.5z
" />
    <glyph glyph-name="r" unicode="r" horiz-adv-x="687" 
d="M764 186q13 0 10 -14q0 -1 -14 -14t-37.5 -32.5t-54 -42t-65 -41.5t-70.5 -32t-70 -13q-53 0 -78.5 25.5t-32.5 65t-1 87t15 90.5t16.5 76t2.5 44q-3 8 -13.5 12.5t-23 7t-26 4.5t-22.5 5q-4 0 -10 3q-13 -24 -40.5 -60.5t-60.5 -75t-67.5 -74.5t-62.5 -60q-8 -7 -15 -9
t-10 1t-0.5 10t12.5 17q63 60 103.5 104.5t65.5 76t36.5 50t16.5 26.5q-14 5 -26 9t-15 9q-10 8 -13 20.5t3 29.5q9 24 31 41t46 17q22 0 34 -14t7 -34q-1 -5 -2 -9q-2 -9 -6 -21q19 -6 53 -8.5t68.5 -5t62 -7.5t32.5 -17q5 -13 0.5 -44.5t-11 -70.5t-12.5 -80.5t-5 -76
t12 -57t38 -22.5q20 0 44 8.5t45 19.5q25 12 49 28l44 39q7 9 17 9z" />
    <glyph glyph-name="s" unicode="s" horiz-adv-x="405" 
d="M326 184q5 -12 10 -41t-3 -66t-35 -78.5t-86 -78.5q-58 -37 -101.5 -43t-73.5 6.5t-48 37.5t-25 49q-3 11 1 16t10 6t11.5 -2t5.5 -9q4 -32 18 -43.5t30.5 -12t31.5 5.5t20 10t18 12.5t27 24.5t25 40.5t12 59.5q2 38 -12.5 71t-31.5 63l-47 -47q-5 -5 -11.5 -6t-10.5 2
q-3 4 -3 9.5t5 10.5l55 53q-11 18 -20 36t-12 36q-4 25 0.5 59.5t26.5 65.5t65 52.5t117 21.5q40 0 51 -14t1.5 -38t-35.5 -57t-60 -72q11 -18 21.5 -37.5t20.5 -38.5t18 -35.5t14 -28.5zM282 482q-20 0 -35 -12t-21.5 -31.5t-4.5 -43t16 -47.5q28 29 47.5 53.5t27 42.5
t1 28t-30.5 10z" />
    <glyph glyph-name="t" unicode="t" horiz-adv-x="355" 
d="M-1 401q-10 8 2.5 22.5t39 31t62 33t71.5 29.5q22 63 45.5 127.5t45 118t38.5 91t26 47.5q17 17 45 42.5t56 47.5t50 34t27 3q2 -5 -5.5 -28t-22 -60t-34.5 -85.5t-42 -103.5t-45.5 -114.5t-45.5 -117.5q27 -6 52.5 -13.5t46.5 -15t35.5 -13t20.5 -5.5q8 0 15 2.5t12.5 5
t10 3t9.5 -3.5q4 -4 2.5 -9.5t-13.5 -15.5t-36 -26.5t-64 -41.5q-33 -21 -68 -19t-70 15q-13 -37 -22.5 -70t-14.5 -61q-17 -76 -8.5 -122.5t42.5 -46.5q17 0 43 14t50 31q28 19 59 45q7 5 13 9q13 7 19 1q7 -8 -1 -14t-12 -10l-14.5 -14.5t-33 -30t-48 -38t-58.5 -38
t-64.5 -29t-65.5 -11.5q-33 0 -52 14.5t-28.5 37t-11 51t1.5 56.5t9.5 53.5t12.5 41.5q5 16 22.5 66.5t40.5 116.5q-15 5 -28.5 6.5t-26.5 -1.5q-22 -5 -37 -13.5t-24.5 -15.5t-16 -10.5t-12.5 1.5z" />
    <glyph glyph-name="u" unicode="u" horiz-adv-x="690" 
d="M770 186q12 0 9 -14q0 -1 -13 -14t-35 -32.5t-51 -42t-62 -41.5t-68 -32t-69 -13q-37 0 -55.5 18t-25 45t-4.5 58t5.5 58t6 45t-3.5 18q-40 -68 -81 -121q-18 -23 -38 -44.5t-41 -38.5t-43 -27.5t-43 -10.5q-35 0 -56 18t-31.5 48.5t-11 70.5t7 83.5t20.5 87.5t30 83
q16 36 41 63t47 41t36 13t7 -19q-11 -32 -21 -71t-16.5 -78.5t-9 -76.5t0 -65.5t11.5 -46t26 -17.5q32 0 64 27.5t62 69t57.5 90t51 90t42 69t31.5 27.5q16 0 22.5 -18t6.5 -48t-4.5 -67.5t-9 -77.5t-8 -77.5t-1.5 -67.5t11.5 -48t29.5 -18t40.5 8.5t37.5 19.5q19 12 36 28
l44 39q7 9 18 9z" />
    <glyph glyph-name="v" unicode="v" horiz-adv-x="472" 
d="M580 469q-16 -24 -37.5 -55t-41.5 -58l-48 -64q-61 -83 -117 -148q-24 -28 -49.5 -54.5t-50.5 -47t-47 -33t-39 -12.5q-28 0 -46 13t-28 35t-13.5 49.5t-3.5 56.5q1 68 20 155q14 55 41 99q12 19 27.5 37t36 32t46.5 22.5t58 8.5q38 0 45 -19.5t-7.5 -51t-43.5 -70
t-63 -77.5q3 -30 9.5 -57.5t14 -48.5t16 -34t16.5 -13t26.5 19t43.5 49.5t54 69t57 76.5t53.5 72t43.5 56q13 13 25 11t2 -18zM276 482q-21 0 -34 -14.5t-19.5 -38t-8 -53.5t1.5 -62q27 31 48.5 61.5t32 54t7 38t-27.5 14.5z" />
    <glyph glyph-name="w" unicode="w" horiz-adv-x="761" 
d="M721 314q9 15 22 38t25.5 47t23.5 44.5t17 31.5t13 16t13 5t8 -5.5t-2 -15.5q-3 -7 -13 -25.5t-24 -43.5t-31 -54.5t-33.5 -58t-31.5 -53.5t-26 -42q-17 -26 -42 -60.5t-54 -65.5t-61 -53t-63 -22q-32 0 -52.5 15t-31.5 41t-14 60t1 73q-26 -32 -56 -65.5t-60 -61
t-57 -45t-47 -17.5q-27 0 -45 13t-28 35t-13.5 49.5t-3.5 56.5q1 68 20 155q14 55 41 99q12 19 27.5 37t36 32t46.5 22.5t58 8.5q38 0 44.5 -19.5t-8 -51t-43.5 -70t-63 -77.5q4 -30 10 -57.5t14 -48.5t16.5 -34t16.5 -13q10 0 38.5 32t65.5 80q8 37 19.5 73.5t26.5 68.5
q16 36 41 63t47 41t36 13t7 -19q-11 -32 -21 -71t-16.5 -78.5t-9 -76.5t0 -65.5t11.5 -46t26 -17.5q24 0 51 22.5t52 53t45 61t30 46.5zM271 482q-21 0 -33.5 -14.5t-19 -38t-8 -53.5t1.5 -62q27 31 48.5 61.5t32 54t6.5 38t-28 14.5z" />
    <glyph glyph-name="x" unicode="x" horiz-adv-x="552" 
d="M515 458q13 15 22 19.5t13 1.5t1.5 -12t-13.5 -21q-6 -6 -28 -33.5t-57 -68.5t-81 -92t-100 -105q22 -29 51.5 -47t68.5 -18q43 0 76 8.5t56 19.5q26 12 46 28l44 39q7 9 17 9q13 0 10 -14q-1 -1 -13 -14t-35 -32.5t-55 -42t-71.5 -41.5t-85.5 -32t-97 -13
q-45 0 -77.5 8.5t-55.5 24.5q-74 -66 -148 -120.5t-146 -86.5q-13 -5 -19 -2t-6 9t5.5 13t16.5 12q6 3 24.5 10.5t51.5 28t81.5 57t115.5 98.5q-17 16 -28.5 36t-18.5 41t-9.5 42.5t-2.5 41.5q-1 47 11 96q13 55 40 99q12 19 27.5 37t36 32t46.5 22.5t58 8.5q38 0 45 -19.5
t-7.5 -51t-43.5 -70t-63 -77.5q3 -26 12.5 -55.5t24.5 -57.5q56 57 120.5 126.5t139.5 157.5zM275 482q-21 0 -33.5 -14.5t-19.5 -38t-8 -53.5t1 -62q27 31 48.5 61.5t32 54t7 38t-27.5 14.5z" />
    <glyph glyph-name="y" unicode="y" horiz-adv-x="571" 
d="M523 168q-15 -116 -51.5 -199.5t-85 -138.5t-105.5 -84t-113 -37t-107 2.5t-89 35.5q-37 24 -45.5 54.5t4.5 64.5t44.5 70.5t74 73.5t93 73t102.5 69q28 18 44 26.5t23 11t6.5 0t-5.5 -8.5q-11 -13 -45 -41l68 37q3 1 -13 -12t-37 -29l-56 -42q-43 -18 -85.5 -45.5
t-77 -59t-56.5 -63.5t-24.5 -57.5t17.5 -41.5t71 -16q79 0 134 37.5t93.5 98.5t65.5 138t51 156q-40 -45 -81 -80q-18 -15 -38 -29t-41 -25.5t-43 -18t-43 -6.5q-66 0 -91 32t-16.5 84.5t47 118t101.5 133.5q24 25 41.5 34.5t24.5 4.5t2 -24t-26 -51q-42 -62 -50 -105
t2 -69.5t32 -38.5t40 -12q33 0 62.5 21.5t55 54t47.5 70.5t41 70.5t34.5 54t28.5 21.5q9 0 13 -13.5t4 -35.5t-3 -50.5t-8 -57.5q-11 -69 -32 -156z" />
    <glyph glyph-name="z" unicode="z" horiz-adv-x="313" 
d="M-50 -226q0 35 19 67.5t51 64t74 63.5t87.5 65t91.5 68.5t87 74.5q5 6 12 7.5t11 0t4 -7t-9 -14.5t-36.5 -32.5t-57.5 -48.5q-35 -29 -76 -63q-67 -43 -118 -84q-22 -18 -42.5 -37t-35.5 -37.5t-23.5 -36.5t-5.5 -33q3 -22 16 -29t28 -6.5t28 6.5t18 9q5 4 18.5 13t27 25
t24.5 40.5t12 59.5q2 35 -9.5 65.5t-27 58t-30 53t-18.5 51.5q-3 15 -2 36t6.5 43.5t17 44t29.5 38.5q9 10 34.5 33.5t55.5 48.5t58.5 45t43.5 23q-13 -1 -32.5 -2t-39 0t-36.5 5.5t-25 13t-4.5 22t25.5 34.5q39 39 64.5 55t38.5 18t15 -6.5t-4 -19.5q-3 -6 -15.5 -22
t-20.5 -32t-4 -27t34 -8t60.5 6.5t56 4.5t42.5 -1.5t21 -10.5q3 -5 -9 -15.5t-33 -24.5t-47 -31t-51.5 -33.5t-47.5 -32.5t-34 -28q-18 -19 -32.5 -36t-20.5 -35t-2.5 -39.5t21.5 -48.5q12 -26 33.5 -57.5t40.5 -83.5q10 -26 9 -59.5t-15 -69t-43 -71t-75 -63.5
q-50 -32 -92.5 -45.5t-74 -10t-49 23t-17.5 55.5z" />
    <glyph glyph-name="O" unicode="O" horiz-adv-x="1089" 
d="M787 956q93 0 157.5 -47.5t96.5 -129t28.5 -191.5t-46.5 -235q-30 -83 -73 -160t-95.5 -144t-113 -121.5t-124 -94t-128 -61t-126.5 -21.5q-93 0 -158.5 47.5t-97.5 129t-28.5 191t47.5 234.5q29 83 72 160t96 144t113 122t124 94.5t129 61t127 21.5zM546 -105
q79 14 155.5 66t141 130t111 175t66.5 202q19 105 6.5 191.5t-51 145.5t-100 86.5t-139.5 13.5q-79 -14 -155.5 -66t-141 -130t-111.5 -175t-66 -202q-20 -104 -7 -190.5t51.5 -146t100 -87t139.5 -13.5z" />
    <glyph glyph-name="P" unicode="P" horiz-adv-x="894" 
d="M729 993q76 0 148 -30.5t122 -83.5t71 -123.5t-5 -149.5t-107 -163t-233 -163q-74 -39 -145 -59.5t-137.5 -27t-127.5 -1t-116 19.5q-30 -85 -60 -169t-57 -161t-50 -143.5t-40 -116.5t-27 -81t-11 -36q-1 -16 -11 -28t-19.5 -12.5t-15.5 13t0 47.5q3 17 25 82.5
t55 162.5t75 215t86 240q-66 21 -119 48t-91 52q-44 29 -78 59q4 9 9 13t12 4t17 -8q6 -6 25 -22.5t51.5 -36.5t78.5 -42t106 -38q29 81 57.5 159t54.5 148.5t48 130.5t38 105q-97 3 -200.5 3h-214.5q-30 0 -57 13t-48.5 33.5t-36.5 44.5t-21.5 45.5t-3 37.5t19.5 21
q12 3 58 5t114 2.5t151 0t167 -1.5q198 -3 443 -8zM401 224q81 0 160 26t147 67.5t120 93t80.5 102.5t28 95.5t-38.5 72.5q-39 29 -91 49t-114 33t-134 20.5t-151 11.5q-17 -46 -39 -107.5t-47.5 -133t-54 -151t-58.5 -161.5q42 -8 90 -13t102 -5z" />
    <glyph glyph-name="Q" unicode="Q" horiz-adv-x="1062" 
d="M781 63q32 -58 38 -116q3 -26 2 -49t-4 -43.5t-7.5 -36.5t-7.5 -27q-20 -46 -47.5 -69t-50.5 -37q-23 -12 -37 -17t-15 -5q10 15 20.5 35.5t18.5 44.5t12.5 50.5t1.5 53.5q-6 68 -52 129q-62 -34 -124.5 -52.5t-124.5 -18.5q-99 0 -168.5 46t-102.5 126q-20 -5 -35.5 -9
t-25.5 -6q-50 -15 -53.5 1t26.5 48q24 24 63 52q-9 59 -1.5 126.5t33.5 140.5t66 140t90 125.5t107.5 106.5t119.5 82t125.5 53t125.5 19q93 0 160.5 -41.5t103 -112.5t37 -167t-37.5 -205q-38 -108 -105 -201.5t-151 -165.5zM725 911q-78 -12 -152 -57.5t-134.5 -113
t-103 -152.5t-57.5 -176q-8 -46 -7 -87.5t9 -78.5q34 8 83 12t102 -3q70 -8 135 -35.5t113 -71.5q22 -20 41 -46q52 34 97 81t81 102.5t61.5 117.5t36.5 127q15 91 -2 166.5t-58 127.5t-104 75.5t-141 11.5zM582 31q5 0 11 2q-2 2 -6 4.5t-7 4.5q-47 31 -107.5 46.5
t-125.5 17.5q42 -46 101.5 -66.5t133.5 -8.5z" />
    <glyph glyph-name="R" unicode="R" horiz-adv-x="1069" 
d="M1919 -188q34 16 50 18.5t19 -3.5t-5 -17.5t-23 -23.5q-13 -10 -56.5 -39t-108 -65t-145.5 -74t-170.5 -67t-182.5 -43.5t-181.5 -3t-167 54t-139.5 127t-99 216.5t-45 323q-66 -10 -127 -8t-116.5 12.5t-105 27t-90.5 36.5q-36 -105 -70.5 -203.5t-61 -177.5
t-43.5 -130.5t-19 -61.5q-3 -23 -14.5 -39t-21.5 -17t-14 18.5t8 67.5q4 21 21.5 76t44 131.5t59 169t67.5 190.5q-33 17 -59 34t-43 30q-21 15 -36 29q3 9 8 13t11.5 4t17.5 -8q8 -8 34.5 -29.5t74.5 -47.5l48 134t46.5 129.5t42.5 118.5t37 102h-240q-30 0 -56.5 13
t-47.5 33.5t-36 44.5t-21 45.5t-2.5 37.5t19.5 21q12 3 58 5t113.5 2.5t150.5 0t167 -1.5q198 -3 442 -8q76 0 148 -30.5t122.5 -83.5t71.5 -123t-4.5 -149.5t-106.5 -163t-233 -163.5q-53 -27 -103 -44.5t-98 -28.5l5 -1q36 -237 176 -378q60 -60 148 -105t213 -57.5
t290.5 15.5t378.5 115zM236 309q61 -28 147.5 -48.5t201.5 -20.5q81 0 160 26t146.5 67.5t120 93t80.5 102.5t27 95.5t-39 72.5q-49 36 -117.5 58.5t-154 35.5t-185 18t-209.5 6q-17 -48 -37.5 -107t-43.5 -124t-47.5 -135t-49.5 -140z" />
    <glyph glyph-name="S" unicode="S" horiz-adv-x="1186" 
d="M1244 686q24 62 0 110q-10 21 -31.5 40.5t-59 35.5t-93.5 25.5t-136 9.5q-78 0 -156.5 -14.5t-148 -40t-125.5 -59.5t-89.5 -72.5t-39 -80.5t26 -82.5t104 -78t196.5 -68.5q112 -28 203 -58t149 -72t77.5 -101t-11.5 -146q-30 -87 -90 -150t-141.5 -104t-180 -60.5
t-205.5 -19.5t-201.5 20t-160.5 56.5t-95.5 88t-7.5 113.5q11 33 33.5 53.5t49 28.5t52 5t42.5 -17q15 -12 14.5 -38t-15.5 -53.5t-45 -52.5t-74 -36q6 -27 43 -52.5t90 -45t115.5 -31t118.5 -11.5q72 0 142 14.5t130.5 40t108 59.5t75 73.5t31 81.5t-23 83.5t-87.5 79.5
t-163 70q-86 26 -159 47.5t-131 43t-99.5 45.5t-64 55.5t-25 74t18.5 100.5q20 58 64 105.5t104 85.5t132 65.5t146.5 46t148 27.5t137.5 9q96 0 167 -17.5t116.5 -47t64.5 -69t10 -84.5q-9 -44 -29.5 -74.5t-46.5 -49.5t-55.5 -27.5t-54.5 -8.5q-38 0 -54 25t-5 57
q6 16 18 31t28 27t35.5 19t40.5 7q14 0 27.5 -6t23.5 -13q11 -8 21 -18z" />
    <glyph glyph-name="T" unicode="T" horiz-adv-x="620" 
d="M1158 943q48 -3 68 -20.5t18.5 -40t-21 -46t-49.5 -38.5q-18 -9 -75.5 -14.5t-139.5 -8.5t-181 -3.5t-198 1.5q-15 -42 -41 -116.5t-59 -168t-70.5 -200t-74.5 -212t-71 -204t-60.5 -176.5t-43 -129t-18.5 -62q-4 -23 -15.5 -40t-21.5 -18t-14 19t8 70q5 22 23.5 79
t45.5 136t60.5 175t69 197t71.5 201t67.5 187t56 156t38.5 107q-65 1 -126 3.5t-114 6t-95.5 7t-69.5 8.5q-71 12 -114 36t-66 48q-27 28 -39 60q60 -14 140.5 -21t172 -9t190 0t194.5 5.5t185.5 8.5t163 9t127.5 6t78 1z" />
    <glyph glyph-name="U" unicode="U" horiz-adv-x="900" 
d="M499 911q-4 -12 -20.5 -52t-40 -99.5t-52 -134t-56 -156.5t-51.5 -167t-40 -164.5t-21 -149.5t6 -122t40.5 -82.5t83.5 -30.5t106.5 32t102.5 87.5t97.5 129t90.5 156.5t81.5 171.5t71.5 172.5t59.5 160t45.5 134t30 94t13 41q4 12 9.5 17t10 4t6.5 -6.5t-1 -14.5
q-1 -3 -12.5 -42.5t-31.5 -104t-49 -150t-65.5 -180.5t-80.5 -195t-94 -194t-105.5 -178t-116.5 -146.5t-126 -99t-133 -36.5q-85 0 -134 38t-70.5 103t-19 152t20 184t47 199.5t61.5 199t63.5 181.5t53.5 147q5 15 27.5 39.5t51.5 48.5t60 44t53.5 26.5t32 -5.5t-4.5 -51z
" />
    <glyph glyph-name="V" unicode="V" horiz-adv-x="915" 
d="M1224 948q18 16 32 21t20.5 0.5t3.5 -18t-19 -34.5q-6 -7 -28.5 -36t-58.5 -74t-83 -104t-101 -127t-113 -142l-118 -148q-209 -262 -469 -590q1 -18 0 -35q-2 -14 -5.5 -30t-14.5 -26t-33.5 -17.5t-47 -10t-46.5 1.5t-31 17q-5 6 1.5 53t18.5 121.5t25.5 170t23 200.5
t12.5 212t-8 204t-38 177.5t-76 132.5q-17 17 -18.5 33.5t12 27.5t42 15t70.5 -5q28 -6 57.5 -29.5t54 -76t41.5 -138t20 -214.5t-11 -307.5t-50 -415.5q11 13 41.5 52t75.5 97t101 131.5t118.5 154t127.5 165t127.5 165t119.5 153t102.5 129.5t77.5 95t44 49z" />
    <glyph glyph-name="W" unicode="W" horiz-adv-x="1085" 
d="M1401 948q15 16 27 21t17.5 0.5t2 -18t-18.5 -34.5q-6 -8 -34 -49t-72 -105.5t-101 -148t-119.5 -175.5t-128.5 -188.5t-128.5 -188t-118 -173t-98.5 -143t-69.5 -99.5t-30.5 -42q-9 -10 -28.5 -17.5t-40 -10t-38 1.5t-24.5 17q-3 6 0.5 54.5t11 125t19 174t23.5 201.5
q-49 -69 -105.5 -147.5t-105.5 -147.5l-114 -160q0 -18 -2 -35q-2 -14 -6.5 -30t-13.5 -26t-28 -17.5t-39.5 -10t-38.5 1.5t-25 17q-3 6 5 53t22.5 121.5t31.5 170t31.5 200.5t23 212t5.5 204t-20.5 177.5t-54.5 132.5q-13 17 -13.5 33.5t11.5 27.5t36 15t59 -5
q23 -6 45.5 -29.5t39.5 -76t25.5 -138t3 -214.5t-28 -307.5t-66.5 -415.5q13 17 35 49.5t50 74.5t60.5 90.5t65.5 97.5t64 95.5t58 83.5q12 101 23.5 197.5t20.5 174.5t14 130.5t5 67.5q-1 21 8.5 39t25 30.5t33.5 18.5t33.5 3.5t26 -15.5t11.5 -37q0 -42 -4.5 -89.5
t-12.5 -111.5t-19 -149.5t-24 -201.5t-26 -268.5t-25 -350.5q10 13 37.5 54t68.5 102.5t92 139.5t107.5 163.5t115.5 175.5t116 175.5t108.5 162.5t93 137.5t70 100.5t39.5 51z" />
    <glyph glyph-name="X" unicode="X" horiz-adv-x="871" 
d="M1238 948q40 6 62 3.5t27 -10.5t-5 -19t-34 -23q-59 -8 -138.5 -58t-171 -128.5t-190.5 -177t-195 -202.5q27 -107 53 -210t47.5 -185t36 -136t19.5 -64q10 -20 8 -38.5t-12 -24.5t-26 6.5t-34 56.5q-8 19 -22.5 70.5t-33.5 124.5t-41 162t-44 183q-65 -71 -126.5 -140.5
t-115.5 -132.5t-99.5 -117t-79.5 -94t-55 -63.5t-26 -26.5q-15 -9 -35 -11.5t-39.5 -1t-34 6.5t-18.5 12q-1 2 20.5 33t60.5 83t94.5 120.5t121.5 147.5t141.5 163.5t155.5 168.5q-24 97 -45.5 185t-37.5 156q-18 79 -34 148q-5 21 0 35t14 18t19.5 -2t16.5 -24
q2 -8 12 -48.5t25.5 -103.5t35.5 -143.5t43 -169.5q93 95 187 180.5t182.5 150t168 102.5t142.5 38z" />
    <glyph glyph-name="Y" unicode="Y" horiz-adv-x="985" 
d="M1276 948q40 6 62 3.5t27.5 -10.5t-4.5 -19t-34 -23q-49 -6 -109 -47.5t-127 -108t-139.5 -153t-144.5 -182.5t-142.5 -197t-134 -196.5t-118.5 -180.5t-96.5 -150t-67.5 -104t-32 -43q-15 -9 -35.5 -11.5t-40 -1t-35 6.5t-18.5 12q-2 3 13 30t41 68.5t59.5 93.5
t69.5 106q84 126 191 283q-30 216 -56 390q-11 74 -21.5 146t-19 130.5t-14.5 97t-7 45.5q-3 15 2 24.5t13 13t18 0t17 -15.5q5 -9 11.5 -45.5t14 -90.5t15 -120t15.5 -134.5t15 -135t13.5 -121.5t11.5 -92.5t8 -48.5q98 165 186.5 286t166 206.5t143.5 139.5t120 86
t95 45.5t68 17.5z" />
    <glyph glyph-name="Z" unicode="Z" horiz-adv-x="833" 
d="M1459 -445q34 16 50.5 18.5t19.5 -3.5t-5.5 -17t-23.5 -23q-13 -10 -54 -37.5t-103 -62.5t-139.5 -72.5t-164 -66.5t-177 -45.5t-177 -10.5t-165.5 40.5t-142.5 107t-106.5 188t-59 284.5q-45 -42 -80.5 -75t-61.5 -56q-85 -73 -153.5 -115t-117.5 -64q-57 -26 -102 -33
q73 60 160 141.5t180 175t189 195t188 201.5t177.5 194t157.5 173.5t127 139.5t87 92q-18 -5 -39.5 -11t-44.5 -11q-75 -18 -166 -32t-183 -20q-93 -6 -177 -4t-148 10q-65 7 -102.5 15t-35.5 6q-11 3 -13 10.5t2 16t12 14.5t18 5q4 0 44.5 -7.5t109.5 -13.5t154 -6.5
t177 7.5t181 23.5t161 34.5q63 15 106.5 30t57.5 20q2 2 7 3q7 5 16 5q38 9 49.5 -16.5t-9.5 -70.5q-8 -19 -54 -73t-116.5 -131t-159.5 -170.5t-183.5 -190.5t-188.5 -191t-175 -172q8 -36 24.5 -85.5t46 -103.5t75 -106.5t111 -94.5t154 -68t203.5 -25.5t259.5 31.5
t322.5 103z" />
    <glyph glyph-name="A" unicode="A" horiz-adv-x="1181" 
d="M1084 29q18 -18 19.5 -35t-12.5 -29t-43.5 -15.5t-74.5 5.5q-32 6 -65.5 45.5t-65.5 104.5q-78 -2 -166 -2.5t-177 1t-173.5 4.5t-154.5 8q-75 -99 -146 -190.5t-129 -165t-98.5 -122t-54.5 -61.5q-20 -18 -35 -23t-22 0t-3.5 19.5t20.5 36.5q7 9 42 53.5t90 114t125 158
t147 185.5q-31 2 -54.5 5t-40.5 6q-75 13 -120 37.5t-71 50.5q-30 29 -43 63q81 -18 194 -25t239 -7q48 60 95.5 120t92.5 117t86.5 109.5t77.5 97.5q84 106 160 201q-2 19 0 37q2 15 6 31t15 27q11 10 34.5 18t49.5 10.5t49.5 -1.5t33.5 -17q5 -7 3 -41.5t-5 -89t-6 -124.5
t0 -148t13 -159.5t33 -158.5q52 2 90.5 3.5t57.5 -0.5q51 -3 72.5 -21.5t20 -42t-22 -48t-51.5 -40.5q-25 -11 -96 -17q25 -47 64 -85zM276 252q130 2 259.5 7.5t241.5 11.5q-18 60 -31.5 127t-21 138.5t-8 146t7.5 148.5q-13 -16 -55 -70t-103 -132.5t-136 -176
t-154 -200.5z" />
    <glyph glyph-name="B" unicode="B" horiz-adv-x="1080" 
d="M848 468q119 -76 158 -171q16 -41 17 -89.5t-25.5 -104.5t-85.5 -118.5t-162 -130.5q-92 -60 -171 -95.5t-146.5 -52t-124.5 -16.5t-104 12t-85 32.5t-68 45.5q-24 -72 -45.5 -134.5t-37 -110t-25.5 -78t-11 -38.5q-5 -25 -17 -43t-22.5 -19t-14.5 20t9 74q3 16 13 50.5
t26 83t36.5 108.5t43.5 128q-33 36 -52.5 67.5t-30.5 43.5q-17 21 -37 43t-34.5 42.5t-19.5 38t9 29.5q12 9 32 0.5t46 -30.5t58 -55.5t67 -72.5q31 88 63.5 181t64 181.5t60.5 169.5t53 147q-59 -26 -116.5 -50t-111.5 -43.5t-103.5 -33t-91.5 -19.5q-84 -11 -138.5 2
t-86.5 38t-45 58.5t-14 63.5t7 52.5t19 27.5q6 3 13 0q6 -2 14.5 -10t19.5 -27q19 -25 61 -30.5t97 2.5t118.5 26t127.5 41t123.5 48t105.5 47q47 21 103 48.5t116.5 51.5t123.5 41t123 17t115 -20.5t101 -70.5q34 -38 47.5 -75t12 -72.5t-15.5 -67.5t-34 -60
q-47 -65 -128 -123zM930 792q-8 24 -35 31t-68.5 0t-95 -25.5t-115 -44.5t-130 -56.5t-138.5 -61.5q-15 -46 -35 -101t-40 -116q28 4 73.5 15.5t100.5 28.5t115.5 39.5t117.5 48.5t107.5 55.5t86 60.5t51.5 63t5 63zM86 -117q44 -36 115 -50.5t154 -8t170.5 32.5t165.5 71.5
t138 108.5t89 144q24 68 13 110t-47 63.5t-92 26t-121 -2t-133.5 -21.5t-130.5 -32t-111.5 -33t-76.5 -26q-33 -95 -66.5 -192.5t-66.5 -190.5z" />
    <glyph glyph-name="C" unicode="C" horiz-adv-x="964" 
d="M846 45q16 18 28.5 25.5t18 5.5t1.5 -13.5t-21 -30.5q-12 -13 -35 -39t-56.5 -58t-77 -66t-96 -63t-115 -49.5t-132.5 -25.5t-122 14.5t-87.5 57t-55 90t-26 113.5t0.5 127.5t25 132.5q19 66 56.5 139t89.5 145.5t116.5 139t138 118.5t153.5 85.5t163 39.5q67 5 116 -4.5
t83.5 -28t55 -44t31 -52.5t11 -54t-5.5 -49q-1 -9 -5 -18q-1 -2 -1 -4.5t-2 -4.5q-5 -18 -16 -34t-26 -28.5t-33 -20.5t-36 -9q-35 -2 -54 21t-10 58q6 18 17 34t26 28.5t32.5 20.5t35.5 9q23 2 39 -7q-3 27 -15 57t-39 54t-72.5 38t-116.5 9q-56 -4 -112 -37.5t-109 -88
t-101 -125.5t-88 -150t-69 -161.5t-45 -159.5t-16.5 -144.5t18.5 -116.5t58 -76t103 -22q46 3 90 18.5t84 37t74 47t61 49t45 42.5t25 28z" />
    <glyph glyph-name="D" unicode="D" horiz-adv-x="987" 
d="M700 932q60 0 116.5 -23.5t102 -66t76 -101.5t40 -129t-6.5 -148.5t-64 -161.5t-132 -167t-211 -164q-81 -52 -157 -79.5t-146 -36.5t-133 -2t-119 24q-5 -12 -14 -19t-17.5 -6.5t-14 10.5t-3.5 33q-69 28 -123.5 65t-92.5 71q-45 40 -78 81q4 11 10 17q5 5 12 5t17 -11
q6 -8 24.5 -31t50.5 -51.5t78 -58.5t108 -53q8 31 30.5 95.5t52 147t63.5 174.5t65.5 177.5t58 156.5t41.5 111q-102 0 -213 -3.5t-230 -3.5q-31 0 -61 9.5t-55 24t-43.5 32.5t-27.5 35t-6.5 30.5t19.5 19.5q13 4 62.5 6.5t121 3.5t158.5 0t176 -2q209 -4 465 -11zM273 -113
q64 0 128 23t124 62t114 91.5t98 111.5t76 121.5t48 122t13.5 112.5t-26.5 93q-30 48 -75.5 79.5t-104.5 50t-130.5 26.5t-152.5 10q-15 -43 -41.5 -116t-58 -160.5t-65 -181t-63 -177t-51.5 -148t-31 -94.5q42 -12 91.5 -19t106.5 -7z" />
    <glyph glyph-name="E" unicode="E" horiz-adv-x="833" 
d="M803 686q7 18 19.5 34t28.5 27.5t34.5 18.5t36.5 7q20 0 35 -9q6 27 6.5 56t-14 52t-46.5 38t-90 15q-46 0 -90 -23.5t-82.5 -61.5t-70 -86.5t-51.5 -99.5t-27 -99t3.5 -85.5t40.5 -60t83 -20.5q24 0 33.5 -7t6.5 -15t-17 -15t-35 -7q-76 0 -141 -27.5t-117 -72
t-90.5 -101.5t-60 -116.5t-26 -116.5t10.5 -101.5t51.5 -72t95.5 -27.5q44 0 86 21.5t79.5 55.5t70 75t57.5 79.5t41.5 70t23.5 45.5q9 21 18.5 30.5t15.5 7.5t5.5 -15.5t-12.5 -38.5q-8 -16 -28.5 -53t-51.5 -82t-71 -93.5t-87 -88.5t-99 -65.5t-106 -25.5q-87 0 -150 33
t-95.5 89.5t-33.5 132t35 161.5t111.5 178t194.5 181q-31 74 -21.5 144.5t46 132.5t94 113.5t124 88.5t134.5 57.5t126 20.5q54 0 87.5 -14.5t52.5 -37t25 -51.5t4 -58.5t-9.5 -56t-15.5 -45.5q-1 -4 -1 -7.5t-3 -8.5q-6 -18 -18.5 -33.5t-28 -27.5t-34 -18.5t-36.5 -6.5
q-36 0 -52.5 25t-4.5 61z" />
    <glyph glyph-name="F" unicode="F" horiz-adv-x="894" 
d="M1013 782q-41 -6 -106.5 -11.5t-145.5 -9t-169.5 -6t-178.5 -3.5q-11 -32 -28.5 -81t-39 -111t-47 -134.5t-52.5 -149.5q79 -5 170 -9t182 -4t176 5t151 19q-26 -25 -61 -47q-30 -19 -74.5 -37.5t-103.5 -27.5q-32 -5 -86 -9.5t-119.5 -7.5t-137.5 -4t-140 -1
q-30 -86 -59.5 -171t-56.5 -164t-50.5 -148t-41 -122t-28.5 -87t-12 -42q-5 -25 -17 -43t-22.5 -19t-14.5 20t8 74q4 17 15.5 54t29 89.5t39.5 117t47 136.5t52 149.5t54 155.5q-44 1 -83 2.5t-69 4t-49 6t-25 8.5q-14 12 -15.5 30t9.5 35.5t34.5 31t60.5 16.5q21 1 69 -1.5
t114 -6.5q27 77 53 149t48.5 134t40 110.5t28.5 79.5q-85 0 -162.5 1.5t-138 5t-101 8.5t-50.5 13q-21 16 -24 40.5t12 48.5t48.5 42.5t87.5 21.5q36 2 120 -2.5t198 -11t247.5 -12t268.5 -6.5t261 6t225 26q-37 -34 -87 -63q-44 -26 -107 -50.5t-147 -37.5z" />
    <glyph glyph-name="G" unicode="G" horiz-adv-x="894" 
d="M825 250q4 -17 -2 -52t-19.5 -81.5t-34 -102t-44.5 -113.5t-51 -116.5t-54 -111.5q-41 -79 -85 -133.5t-82 -88.5q-44 -40 -86 -64q69 123 112 232t70 204q-54 -38 -118.5 -65t-139.5 -32q-60 -4 -103.5 17t-71.5 60t-42 92.5t-16 115t8 128.5t29 133t55.5 139t85 144
t107.5 136.5t125 116.5t136.5 82.5t142.5 35.5q58 3 100.5 -7.5t72.5 -30t48 -45t26.5 -53.5t8.5 -55t-7 -49q-2 -10 -5 -17.5l-5 -12.5q-1 -3 -1 -6.5t-2 -7.5q-7 -18 -19 -33.5t-27.5 -27t-33 -18t-35.5 -6.5t-31.5 6.5t-21 18t-9 27t5.5 33.5q6 18 18 33.5t28 27.5
t34 18.5t36 6.5q23 0 41 -13q-1 27 -9.5 60t-31 61.5t-63 46.5t-106.5 14q-48 -3 -98.5 -35.5t-99 -86t-93.5 -124t-83.5 -149t-68.5 -160.5t-48 -159.5t-22 -145.5t9.5 -118t45.5 -78t87 -25q48 3 93.5 22.5t85.5 46.5q26 96 42 169.5t38 124.5q22 52 50 80t54 34.5
t46.5 -5t27.5 -38.5z" />
    <glyph glyph-name="H" unicode="H" horiz-adv-x="915" 
d="M813 271q52 -3 73 -21.5t19.5 -42.5t-22 -48.5t-53.5 -40.5q-18 -9 -76.5 -15t-143.5 -9q-40 -116 -76.5 -223t-64 -191t-45 -138.5t-20.5 -66.5q-5 -27 -18 -47t-24 -20.5t-15 22.5t10 81q6 23 23.5 78.5t44 132.5t59 172t68.5 198q-72 -2 -150.5 -2.5t-158.5 1.5
q-38 -107 -71.5 -204.5t-59.5 -174t-42 -126t-17 -60.5q-5 -26 -17.5 -44t-23.5 -19t-15 20.5t9 75.5q5 21 21 71.5t40 121.5t54 158t64 182q-73 1 -142 4t-129 6.5t-107.5 8t-77.5 9.5q-75 13 -120 37.5t-71 50.5q-30 29 -43 63q64 -15 150 -22t184.5 -9t203 0t206.5 6
q46 131 91 255.5t80 223.5q41 115 79 218q9 24 20.5 35.5t20.5 11.5t12.5 -11.5t-3.5 -33.5q-3 -11 -25 -74t-56 -159.5t-76 -217t-86 -246.5q88 5 168.5 9t147.5 8q24 69 48 137.5t46.5 133t44 124t39.5 110.5q43 121 81 228q10 27 22.5 39.5t21.5 12t12.5 -13t-3.5 -36.5
q-2 -8 -13.5 -40t-29.5 -84t-41.5 -120t-51 -147t-57.5 -165.5t-60 -175.5q50 2 87 3.5t55 -0.5z" />
    <glyph glyph-name="I" unicode="I" horiz-adv-x="471" 
d="M11 -576q-25 24 -40 64q-13 34 -18.5 88.5t10.5 134.5q7 40 26.5 111t47 160.5t61.5 192t69.5 204.5t70.5 198t65.5 172.5t54.5 128t37 64.5q25 26 53.5 38t49.5 5t29.5 -34.5t-6.5 -79.5q-8 -26 -31.5 -87t-58 -146.5t-76 -189t-85 -215.5t-85.5 -226.5t-77.5 -221
t-61 -199.5t-35.5 -162z" />
    <glyph glyph-name="J" unicode="J" horiz-adv-x="813" 
d="M987 891q51 -1 76.5 -6.5t30 -12.5t-10.5 -14.5t-43 -12.5q-10 -2 -36.5 -3.5t-67.5 -3.5q-9 -44 -27 -121t-46.5 -173t-68.5 -204.5t-92 -215t-117.5 -203.5t-145.5 -171.5t-174.5 -118.5t-205.5 -44q-51 0 -85 13.5t-55 35.5t-30.5 49.5t-11.5 55t1.5 52t8.5 41.5
q8 25 16.5 34t14.5 7.5t8.5 -11.5t-1.5 -23q-2 -8 -4.5 -22.5t-1.5 -31.5t9 -34t26.5 -31t51 -23t83.5 -9q65 0 124.5 41.5t113 111t100.5 160t87 188.5t72.5 197.5t57.5 186.5t41.5 155t24.5 103q-70 -2 -145.5 -3t-151.5 -1.5t-148.5 -0.5t-135.5 0.5t-113.5 1.5t-82.5 3
q-34 2 -64 4.5t-54 5.5q-42 5 -73 9t-49.5 9t-24.5 12t0 18q6 12 22.5 13t39.5 -2.5t49.5 -9.5t52.5 -8q99 -8 215 -10t234.5 -1t233 4.5t209.5 6.5q4 9 10 20.5t15 23.5q5 8 21 17.5t37 18.5t45 17.5t45 13t36.5 4.5t20.5 -6q5 -9 5.5 -23.5t-1.5 -29.5t-5.5 -28.5
t-4.5 -20.5h39v0z" />
    <glyph glyph-name="K" unicode="K" horiz-adv-x="883" 
d="M1674 -328q36 17 53 19.5t20 -3.5t-6 -18.5t-25 -24.5q-14 -11 -59 -41t-112 -67.5t-151.5 -77.5t-177.5 -70.5t-190.5 -46t-190 -5.5t-175.5 52.5t-147.5 127.5t-106.5 219.5t-52 328.5q-86 -47 -150 -97.5t-109.5 -99t-74.5 -92t-45 -76.5q-24 -72 -39 -117.5
t-17 -56.5q-5 -26 -17.5 -44t-23 -19t-14 20.5t9.5 75.5q4 18 16 57.5t30.5 95t42 124.5t50 146t55.5 159l58 164q102 289 228 638q9 24 20.5 35.5t20.5 11.5t12.5 -11.5t-2.5 -33.5q-3 -10 -22.5 -66.5t-50 -144t-69.5 -198t-80 -228.5t-81.5 -235.5t-75.5 -219.5
q31 37 73.5 79.5t97.5 86.5t122.5 87t148.5 82q98 47 172.5 106.5t129.5 122.5t93 125t62.5 114.5t38 90.5t19.5 53q5 15 20.5 33.5t36 38t44 37t46.5 30t42.5 17.5t31.5 0t9.5 -47.5t-26.5 -109.5t-74 -152t-134 -175.5t-205 -179t-287 -163.5q-22 -9 -42.5 -18.5
t-40.5 -19.5q2 -20 12.5 -67.5t34.5 -107.5t66 -124.5t108.5 -120t160 -94t221 -45.5t293 24t374.5 116z" />
    <glyph glyph-name="L" unicode="L" horiz-adv-x="441" 
d="M940 -269q-80 12 -189.5 12.5t-233 -6t-251.5 -18.5t-245 -24l-54.5 -163.5t-23.5 -77.5q-4 -25 -16.5 -43t-23 -19t-14.5 20t8 74q5 22 22 74.5t40 127.5q-65 -7 -123 -13.5t-105 -11.5t-82 -8t-53 -3q-53 0 -75.5 16.5t-22.5 40t19 48.5t51 43q15 8 56.5 16t101.5 15
t135 13t156 11q26 75 55 157t58.5 165t58.5 163.5t55 153.5q62 171 122 338q9 24 20.5 35.5t20.5 11t13 -12t-2 -32.5q-3 -9 -20 -57.5t-43.5 -124t-60.5 -172t-71 -202t-75 -213.5t-72 -207q93 5 186.5 8t176 4.5t149 0t105.5 -5.5q77 -8 125 -30t75 -45q32 -27 47 -59z
" />
    <glyph glyph-name="M" unicode="M" horiz-adv-x="1406" 
d="M1420 548q0 -22 -9.5 -69.5t-25.5 -111t-38 -138t-46.5 -150.5t-51.5 -148.5t-54 -131.5t-52 -99.5t-46 -53.5q-17 -10 -26.5 -8t-15 12t-9 25.5t-7 33t-9.5 34.5t-17 29q-6 7 3.5 42.5t29 91t46 126t53.5 148t51.5 157.5t40 154.5t19.5 138.5t-10 109.5t-49 67.5t-98 13
q-21 -3 -44 -14t-44.5 -25t-39.5 -28.5t-30 -25.5q2 -59 -7.5 -133t-27 -156t-41 -167t-48.5 -165.5t-50.5 -152.5t-47.5 -128t-38 -91t-23 -42q-17 -18 -39 -16.5t-39.5 22.5t-25.5 62t2 102q100 262 161 469q26 88 46 172t26.5 150t-3 106.5t-43.5 40.5q-69 0 -130.5 -49
t-116 -129t-102 -182.5t-88 -210t-74.5 -211t-61 -185t-47 -133t-33 -54.5q-27 -6 -37 6t-15 32.5t-10.5 45t-22.5 42.5q-8 9 6 59t38.5 125t55 168.5t56.5 189.5t43 187t14.5 162t-30 114t-89.5 43q-54 0 -97.5 -24t-77 -64t-58.5 -91t-43 -105t-29.5 -107t-19.5 -96.5
t-12 -73t-7 -36.5q-5 -15 -13.5 -22t-15.5 -6.5t-10 8.5t3 23q3 7 7.5 39.5t13.5 80t23.5 105.5t36 118t52 116t71.5 100t93.5 70.5t119.5 26.5q58 0 100.5 -14.5t73 -38t50 -53.5t30.5 -61q26 -74 22 -167q46 93 110 167q27 31 61 61t74.5 53.5t87 38t99.5 14.5
q44 0 66 -34.5t27 -94.5q17 16 40.5 36.5t51 40t56.5 34.5t56 18q81 10 133 -3t83 -40.5t45 -65.5t18 -78.5t2 -79t-3 -67.5z" />
    <glyph glyph-name="N" unicode="N" horiz-adv-x="929" 
d="M832 882q42 0 64.5 -32t29 -87t-0.5 -129t-23 -157t-39.5 -172t-49.5 -173.5t-52.5 -161t-49.5 -136t-40.5 -97.5t-24.5 -45q-17 -18 -39 -16.5t-39.5 22.5t-25.5 62t2 102q100 262 161 469q26 88 46 172t26.5 150t-3 106.5t-43.5 40.5q-69 0 -130.5 -49t-116 -129
t-102 -182.5t-88 -210t-74.5 -211t-61 -185t-47 -133t-33 -54.5q-27 -6 -37 6t-15 32.5t-10.5 45t-21.5 42.5q-6 7 2 42t24.5 89.5t39 124.5t46 146.5t45 156t36 153.5t19 138t-6 110.5t-39 70.5t-79.5 17q-23 -3 -47 -15t-46 -27t-40 -30.5t-29 -25.5q-23 -20 -28 -12.5
t13 25.5q12 12 36.5 35.5t54.5 47t63.5 42t65.5 22.5q60 7 103.5 -3.5t74.5 -32.5t50 -52.5t30 -63.5q26 -77 18 -182q46 93 110 167q27 31 61 61t74 53.5t86.5 38t99.5 14.5z" />
    <glyph glyph-name="period" unicode="." horiz-adv-x="210" 
d="M113 161q5 15 15 28t23 23t27.5 16t29.5 6q29 1 42.5 -19.5t5.5 -49.5q-10 -29 -37.5 -50t-56.5 -22t-44 19t-5 49z" />
    <glyph glyph-name="comma" unicode="," horiz-adv-x="218" 
d="M127 174q7 14 19 26t26 20t29 11.5t29 1.5q27 -4 37.5 -27.5t-4.5 -52.5q-9 -24 -25.5 -47.5t-34.5 -43t-35 -34t-27 -22.5q-11 -8 -20 -8.5t-13 4.5t-1.5 14t16.5 20q16 12 19 29.5t4 32.5q-20 8 -26 29t7 47z" />
    <glyph glyph-name="quotesingle" unicode="'" horiz-adv-x="0" 
d="M10 634q7 14 19 26t26 20t29 11.5t29 1.5q26 -4 37 -27.5t-3 -52.5q-10 -24 -26.5 -47.5t-35 -43t-35 -34t-26.5 -22.5t-19 -8.5t-13 4.5t-1.5 14t15.5 20q16 12 19 29.5t4 32.5q-20 8 -25.5 29t6.5 47z" />
    <glyph glyph-name="hyphen" unicode="-" 
d="M444 326q27 -2 35.5 -21.5t4.5 -42t-17 -41t-29 -18.5h-67t-63.5 0.5t-64 0.5h-68.5q-43 0 -61.5 19t-23.5 42q-6 26 1 61q50 -5 101 -4.5t98 2.5t87 3.5t67 -1.5z" />
    <glyph glyph-name="exclam" unicode="!" horiz-adv-x="265" 
d="M205 255q-8 9 -9 33q-1 20 5.5 59t28.5 105t48.5 135t52.5 129.5t50.5 106.5t42.5 66q17 19 41.5 25.5t43 -2t26 -33t-9.5 -67.5q-12 -29 -37.5 -73.5t-57.5 -97t-67 -108.5t-67 -108.5t-56.5 -96.5t-34.5 -73zM62 52q-10 -29 5 -49t44 -19t55.5 22t36.5 50t-3.5 49.5
t-42.5 19.5q-31 -1 -58 -22.5t-37 -50.5z" />
    <glyph glyph-name="zero" unicode="0" horiz-adv-x="529" 
d="M398 532q45 0 77 -21.5t48.5 -59t16 -88t-20.5 -107.5t-55 -106.5t-78 -87t-90 -59t-92 -21.5t-76.5 21.5t-47.5 59t-15 87t21 106.5t54.5 107.5t77 88t89 59t91.5 21.5zM307 56q28 4 56.5 24t54.5 50t47 68t33 80q11 42 10.5 77.5t-11 60t-30 37t-47.5 8.5
q-28 -5 -56.5 -24.5t-54.5 -49.5t-47 -69t-33 -81q-11 -42 -10 -77t11.5 -59.5t30 -36.5t46.5 -8z" />
    <glyph glyph-name="one" unicode="1" horiz-adv-x="457" 
d="M138 372q6 4 23 17t39.5 30t48 35.5t50 34t44.5 25.5t32 10q17 0 32.5 -9.5t26 -25t13.5 -35.5t-4 -40q-5 -13 -17 -50t-28.5 -85t-35 -101t-36.5 -98.5t-33 -77.5t-23 -38q-14 -9 -36.5 -7t-44.5 11t-36.5 24t-11.5 32q2 11 15 44t30.5 76t36.5 89.5t33 85.5t20 64.5
t-2 25.5q-13 0 -30 -7t-34.5 -16.5t-33.5 -19.5t-26 -17q-11 -7 -17.5 -6.5t-8.5 5t1.5 11.5t12.5 13z" />
    <glyph glyph-name="two" unicode="2" horiz-adv-x="537" 
d="M171 357q-12 -8 -17.5 -7.5t-7 5t0.5 10.5t6 9q2 2 18.5 15t41.5 31t56.5 37.5t65 34.5t66.5 22.5t60 1.5t46.5 -28.5t26.5 -68.5q9 -58 -15.5 -103t-67 -79.5t-95 -59t-99 -41t-78.5 -25.5t-34 -13t17.5 -6t51 -3t69 -1t70.5 -0.5t56.5 -1.5t27.5 -4q5 -4 -1 -18
t-17 -30t-23.5 -31t-21.5 -22q-6 -4 -31.5 -7t-61 -5t-75.5 -2.5t-75 -0.5t-60.5 1t-30.5 3q-8 2 -11.5 19.5t-3.5 39t4 42t10 27.5q5 7 16 10t34.5 7.5t61.5 13.5t97 29q45 15 76 40.5t49 54.5t23.5 59t0.5 54t-19.5 39t-37.5 15q-34 0 -61.5 -8t-49 -18.5t-36.5 -21
t-22 -15.5z" />
    <glyph glyph-name="three" unicode="3" horiz-adv-x="491" 
d="M345 235q23 -15 40 -35t22 -45t-6 -54.5t-43 -65.5q-46 -51 -88.5 -68.5t-78.5 -14t-65 21.5t-50 39.5t-33.5 39t-13.5 20.5q-2 3 0 8t6 8.5t9.5 3.5t11.5 -7q4 -4 11 -12.5t20 -17.5t34 -15.5t53 -6.5q22 0 47 14t45 36.5t32.5 49t10.5 52.5q-2 12 -9 19t-14 11
q-9 4 -18 6q-13 0 -21 3t-5 9q2 5 11.5 8.5t22.5 3.5q12 0 23 5t20 11.5t16 13.5t11 12q19 25 24.5 51t1 47.5t-19 35.5t-36.5 14q-32 0 -58 -6.5t-45.5 -15.5t-32.5 -17.5t-20 -12.5q-11 -7 -16 -7t-6.5 3.5t0.5 9t7 8.5q2 2 26.5 20t60 39t78 39.5t80.5 21.5t67.5 -15
t40.5 -69q7 -36 -3 -65.5t-32 -54t-53 -44.5t-65 -35z" />
    <glyph glyph-name="four" unicode="4" horiz-adv-x="620" 
d="M623 431q-3 -21 -15 -62t-29 -91t-37 -103t-39 -98t-34 -76t-23 -37q-11 -9 -33 -8t-44 9.5t-37.5 23.5t-14.5 35q1 7 5.5 24t12 40t17.5 51t21 59q-25 -21 -52 -36t-54.5 -22t-56 -3t-55.5 21q-37 23 -49.5 50.5t-8 57t22.5 59.5t43 58t53 53t52.5 44t41.5 30t20 13
q5 4 11.5 4.5t9.5 -2.5t1.5 -9t-13.5 -16q-7 -5 -21.5 -16t-31 -28.5t-33 -42.5t-28.5 -59q-10 -27 2.5 -49.5t39 -35t63 -12t75.5 21.5q16 42 32 82t30 71.5t25 52t17 24.5q12 7 33 8t40.5 -8t32 -28t8.5 -50z" />
    <glyph glyph-name="five" unicode="5" horiz-adv-x="615" 
d="M89 125q3 -5 16 -15t33.5 -20t48.5 -17.5t62 -7.5q23 0 46.5 10.5t43.5 28t32.5 39t12.5 44t-14.5 43.5t-49.5 36q-25 11 -50 19t-47.5 13.5t-40 9l-27.5 5.5q-5 1 -0.5 16t15 37t24.5 47.5t28 47.5t26 37.5t18 16.5t32 2t61.5 1t75.5 -0.5t74 -2.5t57.5 -5t26.5 -7
q4 -7 6 -22t1 -31t-4.5 -29.5t-10.5 -17.5q-6 -4 -37.5 -5t-72.5 -1.5t-84 -1t-72 -2.5q-8 0 -18.5 -10t-19.5 -22t-15 -23t-7 -12q0 -3 16 -6t40.5 -8.5t54 -13.5t56.5 -21t47.5 -31.5t27 -44t-5.5 -59.5t-49 -77q-53 -61 -101.5 -82t-91 -17t-77.5 26t-60.5 47t-40 46
t-15.5 24q-2 4 -0.5 10t6 10.5t11 4.5t12.5 -9z" />
    <glyph glyph-name="six" unicode="6" horiz-adv-x="586" 
d="M411 414q39 -6 67 -25t43 -47.5t16.5 -65t-12.5 -77.5q-16 -45 -47.5 -84.5t-72 -69t-87.5 -46.5t-93 -17t-80 17t-53.5 46.5t-23 69t12.5 84.5q21 65 78 119q21 23 56.5 59t77 77t84.5 83t80 75.5t63 55t33 22.5q12 3 24.5 -6t17.5 -26.5t0 -43t-28 -55.5
q-9 -12 -24.5 -27.5t-36 -34t-45 -40t-50.5 -43.5zM326 40q28 4 55.5 19.5t51.5 39.5t42 54.5t27 63.5q8 33 1.5 64.5t-24 55t-43 36t-55.5 8.5q-37 -33 -68 -66q-26 -29 -50 -63.5t-32 -67.5q-9 -33 -6 -61t16 -47.5t35 -29t50 -6.5z" />
    <glyph glyph-name="seven" unicode="7" horiz-adv-x="586" 
d="M91 -199q-8 0 -18.5 8t-16.5 22.5t-5 34.5t17 45q8 13 27.5 40t46.5 63l58.5 78t62 83.5t57.5 80.5t46 68.5t26.5 47.5t-1.5 18q-32 0 -63.5 -2.5t-58 -3t-47 2t-30.5 12.5q-11 10 -18 26.5t-7.5 34t5 32t19.5 19.5q9 4 43 5.5t80 1t97.5 -2.5t96.5 -5t76.5 -7t36.5 -9
q7 -6 -11.5 -39t-53 -83t-81.5 -111.5t-97 -125t-99.5 -124t-90 -107t-67 -75t-30.5 -28.5z" />
    <glyph glyph-name="eight" unicode="8" horiz-adv-x="556" 
d="M364 148q38 -25 51 -69.5t-7 -98.5q-14 -41 -43.5 -76.5t-67 -62t-81 -42t-86.5 -15.5q-44 0 -76 15.5t-50.5 42t-22 62t10.5 76.5q17 54 60.5 98t100.5 70q-38 26 -51 70t5 99q14 40 43.5 75.5t67.5 61.5t81.5 41.5t86.5 15.5t75.5 -15.5t51 -41.5t22 -61.5t-10.5 -75.5
q-18 -55 -61 -99t-99 -70zM413 461q-27 -3 -53 -17.5t-48 -36t-38.5 -48.5t-23.5 -57q-8 -30 -4 -55t16.5 -42.5t32.5 -26t46 -5.5q27 3 53 17t48 35.5t38 49t24 57.5q7 29 3.5 54t-16 42.5t-32.5 26.5t-46 6zM224 -163q25 3 51 17t48 35.5t38.5 49t24.5 57.5q7 29 3.5 54
t-16 42.5t-33 26t-47.5 5.5q-26 -3 -51.5 -17t-47.5 -35.5t-38 -48.5t-23 -57q-8 -30 -4.5 -55t15.5 -42.5t32.5 -26t47.5 -5.5z" />
    <glyph glyph-name="nine" unicode="9" horiz-adv-x="579" 
d="M216 80q-39 6 -67 25t-43 47.5t-16 65t14 77.5q15 45 46 84.5t71.5 69t87.5 46.5t93 17t80.5 -17t54 -46.5t23 -69t-11.5 -84.5q-12 -33 -32 -63t-46 -56q-21 -23 -57 -59t-77.5 -77t-85 -83t-80.5 -75.5t-63 -55t-33 -22.5q-11 -3 -23 6t-17.5 26.5t-1 43t27.5 55.5
q19 23 61 61.5t95 83.5zM303 454q-29 -4 -57 -19.5t-52 -39.5t-42 -54.5t-27 -63.5q-8 -33 -1.5 -64.5t24 -55t43 -36.5t55.5 -8q36 32 67 65q26 29 50.5 64t32.5 68q9 33 6 61t-16 47.5t-34.5 29t-48.5 6.5z" />
    <glyph glyph-name="circumflex" unicode="&#x2c6;" horiz-adv-x="517" 
d="M665 599q-9 -14 -31 -26.5t-47 -20.5t-47.5 -10t-31.5 5q-9 6 -21 27t-24.5 44t-24 41t-19.5 18t-29.5 -17t-46 -36.5t-46.5 -33.5t-31 -7q-6 4 6 19.5t35 36t52 43.5t56.5 42.5t50 32t30.5 12.5t25.5 -10t38.5 -25.5t42 -34.5t37 -38t24 -35.5t2 -26.5z" />
    <glyph glyph-name="acircumflex" unicode="&#xe2;" horiz-adv-x="712" 
d="M790 186q13 0 10 -14q-1 -1 -13.5 -14t-34.5 -32.5t-51 -42t-62.5 -41.5t-68.5 -32t-69 -13q-36 0 -56.5 23.5t-30.5 52.5t-12.5 53.5t-2.5 27.5q-3 -3 -26.5 -27.5t-58.5 -53.5t-77.5 -52.5t-83.5 -23.5q-44 0 -70 17.5t-35 47.5t-1.5 69.5t30 83t60 88t89.5 85.5
q55 44 106.5 66t96.5 30q40 7 73 4.5t54 -9.5t29.5 -16.5t1.5 -16.5q-9 -8 -14.5 -7t-14.5 5.5t-25 9.5t-46 5q-28 0 -61 -12.5t-65.5 -34t-62 -50.5t-50.5 -61q-32 -48 -40.5 -84.5t-3 -62t21.5 -38.5t34 -13q33 0 62 20t54 49.5t46 64t39 64t33 49t28 19.5t17 -21.5
t5.5 -53t2.5 -69t7 -69t20 -53t41 -21.5q20 0 40 8.5t37 19.5q18 12 36 28l45 39q7 9 17 9zM733 599q-9 -14 -31 -26.5t-47 -20.5t-47.5 -10t-31.5 5q-9 6 -21 27t-24.5 44t-24 41t-19.5 18t-29.5 -17t-46 -36.5t-46.5 -33.5t-31 -7q-6 4 6 19.5t35 36t52 43.5t56.5 42.5
t50 32t30.5 12.5t25.5 -10t38.5 -25.5t42 -34.5t37 -38t24 -35.5t2 -26.5z" />
    <glyph glyph-name="ecircumflex" unicode="&#xea;" horiz-adv-x="522" 
d="M479 356q-15 -25 -43.5 -54.5t-63 -58.5t-70 -56t-64.5 -47q10 -32 31.5 -52t61.5 -20q29 0 68 12q33 11 80.5 34.5t107.5 71.5q10 9 16 10t8.5 -3t1 -10t-5.5 -10q-3 -3 -22.5 -17.5t-50.5 -34t-70 -41.5t-82 -40.5t-86 -30.5t-82 -12q-59 0 -93 24t-49 60t-13.5 79
t15.5 81q13 39 44 84t74 83.5t96 64t110 25.5q46 0 69.5 -13.5t30 -34.5t0 -46t-18.5 -48zM399 469q-34 0 -66 -30.5t-56 -75.5t-37 -97.5t-8 -97.5q28 18 61 41.5t64 49t56 51t36 47.5q16 31 17.5 52.5t-6.5 34.5t-24.5 19t-36.5 6zM640 599q-9 -14 -31 -26.5t-47 -20.5
t-47.5 -10t-31.5 5q-9 6 -21 27t-24.5 44t-24 41t-19.5 18t-29.5 -17t-46 -36.5t-46.5 -33.5t-31 -7q-6 4 6 19.5t35 36t52 43.5t56.5 42.5t50 32t30.5 12.5t25.5 -10t38.5 -25.5t42 -34.5t37 -38t24 -35.5t2 -26.5z" />
    <glyph glyph-name="ocircumflex" unicode="&#xf4;" horiz-adv-x="531" 
d="M388 486q48 0 83.5 -19.5t55.5 -52.5t22.5 -77.5t-15.5 -95.5t-52 -95.5t-77 -77.5t-92 -52.5t-97 -19.5t-83 19.5t-55 52.5t-22.5 77.5t15.5 95.5t52 95.5t77 77.5t91.5 52.5t96.5 19.5zM351 77q30 7 59 27.5t52.5 50t39 66t20.5 74.5q4 38 -4 69t-26 52t-43.5 29.5
t-55.5 1.5q-31 -7 -59.5 -27.5t-51.5 -49.5t-38.5 -65.5t-19.5 -74.5q-5 -38 3 -69.5t25 -52t42.5 -29.5t56.5 -2zM644 599q-9 -14 -31 -26.5t-47 -20.5t-47.5 -10t-31.5 5q-9 6 -21 27t-24.5 44t-24 41t-19.5 18t-29.5 -17t-46 -36.5t-46.5 -33.5t-31 -7q-6 4 6 19.5t35 36
t52 43.5t56.5 42.5t50 32t30.5 12.5t25.5 -10t38.5 -25.5t42 -34.5t37 -38t24 -35.5t2 -26.5z" />
    <glyph glyph-name="Ocircumflex" unicode="&#xd4;" horiz-adv-x="1089" 
d="M787 956q93 0 157.5 -47.5t96.5 -129t28.5 -191.5t-46.5 -235q-30 -83 -73 -160t-95.5 -144t-113 -121.5t-124 -94t-128 -61t-126.5 -21.5q-93 0 -158.5 47.5t-97.5 129t-28.5 191t47.5 234.5q29 83 72 160t96 144t113 122t124 94.5t129 61t127 21.5zM546 -105
q79 14 155.5 66t141 130t111 175t66.5 202q19 105 6.5 191.5t-51 145.5t-100 86.5t-139.5 13.5q-79 -14 -155.5 -66t-141 -130t-111.5 -175t-66 -202q-20 -104 -7 -190.5t51.5 -146t100 -87t139.5 -13.5zM1065 1024q-9 -14 -31 -26.5t-47 -20.5t-47.5 -10t-31.5 5
q-9 6 -21 27t-24.5 44t-24 41t-19.5 18t-29.5 -17t-46 -36.5t-46.5 -33.5t-31 -7q-6 4 6 19.5t35 36t52 43.5t56.5 42.5t50 32t30.5 12.5t25.5 -10t38.5 -25.5t42 -34.5t37 -38t24 -35.5t2 -26.5z" />
    <glyph glyph-name="Ecircumflex" unicode="&#xca;" horiz-adv-x="833" 
d="M803 686q7 18 19.5 34t28.5 27.5t34.5 18.5t36.5 7q20 0 35 -9q6 27 6.5 56t-14 52t-46.5 38t-90 15q-46 0 -90 -23.5t-82.5 -61.5t-70 -86.5t-51.5 -99.5t-27 -99t3.5 -85.5t40.5 -60t83 -20.5q24 0 33.5 -7t6.5 -15t-17 -15t-35 -7q-76 0 -141 -27.5t-117 -72
t-90.5 -101.5t-60 -116.5t-26 -116.5t10.5 -101.5t51.5 -72t95.5 -27.5q44 0 86 21.5t79.5 55.5t70 75t57.5 79.5t41.5 70t23.5 45.5q9 21 18.5 30.5t15.5 7.5t5.5 -15.5t-12.5 -38.5q-8 -16 -28.5 -53t-51.5 -82t-71 -93.5t-87 -88.5t-99 -65.5t-106 -25.5q-87 0 -150 33
t-95.5 89.5t-33.5 132t35 161.5t111.5 178t194.5 181q-31 74 -21.5 144.5t46 132.5t94 113.5t124 88.5t134.5 57.5t126 20.5q54 0 87.5 -14.5t52.5 -37t25 -51.5t4 -58.5t-9.5 -56t-15.5 -45.5q-1 -4 -1 -7.5t-3 -8.5q-6 -18 -18.5 -33.5t-28 -27.5t-34 -18.5t-36.5 -6.5
q-36 0 -52.5 25t-4.5 61zM1067 1082q-9 -14 -31 -26.5t-47 -20.5t-47.5 -10t-31.5 5q-9 6 -21 27t-24.5 44t-24 41t-19.5 18t-29.5 -17t-46 -36.5t-46.5 -33.5t-31 -7q-6 4 6 19.5t35 36t52 43.5t56.5 42.5t50 32t30.5 12.5t25.5 -10t38.5 -25.5t42 -34.5t37 -38t24 -35.5
t2 -26.5z" />
    <glyph glyph-name="Acircumflex" unicode="&#xc2;" horiz-adv-x="1181" 
d="M1084 29q18 -18 19.5 -35t-12.5 -29t-43.5 -15.5t-74.5 5.5q-32 6 -65.5 45.5t-65.5 104.5q-78 -2 -166 -2.5t-177 1t-173.5 4.5t-154.5 8q-75 -99 -146 -190.5t-129 -165t-98.5 -122t-54.5 -61.5q-20 -18 -35 -23t-22 0t-3.5 19.5t20.5 36.5q7 9 42 53.5t90 114t125 158
t147 185.5q-31 2 -54.5 5t-40.5 6q-75 13 -120 37.5t-71 50.5q-30 29 -43 63q81 -18 194 -25t239 -7q48 60 95.5 120t92.5 117t86.5 109.5t77.5 97.5q84 106 160 201q-2 19 0 37q2 15 6 31t15 27q11 10 34.5 18t49.5 10.5t49.5 -1.5t33.5 -17q5 -7 3 -41.5t-5 -89t-6 -124.5
t0 -148t13 -159.5t33 -158.5q52 2 90.5 3.5t57.5 -0.5q51 -3 72.5 -21.5t20 -42t-22 -48t-51.5 -40.5q-25 -11 -96 -17q25 -47 64 -85zM276 252q130 2 259.5 7.5t241.5 11.5q-18 60 -31.5 127t-21 138.5t-8 146t7.5 148.5q-13 -16 -55 -70t-103 -132.5t-136 -176
t-154 -200.5zM1092 1115q-9 -14 -31 -26.5t-47 -20.5t-47.5 -10t-31.5 5q-9 6 -21 27t-24.5 44t-24 41t-19.5 18t-29.5 -17t-46 -36.5t-46.5 -33.5t-31 -7q-6 4 6 19.5t35 36t52 43.5t56.5 42.5t50 32t30.5 12.5t25.5 -10t38.5 -25.5t42 -34.5t37 -38t24 -35.5t2 -26.5z" />
    <glyph glyph-name="dieresis" unicode="&#xa8;" horiz-adv-x="667" 
d="M362 646q5 15 15 28t23 23t27.5 16t29.5 6q29 1 43.5 -19.5t4.5 -49.5t-36.5 -50t-57.5 -22q-29 -1 -43 19t-6 49zM541 646q5 15 15 28t23 23t27.5 16t29.5 6q29 1 43.5 -19.5t4.5 -49.5t-36.5 -50t-57.5 -22q-29 -1 -43 19t-6 49z" />
    <glyph glyph-name="adieresis" unicode="&#xe4;" horiz-adv-x="712" 
d="M790 186q13 0 10 -14q-1 -1 -13.5 -14t-34.5 -32.5t-51 -42t-62.5 -41.5t-68.5 -32t-69 -13q-36 0 -56.5 23.5t-30.5 52.5t-12.5 53.5t-2.5 27.5q-3 -3 -26.5 -27.5t-58.5 -53.5t-77.5 -52.5t-83.5 -23.5q-44 0 -70 17.5t-35 47.5t-1.5 69.5t30 83t60 88t89.5 85.5
q55 44 106.5 66t96.5 30q40 7 73 4.5t54 -9.5t29.5 -16.5t1.5 -16.5q-9 -8 -14.5 -7t-14.5 5.5t-25 9.5t-46 5q-28 0 -61 -12.5t-65.5 -34t-62 -50.5t-50.5 -61q-32 -48 -40.5 -84.5t-3 -62t21.5 -38.5t34 -13q33 0 62 20t54 49.5t46 64t39 64t33 49t28 19.5t17 -21.5
t5.5 -53t2.5 -69t7 -69t20 -53t41 -21.5q20 0 40 8.5t37 19.5q18 12 36 28l45 39q7 9 17 9zM362 646q5 15 15 28t23 23t27.5 16t29.5 6q29 1 43.5 -19.5t4.5 -49.5t-36.5 -50t-57.5 -22q-29 -1 -43 19t-6 49zM541 646q5 15 15 28t23 23t27.5 16t29.5 6q29 1 43.5 -19.5
t4.5 -49.5t-36.5 -50t-57.5 -22q-29 -1 -43 19t-6 49z" />
    <glyph glyph-name="edieresis" unicode="&#xeb;" horiz-adv-x="522" 
d="M479 356q-15 -25 -43.5 -54.5t-63 -58.5t-70 -56t-64.5 -47q10 -32 31.5 -52t61.5 -20q29 0 68 12q33 11 80.5 34.5t107.5 71.5q10 9 16 10t8.5 -3t1 -10t-5.5 -10q-3 -3 -22.5 -17.5t-50.5 -34t-70 -41.5t-82 -40.5t-86 -30.5t-82 -12q-59 0 -93 24t-49 60t-13.5 79
t15.5 81q13 39 44 84t74 83.5t96 64t110 25.5q46 0 69.5 -13.5t30 -34.5t0 -46t-18.5 -48zM399 469q-34 0 -66 -30.5t-56 -75.5t-37 -97.5t-8 -97.5q28 18 61 41.5t64 49t56 51t36 47.5q16 31 17.5 52.5t-6.5 34.5t-24.5 19t-36.5 6zM268 646q5 15 15 28t23 23t27.5 16
t29.5 6q29 1 43.5 -19.5t4.5 -49.5t-36.5 -50t-57.5 -22q-29 -1 -43 19t-6 49zM447 646q5 15 15 28t23 23t27.5 16t29.5 6q29 1 43.5 -19.5t4.5 -49.5t-36.5 -50t-57.5 -22q-29 -1 -43 19t-6 49z" />
    <glyph glyph-name="Edieresis" unicode="&#xcb;" horiz-adv-x="833" 
d="M803 686q7 18 19.5 34t28.5 27.5t34.5 18.5t36.5 7q20 0 35 -9q6 27 6.5 56t-14 52t-46.5 38t-90 15q-46 0 -90 -23.5t-82.5 -61.5t-70 -86.5t-51.5 -99.5t-27 -99t3.5 -85.5t40.5 -60t83 -20.5q24 0 33.5 -7t6.5 -15t-17 -15t-35 -7q-76 0 -141 -27.5t-117 -72
t-90.5 -101.5t-60 -116.5t-26 -116.5t10.5 -101.5t51.5 -72t95.5 -27.5q44 0 86 21.5t79.5 55.5t70 75t57.5 79.5t41.5 70t23.5 45.5q9 21 18.5 30.5t15.5 7.5t5.5 -15.5t-12.5 -38.5q-8 -16 -28.5 -53t-51.5 -82t-71 -93.5t-87 -88.5t-99 -65.5t-106 -25.5q-87 0 -150 33
t-95.5 89.5t-33.5 132t35 161.5t111.5 178t194.5 181q-31 74 -21.5 144.5t46 132.5t94 113.5t124 88.5t134.5 57.5t126 20.5q54 0 87.5 -14.5t52.5 -37t25 -51.5t4 -58.5t-9.5 -56t-15.5 -45.5q-1 -4 -1 -7.5t-3 -8.5q-6 -18 -18.5 -33.5t-28 -27.5t-34 -18.5t-36.5 -6.5
q-36 0 -52.5 25t-4.5 61zM694 1098q5 15 15 28t23 23t27.5 16t29.5 6q29 1 43.5 -19.5t4.5 -49.5t-36.5 -50t-57.5 -22q-29 -1 -43 19t-6 49zM873 1098q5 15 15 28t23 23t27.5 16t29.5 6q29 1 43.5 -19.5t4.5 -49.5t-36.5 -50t-57.5 -22q-29 -1 -43 19t-6 49z" />
    <glyph glyph-name="Adieresis" unicode="&#xc4;" horiz-adv-x="1181" 
d="M1084 29q18 -18 19.5 -35t-12.5 -29t-43.5 -15.5t-74.5 5.5q-32 6 -65.5 45.5t-65.5 104.5q-78 -2 -166 -2.5t-177 1t-173.5 4.5t-154.5 8q-75 -99 -146 -190.5t-129 -165t-98.5 -122t-54.5 -61.5q-20 -18 -35 -23t-22 0t-3.5 19.5t20.5 36.5q7 9 42 53.5t90 114t125 158
t147 185.5q-31 2 -54.5 5t-40.5 6q-75 13 -120 37.5t-71 50.5q-30 29 -43 63q81 -18 194 -25t239 -7q48 60 95.5 120t92.5 117t86.5 109.5t77.5 97.5q84 106 160 201q-2 19 0 37q2 15 6 31t15 27q11 10 34.5 18t49.5 10.5t49.5 -1.5t33.5 -17q5 -7 3 -41.5t-5 -89t-6 -124.5
t0 -148t13 -159.5t33 -158.5q52 2 90.5 3.5t57.5 -0.5q51 -3 72.5 -21.5t20 -42t-22 -48t-51.5 -40.5q-25 -11 -96 -17q25 -47 64 -85zM276 252q130 2 259.5 7.5t241.5 11.5q-18 60 -31.5 127t-21 138.5t-8 146t7.5 148.5q-13 -16 -55 -70t-103 -132.5t-136 -176
t-154 -200.5zM728 1158q5 15 15 28t23 23t27.5 16t29.5 6q29 1 43.5 -19.5t4.5 -49.5t-36.5 -50t-57.5 -22q-29 -1 -43 19t-6 49zM907 1158q5 15 15 28t23 23t27.5 16t29.5 6q29 1 43.5 -19.5t4.5 -49.5t-36.5 -50t-57.5 -22q-29 -1 -43 19t-6 49z" />
    <glyph glyph-name="Idieresis" unicode="&#xcf;" horiz-adv-x="471" 
d="M11 -576q-25 24 -40 64q-13 34 -18.5 88.5t10.5 134.5q7 40 26.5 111t47 160.5t61.5 192t69.5 204.5t70.5 198t65.5 172.5t54.5 128t37 64.5q25 26 53.5 38t49.5 5t29.5 -34.5t-6.5 -79.5q-8 -26 -31.5 -87t-58 -146.5t-76 -189t-85 -215.5t-85.5 -226.5t-77.5 -221
t-61 -199.5t-35.5 -162zM354 1082q5 15 15 28t23 23t27.5 16t29.5 6q29 1 43.5 -19.5t4.5 -49.5t-36.5 -50t-57.5 -22q-29 -1 -43 19t-6 49zM533 1082q5 15 15 28t23 23t27.5 16t29.5 6q29 1 43.5 -19.5t4.5 -49.5t-36.5 -50t-57.5 -22q-29 -1 -43 19t-6 49z" />
    <glyph glyph-name="idieresis" unicode="&#xef;" horiz-adv-x="477" 
d="M555 186q13 0 10 -14q0 -1 -14 -14t-37.5 -32.5t-54 -42t-65 -41.5t-70.5 -32t-70 -13q-37 0 -56 14.5t-25.5 38.5t-3 55t12 62.5t20 62.5t21 55t14 38.5t0.5 14.5q-21 -25 -50 -57t-55 -60.5t-46 -49.5t-23 -24q-7 -7 -14 -8.5t-11.5 1t-4.5 7.5t8 12q59 55 109.5 115.5
t94.5 111.5t83.5 84.5t77.5 33.5q16 0 18 -18t-4.5 -48t-19.5 -67.5t-27 -77.5t-26 -77.5t-16.5 -67.5t0.5 -48t25 -18t44 8.5t45 19.5q25 12 49 28l44 39q7 9 17 9zM273 646q5 15 15 28t23 23t27.5 16t29.5 6q29 1 43.5 -19.5t4.5 -49.5t-36.5 -50t-57.5 -22q-29 -1 -43 19
t-6 49zM452 646q5 15 15 28t23 23t27.5 16t29.5 6q29 1 43.5 -19.5t4.5 -49.5t-36.5 -50t-57.5 -22q-29 -1 -43 19t-6 49z" />
    <glyph glyph-name="icircumflex" unicode="&#xee;" horiz-adv-x="477" 
d="M555 186q-10 0 -17 -9l-44 -39q-24 -16 -49 -28q-21 -11 -45 -19.5t-44 -8.5t-25 18t-0.5 48t16.5 67.5t26 77.5t27 77.5t19.5 67.5t4.5 48t-18 18q-38 0 -77.5 -33.5t-83.5 -84.5t-94.5 -111.5t-109.5 -115.5q-8 -7 -8 -12t4.5 -7.5t11.5 -1t14 8.5q3 3 23 24t46 49.5
t55 60.5t50 57q4 0 -0.5 -14.5t-14 -38.5t-21 -55t-20 -62.5t-12 -62.5t3 -55t25.5 -38.5t56 -14.5q34 0 70 13t70.5 32t65 41.5t54 42t37.5 32.5t14 14q3 14 -10 14zM667 599q-9 -14 -31 -26.5t-47 -20.5t-47.5 -10t-31.5 5q-9 6 -21 27t-24.5 44t-24 41t-19.5 18
t-29.5 -17t-46 -36.5t-46.5 -33.5t-31 -7q-6 4 6 19.5t35 36t52 43.5t56.5 42.5t50 32t30.5 12.5t25.5 -10t38.5 -25.5t42 -34.5t37 -38t24 -35.5t2 -26.5z" />
    <glyph glyph-name="ucircumflex" unicode="&#xfb;" horiz-adv-x="690" 
d="M770 186q12 0 9 -14q0 -1 -13 -14t-35 -32.5t-51 -42t-62 -41.5t-68 -32t-69 -13q-37 0 -55.5 18t-25 45t-4.5 58t5.5 58t6 45t-3.5 18q-40 -68 -81 -121q-18 -23 -38 -44.5t-41 -38.5t-43 -27.5t-43 -10.5q-35 0 -56 18t-31.5 48.5t-11 70.5t7 83.5t20.5 87.5t30 83
q16 36 41 63t47 41t36 13t7 -19q-11 -32 -21 -71t-16.5 -78.5t-9 -76.5t0 -65.5t11.5 -46t26 -17.5q32 0 64 27.5t62 69t57.5 90t51 90t42 69t31.5 27.5q16 0 22.5 -18t6.5 -48t-4.5 -67.5t-9 -77.5t-8 -77.5t-1.5 -67.5t11.5 -48t29.5 -18t40.5 8.5t37.5 19.5q19 12 36 28
l44 39q7 9 18 9zM648 599q-9 -14 -31 -26.5t-47 -20.5t-47.5 -10t-31.5 5q-9 6 -21 27t-24.5 44t-24 41t-19.5 18t-29.5 -17t-46 -36.5t-46.5 -33.5t-31 -7q-6 4 6 19.5t35 36t52 43.5t56.5 42.5t50 32t30.5 12.5t25.5 -10t38.5 -25.5t42 -34.5t37 -38t24 -35.5t2 -26.5z
" />
    <glyph glyph-name="Ucircumflex" unicode="&#xdb;" horiz-adv-x="900" 
d="M499 911q-4 -12 -20.5 -52t-40 -99.5t-52 -134t-56 -156.5t-51.5 -167t-40 -164.5t-21 -149.5t6 -122t40.5 -82.5t83.5 -30.5t106.5 32t102.5 87.5t97.5 129t90.5 156.5t81.5 171.5t71.5 172.5t59.5 160t45.5 134t30 94t13 41q4 12 9.5 17t10 4t6.5 -6.5t-1 -14.5
q-1 -3 -12.5 -42.5t-31.5 -104t-49 -150t-65.5 -180.5t-80.5 -195t-94 -194t-105.5 -178t-116.5 -146.5t-126 -99t-133 -36.5q-85 0 -134 38t-70.5 103t-19 152t20 184t47 199.5t61.5 199t63.5 181.5t53.5 147q5 15 27.5 39.5t51.5 48.5t60 44t53.5 26.5t32 -5.5t-4.5 -51z
M1034 1076q-9 -14 -31 -26.5t-47 -20.5t-47.5 -10t-31.5 5q-9 6 -21 27t-24.5 44t-24 41t-19.5 18t-29.5 -17t-46 -36.5t-46.5 -33.5t-31 -7q-6 4 6 19.5t35 36t52 43.5t56.5 42.5t50 32t30.5 12.5t25.5 -10t38.5 -25.5t42 -34.5t37 -38t24 -35.5t2 -26.5z" />
    <glyph glyph-name="udieresis" unicode="&#xfc;" horiz-adv-x="690" 
d="M770 186q12 0 9 -14q0 -1 -13 -14t-35 -32.5t-51 -42t-62 -41.5t-68 -32t-69 -13q-37 0 -55.5 18t-25 45t-4.5 58t5.5 58t6 45t-3.5 18q-40 -68 -81 -121q-18 -23 -38 -44.5t-41 -38.5t-43 -27.5t-43 -10.5q-35 0 -56 18t-31.5 48.5t-11 70.5t7 83.5t20.5 87.5t30 83
q16 36 41 63t47 41t36 13t7 -19q-11 -32 -21 -71t-16.5 -78.5t-9 -76.5t0 -65.5t11.5 -46t26 -17.5q32 0 64 27.5t62 69t57.5 90t51 90t42 69t31.5 27.5q16 0 22.5 -18t6.5 -48t-4.5 -67.5t-9 -77.5t-8 -77.5t-1.5 -67.5t11.5 -48t29.5 -18t40.5 8.5t37.5 19.5q19 12 36 28
l44 39q7 9 18 9zM276 646q5 15 15 28t23 23t27.5 16t29.5 6q29 1 43.5 -19.5t4.5 -49.5t-36.5 -50t-57.5 -22q-29 -1 -43 19t-6 49zM455 646q5 15 15 28t23 23t27.5 16t29.5 6q29 1 43.5 -19.5t4.5 -49.5t-36.5 -50t-57.5 -22q-29 -1 -43 19t-6 49z" />
    <glyph glyph-name="Udieresis" unicode="&#xdc;" horiz-adv-x="900" 
d="M499 911q-4 -12 -20.5 -52t-40 -99.5t-52 -134t-56 -156.5t-51.5 -167t-40 -164.5t-21 -149.5t6 -122t40.5 -82.5t83.5 -30.5t106.5 32t102.5 87.5t97.5 129t90.5 156.5t81.5 171.5t71.5 172.5t59.5 160t45.5 134t30 94t13 41q4 12 9.5 17t10 4t6.5 -6.5t-1 -14.5
q-1 -3 -12.5 -42.5t-31.5 -104t-49 -150t-65.5 -180.5t-80.5 -195t-94 -194t-105.5 -178t-116.5 -146.5t-126 -99t-133 -36.5q-85 0 -134 38t-70.5 103t-19 152t20 184t47 199.5t61.5 199t63.5 181.5t53.5 147q5 15 27.5 39.5t51.5 48.5t60 44t53.5 26.5t32 -5.5t-4.5 -51z
M645 1076q5 15 15 28t23 23t27.5 16t29.5 6q29 1 43.5 -19.5t4.5 -49.5t-36.5 -50t-57.5 -22q-29 -1 -43 19t-6 49zM824 1076q5 15 15 28t23 23t27.5 16t29.5 6q29 1 43.5 -19.5t4.5 -49.5t-36.5 -50t-57.5 -22q-29 -1 -43 19t-6 49z" />
    <glyph glyph-name="thorn" unicode="&#xfe;" horiz-adv-x="662" 
d="M578 468q56 0 87 -20.5t41.5 -53t2 -73.5t-31.5 -82t-59 -78t-80 -62q-53 -30 -108 -45t-104.5 -21t-89.5 -5.5t-63 2.5q-8 -15 -17 -41t-20 -55t-22.5 -57t-23.5 -47q-20 -31 -39 -50t-37 -28.5t-33 -11t-27 3.5q-8 3 -4 40.5t19 98t40 141t58.5 169.5t74 183
t87.5 182.5t99 167.5t107 137.5t113 93t117 34.5q42 0 43.5 -32.5t-25 -85.5t-74 -120t-103.5 -137t-113.5 -136.5t-103.5 -117.5q-14 -40 -25.5 -77t-21.5 -69q27 40 63.5 84.5t79.5 82t91.5 61.5t101.5 24zM371 90q29 15 57.5 42t52.5 58.5t41 65t23 63t-1.5 50.5
t-33.5 28q-21 6 -46.5 -4t-52.5 -30t-54.5 -46.5t-52.5 -54t-45.5 -53.5t-33.5 -44q-10 -30 -18.5 -53.5t-15.5 -38.5q12 -5 30.5 -8.5t42 -3.5t50.5 6.5t57 22.5zM651 951q-31 0 -61.5 -21.5t-60 -58.5t-58.5 -87t-55.5 -107.5t-51.5 -120t-48 -123.5q48 55 98 115
t94 117.5t80 109t57 91t24 62.5t-18 23z" />
    <glyph glyph-name="germandbls" unicode="&#xdf;" horiz-adv-x="667" 
d="M3 -120q-6 4 -4 41.5t13.5 96t32.5 132.5t53.5 150.5t76 150t99.5 131.5t125 94.5t152 38.5q110 3 172.5 -22.5t85 -70t10 -102t-51 -117t-98.5 -117t-132 -101.5q43 -23 57 -60.5t2.5 -79.5t-46 -82.5t-88.5 -68.5t-125 -38.5t-155 7.5q-14 6 -17 13t2 12t17 7.5t27 1.5
q16 -2 49.5 1.5t70.5 17t70.5 40.5t50.5 74q11 31 9.5 51t-11 31.5t-24.5 16t-30.5 5.5t-30.5 0t-23 -1q-13 0 -19.5 4t-6 9t8.5 10t23 7q8 1 38.5 23t72 57.5t87.5 80t83.5 91.5t61.5 91.5t21 79t-38.5 56t-116.5 21.5q-62 0 -107.5 -36t-79.5 -92.5t-58.5 -126.5t-44 -137
t-36 -123.5t-35.5 -87.5q-28 -47 -56.5 -83.5t-54 -60.5t-47 -34t-35.5 -2z" />
    <glyph glyph-name="Thorn" unicode="&#xde;" horiz-adv-x="662" 
d="M618 579q56 0 87 -20.5t41.5 -53t2 -73.5t-31.5 -82t-59 -78t-80 -62q-53 -30 -108 -45t-105 -21t-90.5 -5.5t-63.5 2.5q-5 -10 -15.5 -38.5t-24 -66.5t-28.5 -80.5t-29.5 -81.5t-27 -69t-20.5 -43q-20 -31 -39 -50t-37 -28.5t-33 -11t-27 3.5q-8 3 -2.5 45.5t24 112
t47.5 161t67 193.5t83.5 209.5t97 209t107.5 191.5t114.5 157.5t118 107t118.5 39.5q42 0 43.5 -32.5t-25 -85.5t-74 -120t-103.5 -137t-113.5 -136.5t-103.5 -117.5q-14 -40 -26 -77t-23 -69q27 40 63.5 84.5t80 82t92.5 61.5t102 24zM411 201q29 15 57.5 42t52 58.5
t40.5 65t22.5 63t-2 50.5t-33.5 28q-21 6 -46 -4t-52.5 -30t-54.5 -46.5t-52 -54t-45.5 -53.5t-34.5 -44q-10 -30 -18.5 -53.5t-13.5 -38.5q12 -5 30.5 -8.5t41.5 -3.5t50.5 6.5t57.5 22.5zM691 1062q-31 0 -61.5 -21.5t-60 -58.5t-58.5 -87t-56 -107.5t-52.5 -120
t-48.5 -123.5q48 55 98 115t94.5 117.5t80.5 109t57.5 91t24.5 62.5t-18 23z" />
    <glyph glyph-name="odieresis" unicode="&#xf6;" horiz-adv-x="531" 
d="M388 486q48 0 83.5 -19.5t55.5 -52.5t22.5 -77.5t-15.5 -95.5t-52 -95.5t-77 -77.5t-92 -52.5t-97 -19.5t-83 19.5t-55 52.5t-22.5 77.5t15.5 95.5t52 95.5t77 77.5t91.5 52.5t96.5 19.5zM351 77q30 7 59 27.5t52.5 50t39 66t20.5 74.5q4 38 -4 69t-26 52t-43.5 29.5
t-55.5 1.5q-31 -7 -59.5 -27.5t-51.5 -49.5t-38.5 -65.5t-19.5 -74.5q-5 -38 3 -69.5t25 -52t42.5 -29.5t56.5 -2zM298 646q5 15 15 28t23 23t27.5 16t29.5 6q29 1 43.5 -19.5t4.5 -49.5t-36.5 -50t-57.5 -22q-29 -1 -43 19t-6 49zM477 646q5 15 15 28t23 23t27.5 16t29.5 6
q29 1 43.5 -19.5t4.5 -49.5t-36.5 -50t-57.5 -22q-29 -1 -43 19t-6 49z" />
    <glyph glyph-name="Odieresis" unicode="&#xd6;" horiz-adv-x="1089" 
d="M787 956q93 0 157.5 -47.5t96.5 -129t28.5 -191.5t-46.5 -235q-30 -83 -73 -160t-95.5 -144t-113 -121.5t-124 -94t-128 -61t-126.5 -21.5q-93 0 -158.5 47.5t-97.5 129t-28.5 191t47.5 234.5q29 83 72 160t96 144t113 122t124 94.5t129 61t127 21.5zM546 -105
q79 14 155.5 66t141 130t111 175t66.5 202q19 105 6.5 191.5t-51 145.5t-100 86.5t-139.5 13.5q-79 -14 -155.5 -66t-141 -130t-111.5 -175t-66 -202q-20 -104 -7 -190.5t51.5 -146t100 -87t139.5 -13.5zM677 1085q5 15 15 28t23 23t27.5 16t29.5 6q29 1 43.5 -19.5
t4.5 -49.5t-36.5 -50t-57.5 -22q-29 -1 -43 19t-6 49zM856 1085q5 15 15 28t23 23t27.5 16t29.5 6q29 1 43.5 -19.5t4.5 -49.5t-36.5 -50t-57.5 -22q-29 -1 -43 19t-6 49z" />
    <glyph glyph-name="Icircumflex" unicode="&#xce;" horiz-adv-x="471" 
d="M11 -576q-25 24 -40 64q-13 34 -18.5 88.5t10.5 134.5q7 40 26.5 111t47 160.5t61.5 192t69.5 204.5t70.5 198t65.5 172.5t54.5 128t37 64.5q25 26 53.5 38t49.5 5t29.5 -34.5t-6.5 -79.5q-8 -26 -31.5 -87t-58 -146.5t-76 -189t-85 -215.5t-85.5 -226.5t-77.5 -221
t-61 -199.5t-35.5 -162zM754 1064q-9 -14 -31 -26.5t-47 -20.5t-47.5 -10t-31.5 5q-9 6 -21 27t-24.5 44t-24 41t-19.5 18t-29.5 -17t-46 -36.5t-46.5 -33.5t-31 -7q-6 4 6 19.5t35 36t52 43.5t56.5 42.5t50 32t30.5 12.5t25.5 -10t38.5 -25.5t42 -34.5t37 -38t24 -35.5
t2 -26.5z" />
    <glyph glyph-name="tilde" unicode="&#x2dc;" horiz-adv-x="667" 
d="M483 615q-41 19 -77 24t-65 -15q-15 -10 -28.5 -13.5t-18 -0.5t3.5 12t35 25q58 34 101.5 43.5t76 5t57 -18t43.5 -25.5t35 -17.5t33 6.5q7 6 18.5 8.5t17.5 0.5t2 -9t-26 -20q-44 -29 -74.5 -37t-54 -4.5t-42 14.5t-37.5 21z" />
    <glyph glyph-name="Ntilde" unicode="&#xd1;" horiz-adv-x="929" 
d="M832 882q42 0 64.5 -32t29 -87t-0.5 -129t-23 -157t-39.5 -172t-49.5 -173.5t-52.5 -161t-49.5 -136t-40.5 -97.5t-24.5 -45q-17 -18 -39 -16.5t-39.5 22.5t-25.5 62t2 102q100 262 161 469q26 88 46 172t26.5 150t-3 106.5t-43.5 40.5q-69 0 -130.5 -49t-116 -129
t-102 -182.5t-88 -210t-74.5 -211t-61 -185t-47 -133t-33 -54.5q-27 -6 -37 6t-15 32.5t-10.5 45t-21.5 42.5q-6 7 2 42t24.5 89.5t39 124.5t46 146.5t45 156t36 153.5t19 138t-6 110.5t-39 70.5t-79.5 17q-23 -3 -47 -15t-46 -27t-40 -30.5t-29 -25.5q-23 -20 -28 -12.5
t13 25.5q12 12 36.5 35.5t54.5 47t63.5 42t65.5 22.5q60 7 103.5 -3.5t74.5 -32.5t50 -52.5t30 -63.5q26 -77 18 -182q46 93 110 167q27 31 61 61t74 53.5t86.5 38t99.5 14.5zM649 962q-41 19 -77 24t-65 -15q-15 -10 -28.5 -13.5t-18 -0.5t3.5 12t35 25q58 34 101.5 43.5
t76 5t57 -18t43.5 -25.5t35 -17.5t33 6.5q7 6 18.5 8.5t17.5 0.5t2 -9t-26 -20q-44 -29 -74.5 -37t-54 -4.5t-42 14.5t-37.5 21z" />
    <glyph glyph-name="ntilde" unicode="&#xf1;" horiz-adv-x="720" 
d="M276 482q-20 0 -34 -14t-22 -37t-10.5 -52.5t0.5 -61.5q27 31 49.5 61t34.5 53t9 37t-27 14zM800 186q13 0 10 -14q-1 -1 -13.5 -14t-34.5 -32.5t-51 -42t-62.5 -41.5t-68.5 -32t-69 -13q-37 0 -55.5 22t-24.5 54.5t-3.5 71t6.5 71t7 54.5t-3 22q-9 0 -26.5 -22
t-41.5 -54.5t-52 -71t-58.5 -71t-61 -54.5t-58.5 -22q-27 0 -45 13t-28 35t-13.5 49.5t-3.5 56.5q1 68 20 155q14 55 41 99q12 19 27.5 37t36 32t46.5 22.5t58 8.5q38 0 44.5 -19.5t-7.5 -51t-43.5 -70t-63.5 -77.5q4 -30 10 -57.5t14 -48.5t16.5 -34t16.5 -13
q9 0 30.5 27.5t50 68.5t61 89t64 89t59.5 68.5t46 27.5q16 0 22.5 -18t6.5 -48t-4 -67.5t-9 -77.5t-8 -77.5t-1 -67.5t11.5 -48t29.5 -18t40 8.5t37 19.5q18 12 36 28l45 39q7 9 17 9zM508 615q-41 19 -77 24t-65 -15q-15 -10 -28.5 -13.5t-18 -0.5t3.5 12t35 25
q58 34 101.5 43.5t76 5t57 -18t43.5 -25.5t35 -17.5t33 6.5q7 6 18.5 8.5t17.5 0.5t2 -9t-26 -20q-44 -29 -74.5 -37t-54 -4.5t-42 14.5t-37.5 21z" />
    <glyph glyph-name="atilde" unicode="&#xe3;" horiz-adv-x="712" 
d="M790 186q13 0 10 -14q-1 -1 -13.5 -14t-34.5 -32.5t-51 -42t-62.5 -41.5t-68.5 -32t-69 -13q-36 0 -56.5 23.5t-30.5 52.5t-12.5 53.5t-2.5 27.5q-3 -3 -26.5 -27.5t-58.5 -53.5t-77.5 -52.5t-83.5 -23.5q-44 0 -70 17.5t-35 47.5t-1.5 69.5t30 83t60 88t89.5 85.5
q55 44 106.5 66t96.5 30q40 7 73 4.5t54 -9.5t29.5 -16.5t1.5 -16.5q-9 -8 -14.5 -7t-14.5 5.5t-25 9.5t-46 5q-28 0 -61 -12.5t-65.5 -34t-62 -50.5t-50.5 -61q-32 -48 -40.5 -84.5t-3 -62t21.5 -38.5t34 -13q33 0 62 20t54 49.5t46 64t39 64t33 49t28 19.5t17 -21.5
t5.5 -53t2.5 -69t7 -69t20 -53t41 -21.5q20 0 40 8.5t37 19.5q18 12 36 28l45 39q7 9 17 9zM504 615q-41 19 -77 24t-65 -15q-15 -10 -28.5 -13.5t-18 -0.5t3.5 12t35 25q58 34 101.5 43.5t76 5t57 -18t43.5 -25.5t35 -17.5t33 6.5q7 6 18.5 8.5t17.5 0.5t2 -9t-26 -20
q-44 -29 -74.5 -37t-54 -4.5t-42 14.5t-37.5 21z" />
    <glyph glyph-name="Atilde" unicode="&#xc3;" horiz-adv-x="1181" 
d="M1084 29q18 -18 19.5 -35t-12.5 -29t-43.5 -15.5t-74.5 5.5q-32 6 -65.5 45.5t-65.5 104.5q-78 -2 -166 -2.5t-177 1t-173.5 4.5t-154.5 8q-75 -99 -146 -190.5t-129 -165t-98.5 -122t-54.5 -61.5q-20 -18 -35 -23t-22 0t-3.5 19.5t20.5 36.5q7 9 42 53.5t90 114t125 158
t147 185.5q-31 2 -54.5 5t-40.5 6q-75 13 -120 37.5t-71 50.5q-30 29 -43 63q81 -18 194 -25t239 -7q48 60 95.5 120t92.5 117t86.5 109.5t77.5 97.5q84 106 160 201q-2 19 0 37q2 15 6 31t15 27q11 10 34.5 18t49.5 10.5t49.5 -1.5t33.5 -17q5 -7 3 -41.5t-5 -89t-6 -124.5
t0 -148t13 -159.5t33 -158.5q52 2 90.5 3.5t57.5 -0.5q51 -3 72.5 -21.5t20 -42t-22 -48t-51.5 -40.5q-25 -11 -96 -17q25 -47 64 -85zM276 252q130 2 259.5 7.5t241.5 11.5q-18 60 -31.5 127t-21 138.5t-8 146t7.5 148.5q-13 -16 -55 -70t-103 -132.5t-136 -176
t-154 -200.5zM855 1120q-41 19 -77 24t-65 -15q-15 -10 -28.5 -13.5t-18 -0.5t3.5 12t35 25q58 34 101.5 43.5t76 5t57 -18t43.5 -25.5t35 -17.5t33 6.5q7 6 18.5 8.5t17.5 0.5t2 -9t-26 -20q-44 -29 -74.5 -37t-54 -4.5t-42 14.5t-37.5 21z" />
    <glyph glyph-name="ae" unicode="&#xe6;" horiz-adv-x="848" 
d="M392 155q-40 -45 -81 -79q-36 -30 -79.5 -54.5t-85.5 -24.5q-44 0 -70 17.5t-35 47.5t-1.5 69.5t30 83t60 88t89.5 85.5q55 44 106.5 66t96.5 30q40 7 66.5 7.5t40.5 -3.5t16 -11t-5 -14q-9 -8 -16.5 -10t-14.5 -1t-13.5 3.5t-15.5 3.5q-27 2 -60 -10t-66 -34.5
t-62.5 -52t-50.5 -61.5q-32 -48 -40.5 -84.5t-3 -62t21.5 -38.5t34 -13q33 0 62 20t54 49.5t46 64t39 64t33 49t28 19.5zM802 356q-15 -25 -43.5 -54.5t-63 -58.5t-70 -56t-64.5 -47q10 -32 31.5 -52t61.5 -20q29 0 68 12q33 11 80.5 34.5t107.5 71.5q10 9 16 10t8.5 -3
t1 -10t-5.5 -10q-3 -3 -22.5 -17.5t-50.5 -34t-70 -41.5t-82 -40.5t-86 -30.5t-82 -12q-59 0 -93 24t-49 60t-13.5 79t15.5 81q13 39 44 84t74 83.5t96 64t110 25.5q46 0 69.5 -13.5t30 -34.5t0 -46t-18.5 -48zM722 469q-34 0 -66 -30.5t-56 -75.5t-37 -97.5t-8 -97.5
q28 18 61 41.5t64 49t56 51t36 47.5q16 31 17.5 52.5t-6.5 34.5t-24.5 19t-36.5 6z" />
    <glyph glyph-name="periodcentered" unicode="&#xb7;" horiz-adv-x="210" 
d="M171 325q5 15 15 28t23 23t27.5 16t29.5 6q29 1 42.5 -19.5t5.5 -49.5q-10 -29 -37.5 -50t-56.5 -22t-44 19t-5 49z" />
    <glyph glyph-name="periodcentered" unicode="&#x2219;" horiz-adv-x="210" 
d="M171 325q5 15 15 28t23 23t27.5 16t29.5 6q29 1 42.5 -19.5t5.5 -49.5q-10 -29 -37.5 -50t-56.5 -22t-44 19t-5 49z" />
    <glyph glyph-name="quotedbl" unicode="&#x22;" horiz-adv-x="255" 
d="M209 634q7 14 19 26t26 20t29 11.5t29 1.5q29 -5 39 -30q17 16 38.5 24.5t42.5 5.5q27 -4 37.5 -27.5t-2.5 -52.5q-10 -24 -27 -47.5t-35 -43t-35 -34t-27 -22.5q-11 -8 -20 -8.5t-13 4.5t-1.5 14t16.5 20q16 12 19 29.5t4 32.5q-11 6 -21 17q-12 -19 -26.5 -36t-29 -31
t-27.5 -25t-21 -17q-11 -8 -20 -8.5t-13 4.5t-1.5 14t16.5 20q16 12 19 29.5t4 32.5q-20 8 -26 29t7 47z" />
    <glyph glyph-name="quotedblleft" unicode="&#x201c;" horiz-adv-x="255" 
d="M429 508q-8 -14 -19.5 -26t-25 -20t-28 -11.5t-28.5 -1.5q-31 4 -41 30q-17 -16 -38 -24.5t-41 -5.5q-27 4 -38.5 27.5t3.5 52.5q9 24 25.5 47t35 42.5t35.5 34.5t28 23q10 8 19.5 8.5t13.5 -4.5t0.5 -14t-17.5 -20q-14 -12 -18 -29.5t-5 -32.5q15 -6 21 -17q12 19 27 36
t30 31t28 25t21 17q10 8 19.5 8.5t13.5 -4.5t0.5 -14t-17.5 -20q-14 -12 -18 -29.5t-5 -32.5q22 -8 27 -29t-8 -47z" />
    <glyph glyph-name="quotedblright" unicode="&#x201d;" horiz-adv-x="255" 
d="M209 634q7 14 19 26t26 20t29 11.5t29 1.5q29 -5 39 -30q17 16 38.5 24.5t42.5 5.5q27 -4 37.5 -27.5t-2.5 -52.5q-10 -24 -27 -47.5t-35 -43t-35 -34t-27 -22.5q-11 -8 -20 -8.5t-13 4.5t-1.5 14t16.5 20q16 12 19 29.5t4 32.5q-11 6 -21 17q-12 -19 -26.5 -36t-29 -31
t-27.5 -25t-21 -17q-11 -8 -20 -8.5t-13 4.5t-1.5 14t16.5 20q16 12 19 29.5t4 32.5q-20 8 -26 29t7 47z" />
    <glyph glyph-name="quoteright" unicode="&#x2019;" horiz-adv-x="162" 
d="M223 634q7 14 19 26t26 20t29 11.5t29 1.5q27 -4 37.5 -27.5t-2.5 -52.5q-10 -24 -27 -47.5t-35 -43t-35 -34t-27 -22.5q-11 -8 -20 -8.5t-13 4.5t-1.5 14t16.5 20q16 12 19 29.5t4 32.5q-20 8 -26 29t7 47z" />
    <glyph glyph-name="quoteleft" unicode="&#x2018;" horiz-adv-x="162" 
d="M323 508q-8 -14 -19.5 -26t-25 -20t-28 -11.5t-28.5 -1.5q-27 4 -38.5 27.5t3.5 52.5q9 24 25.5 47t35 42.5t35.5 34.5t28 23q10 8 19.5 8.5t13.5 -4.5t0.5 -14t-17.5 -20q-14 -12 -18 -29.5t-5 -32.5q22 -8 27 -29t-8 -47z" />
    <glyph glyph-name="quotedblbase" unicode="&#x201e;" horiz-adv-x="255" 
d="M27 118q7 14 19 26t26 20t29 11.5t29 1.5q29 -5 39 -30q17 16 38.5 24.5t42.5 5.5q27 -4 37.5 -27.5t-2.5 -52.5q-10 -24 -27 -47.5t-35 -43t-35 -34t-27 -22.5q-11 -8 -20 -8.5t-13 4.5t-1.5 14t16.5 20q16 12 19 29.5t4 32.5q-11 6 -21 17q-12 -19 -26.5 -36t-29 -31
t-27.5 -25t-21 -17q-11 -8 -19.5 -8.5t-12.5 4.5t-1.5 14t15.5 20q16 12 19 29.5t4 32.5q-20 8 -25.5 29t6.5 47z" />
    <glyph glyph-name="quotesinglbase" unicode="&#x201a;" horiz-adv-x="218" 
d="M113 132q7 14 18.5 26t25 20t28.5 11.5t29 1.5q27 -4 38.5 -27.5t-3.5 -52.5q-9 -24 -25.5 -47.5t-35 -43t-36 -34t-27.5 -22.5q-11 -8 -20 -8.5t-13 4.5t-1.5 14t16.5 20q16 12 20 29.5t3 32.5q-20 8 -25 29t8 47z" />
    <glyph glyph-name="ellipsis" unicode="&#x2026;" horiz-adv-x="630" 
d="M113 161q5 15 15 28t23 23t27.5 16t29.5 6q29 1 42.5 -19.5t5.5 -49.5q-10 -29 -37.5 -50t-56.5 -22t-44 19t-5 49zM323 161q5 15 15 28t23 23t27.5 16t29.5 6q29 1 42.5 -19.5t5.5 -49.5q-10 -29 -37.5 -50t-56.5 -22t-44 19t-5 49zM533 161q5 15 15 28t23 23t27.5 16
t29.5 6q29 1 42.5 -19.5t5.5 -49.5q-10 -29 -37.5 -50t-56.5 -22t-44 19t-5 49z" />
    <glyph glyph-name="OE" unicode="&#x152;" horiz-adv-x="1376" 
d="M546 -105q38 7 73.5 22t72.5 38l-34 -94q-73 -52 -148 -81t-147 -29q-93 0 -158.5 47.5t-97.5 129t-28.5 191t47.5 234.5q29 83 72 160t96 144t113 122t124 94.5t129 61t127 21.5q88 0 150.5 -43t96.5 -117.5t36 -175.5t-31 -217h-34q4 16 7.5 32t7.5 33
q19 105 6.5 191.5t-51 145.5t-100 86.5t-139.5 13.5q-79 -14 -155.5 -66t-141 -130t-111.5 -175t-66 -202q-20 -104 -7 -190.5t51.5 -146t100 -87t139.5 -13.5zM1387 686q7 18 19.5 34t28.5 27.5t34.5 18.5t36.5 7q20 0 35 -9q6 27 6.5 56t-14 52t-46.5 38t-90 15
q-46 0 -90 -23.5t-82.5 -61.5t-70 -86.5t-51.5 -99.5t-27 -99t3.5 -85.5t40.5 -60t83 -20.5q24 0 33.5 -7t6.5 -15t-17 -15t-35 -7q-76 0 -141 -27.5t-117 -72t-90.5 -101.5t-60 -116.5t-26 -116.5t10.5 -101.5t51.5 -72t95.5 -27.5q44 0 86 21.5t79.5 55.5t70 75t57.5 79.5
t41.5 70t23.5 45.5q9 21 18.5 30.5t15.5 7.5t5.5 -15.5t-12.5 -38.5q-8 -16 -28.5 -53t-51.5 -82t-71 -93.5t-87 -88.5t-99 -65.5t-106 -25.5q-87 0 -150 33t-95.5 89.5t-33.5 132t35 161.5t111.5 178t194.5 181q-31 74 -21.5 144.5t46 132.5t94 113.5t124 88.5t134.5 57.5
t126 20.5q54 0 87.5 -14.5t52.5 -37t25 -51.5t4 -58.5t-9.5 -56t-15.5 -45.5q-1 -4 -1 -7.5t-3 -8.5q-6 -18 -18.5 -33.5t-28 -27.5t-34 -18.5t-36.5 -6.5q-36 0 -52.5 25t-4.5 61z" />
    <glyph glyph-name="oe" unicode="&#x153;" horiz-adv-x="863" 
d="M388 486q48 0 83.5 -19.5t55.5 -52.5t22.5 -77.5t-15.5 -95.5t-52 -95.5t-77 -77.5t-92 -52.5t-97 -19.5t-83 19.5t-55 52.5t-22.5 77.5t15.5 95.5t52 95.5t77 77.5t91.5 52.5t96.5 19.5zM351 77q30 7 59 27.5t52.5 50t39 66t20.5 74.5q4 38 -4 69t-26 52t-43.5 29.5
t-55.5 1.5q-31 -7 -59.5 -27.5t-51.5 -49.5t-38.5 -65.5t-19.5 -74.5q-5 -38 3 -69.5t25 -52t42.5 -29.5t56.5 -2zM821 356q-15 -25 -43.5 -54.5t-63 -58.5t-70 -56t-64.5 -47q10 -32 31.5 -52t61.5 -20q29 0 68 12q33 11 80.5 34.5t107.5 71.5q10 9 16 10t8.5 -3t1 -10
t-5.5 -10q-3 -3 -22.5 -17.5t-50.5 -34t-70 -41.5t-82 -40.5t-86 -30.5t-82 -12q-59 0 -93 24t-49 60t-13.5 79t15.5 81q13 39 44 84t74 83.5t96 64t110 25.5q46 0 69.5 -13.5t30 -34.5t0 -46t-18.5 -48zM741 469q-34 0 -66 -30.5t-56 -75.5t-37 -97.5t-8 -97.5
q28 18 61 41.5t64 49t56 51t36 47.5q16 31 17.5 52.5t-6.5 34.5t-24.5 19t-36.5 6z" />
    <glyph glyph-name="AE" unicode="&#xc6;" horiz-adv-x="1368" 
d="M611 105q-53 -2 -83.5 -2.5t-49 0t-30 1.5t-27.5 2.5t-41 4t-69 5.5l-446 -476q-30 -18 -48.5 -23t-22 0t8.5 19.5t43 36.5l404 448q-15 1 -39 2.5t-48.5 3t-45.5 2.5t-28 3q-66 13 -95.5 37.5t-38.5 50.5q-11 29 -3 63q34 -9 79.5 -15t98.5 -10t112.5 -5.5t122.5 -1.5
l629 645q10 19 23 37q11 15 26 31t33 27q12 7 37.5 8t56.5 -2t63 -8.5t55.5 -11.5t35 -11t1.5 -7q-55 -11 -119 -57t-121.5 -125t-102 -187.5t-60.5 -243.5zM429 252q43 0 74 1t55 2t44 2t42.5 3t50 3.5t66.5 3.5q47 46 68 78.5t26 58t0 48t-9.5 48t-4 57t17 76t54 104.5
t106.5 142zM1322 686q7 18 19.5 34t28.5 27.5t34.5 18.5t36.5 7q20 0 35 -9q6 27 6.5 56t-14 52t-46.5 38t-90 15q-46 0 -90 -23.5t-82.5 -61.5t-70 -86.5t-51.5 -99.5t-27 -99t3.5 -85.5t40.5 -60t83 -20.5q24 0 33.5 -7t6.5 -15t-17 -15t-35 -7q-76 0 -141 -27.5t-117 -72
t-90.5 -101.5t-60 -116.5t-26 -116.5t10.5 -101.5t51.5 -72t95.5 -27.5q44 0 86 21.5t79.5 55.5t70 75t57.5 79.5t41.5 70t23.5 45.5q9 21 18.5 30.5t15.5 7.5t5.5 -15.5t-12.5 -38.5q-8 -16 -28.5 -53t-51.5 -82t-71 -93.5t-87 -88.5t-99 -65.5t-106 -25.5q-87 0 -150 33
t-95.5 89.5t-33.5 132t35 161.5t111.5 178t194.5 181q-31 74 -21.5 144.5t46 132.5t94 113.5t124 88.5t134.5 57.5t126 20.5q54 0 87.5 -14.5t52.5 -37t25 -51.5t4 -58.5t-9.5 -56t-15.5 -45.5q-1 -4 -1 -7.5t-3 -8.5q-6 -18 -18.5 -33.5t-28 -27.5t-34 -18.5t-36.5 -6.5
q-36 0 -52.5 25t-4.5 61z" />
    <glyph glyph-name="Scaron" unicode="&#x160;" horiz-adv-x="1186" 
d="M769 1141q9 14 31 26.5t47 20.5t47.5 10t31.5 -5q9 -6 21 -27t24.5 -44t24 -41t19.5 -18t29.5 17t46 36.5t46.5 33.5t31 7q6 -4 -6 -19.5t-35 -36t-52 -43.5t-56.5 -42.5t-50 -32t-30.5 -12.5q-9 0 -26 10t-38 25.5t-42 34.5t-37 38t-24 35.5t-2 26.5zM1244 686
q24 62 0 110q-10 21 -31.5 40.5t-59 35.5t-93.5 25.5t-136 9.5q-78 0 -156.5 -14.5t-148 -40t-125.5 -59.5t-89.5 -72.5t-39 -80.5t26 -82.5t104 -78t196.5 -68.5q112 -28 203 -58t149 -72t77.5 -101t-11.5 -146q-30 -87 -90 -150t-141.5 -104t-180 -60.5t-205.5 -19.5
t-201.5 20t-160.5 56.5t-95.5 88t-7.5 113.5q11 33 33.5 53.5t49 28.5t52 5t42.5 -17q15 -12 14.5 -38t-15.5 -53.5t-45 -52.5t-74 -36q6 -27 43 -52.5t90 -45t115.5 -31t118.5 -11.5q72 0 142 14.5t130.5 40t108 59.5t75 73.5t31 81.5t-23 83.5t-87.5 79.5t-163 70
q-86 26 -159 47.5t-131 43t-99.5 45.5t-64 55.5t-25 74t18.5 100.5q20 58 64 105.5t104 85.5t132 65.5t146.5 46t148 27.5t137.5 9q96 0 167 -17.5t116.5 -47t64.5 -69t10 -84.5q-9 -44 -29.5 -74.5t-46.5 -49.5t-55.5 -27.5t-54.5 -8.5q-38 0 -54 25t-5 57q6 16 18 31
t28 27t35.5 19t40.5 7q14 0 27.5 -6t23.5 -13q11 -8 21 -18z" />
    <glyph glyph-name="scaron" unicode="&#x161;" horiz-adv-x="328" 
d="M107 721q9 14 31 26.5t47 20.5t47.5 10t31.5 -5q9 -6 21 -27t24.5 -44t24 -41t19.5 -18t29.5 17t46 36.5t46.5 33.5t31 7q6 -4 -6 -19.5t-35 -36t-52 -43.5t-56.5 -42.5t-50 -32t-30.5 -12.5q-9 0 -26 10t-38 25.5t-42 34.5t-37 38t-24 35.5t-2 26.5zM326 184
q5 -12 10 -41t-3 -66t-35 -78.5t-86 -78.5q-58 -37 -101.5 -43t-73.5 6.5t-48 37.5t-25 49q-3 11 1 16t10 6t11.5 -2t5.5 -9q4 -32 18 -43.5t30.5 -12t31.5 5.5t20 10t18 12.5t27 24.5t25 40.5t12 59.5q2 38 -12.5 71t-31.5 63l-47 -47q-5 -5 -11.5 -6t-10.5 2q-3 4 -3 9.5
t5 10.5l55 53q-11 18 -20 36t-12 36q-4 25 0.5 59.5t26.5 65.5t65 52.5t117 21.5q40 0 51 -14t1.5 -38t-35.5 -57t-60 -72q11 -18 21.5 -37.5t20.5 -38.5t18 -35.5t14 -28.5zM282 482q-20 0 -35 -12t-21.5 -31.5t-4.5 -43t16 -47.5q28 29 47.5 53.5t27 42.5t1 28t-30.5 10z
" />
    <glyph glyph-name="Zcaron" unicode="&#x17d;" horiz-adv-x="833" 
d="M550 1031q9 14 31 26.5t47 20.5t47.5 10t31.5 -5q9 -6 21 -27t24.5 -44t24 -41t19.5 -18t29.5 17t46 36.5t46.5 33.5t31 7q6 -4 -6 -19.5t-35 -36t-52 -43.5t-56.5 -42.5t-50 -32t-30.5 -12.5q-9 0 -26 10t-38 25.5t-42 34.5t-37 38t-24 35.5t-2 26.5zM1459 -445
q34 16 50.5 18.5t19.5 -3.5t-5.5 -17t-23.5 -23q-13 -10 -54 -37.5t-103 -62.5t-139.5 -72.5t-164 -66.5t-177 -45.5t-177 -10.5t-165.5 40.5t-142.5 107t-106.5 188t-59 284.5q-45 -42 -80.5 -75t-61.5 -56q-85 -73 -153.5 -115t-117.5 -64q-57 -26 -102 -33
q73 60 160 141.5t180 175t189 195t188 201.5t177.5 194t157.5 173.5t127 139.5t87 92q-18 -5 -39.5 -11t-44.5 -11q-75 -18 -166 -32t-183 -20q-93 -6 -177 -4t-148 10q-65 7 -102.5 15t-35.5 6q-11 3 -13 10.5t2 16t12 14.5t18 5q4 0 44.5 -7.5t109.5 -13.5t154 -6.5
t177 7.5t181 23.5t161 34.5q63 15 106.5 30t57.5 20q2 2 7 3q7 5 16 5q38 9 49.5 -16.5t-9.5 -70.5q-8 -19 -54 -73t-116.5 -131t-159.5 -170.5t-183.5 -190.5t-188.5 -191t-175 -172q8 -36 24.5 -85.5t46 -103.5t75 -106.5t111 -94.5t154 -68t203.5 -25.5t259.5 31.5
t322.5 103z" />
    <glyph glyph-name="zcaron" unicode="&#x17e;" horiz-adv-x="313" 
d="M224 776q9 14 31 26.5t47 20.5t47.5 10t31.5 -5q9 -6 21 -27t24.5 -44t24 -41t19.5 -18t29.5 17t46 36.5t46.5 33.5t31 7q6 -4 -6 -19.5t-35 -36t-52 -43.5t-56.5 -42.5t-50 -32t-30.5 -12.5q-9 0 -26 10t-38 25.5t-42 34.5t-37 38t-24 35.5t-2 26.5zM-50 -226
q0 35 19 67.5t51 64t74 63.5t87.5 65t91.5 68.5t87 74.5q5 6 12 7.5t11 0t4 -7t-9 -14.5t-36.5 -32.5t-57.5 -48.5q-35 -29 -76 -63q-67 -43 -118 -84q-22 -18 -42.5 -37t-35.5 -37.5t-23.5 -36.5t-5.5 -33q3 -22 16 -29t28 -6.5t28 6.5t18 9q5 4 18.5 13t27 25t24.5 40.5
t12 59.5q2 35 -9.5 65.5t-27 58t-30 53t-18.5 51.5q-3 15 -2 36t6.5 43.5t17 44t29.5 38.5q9 10 34.5 33.5t55.5 48.5t58.5 45t43.5 23q-13 -1 -32.5 -2t-39 0t-36.5 5.5t-25 13t-4.5 22t25.5 34.5q39 39 64.5 55t38.5 18t15 -6.5t-4 -19.5q-3 -6 -15.5 -22t-20.5 -32
t-4 -27t34 -8t60.5 6.5t56 4.5t42.5 -1.5t21 -10.5q3 -5 -9 -15.5t-33 -24.5t-47 -31t-51.5 -33.5t-47.5 -32.5t-34 -28q-18 -19 -32.5 -36t-20.5 -35t-2.5 -39.5t21.5 -48.5q12 -26 33.5 -57.5t40.5 -83.5q10 -26 9 -59.5t-15 -69t-43 -71t-75 -63.5q-50 -32 -92.5 -45.5
t-74 -10t-49 23t-17.5 55.5z" />
    <glyph glyph-name="Ydieresis" unicode="&#x178;" horiz-adv-x="985" 
d="M1276 948q40 6 62 3.5t27.5 -10.5t-4.5 -19t-34 -23q-49 -6 -109 -47.5t-127 -108t-139.5 -153t-144.5 -182.5t-142.5 -197t-134 -196.5t-118.5 -180.5t-96.5 -150t-67.5 -104t-32 -43q-15 -9 -35.5 -11.5t-40 -1t-35 6.5t-18.5 12q-2 3 13 30t41 68.5t59.5 93.5
t69.5 106q84 126 191 283q-30 216 -56 390q-11 74 -21.5 146t-19 130.5t-14.5 97t-7 45.5q-3 15 2 24.5t13 13t18 0t17 -15.5q5 -9 11.5 -45.5t14 -90.5t15 -120t15.5 -134.5t15 -135t13.5 -121.5t11.5 -92.5t8 -48.5q98 165 186.5 286t166 206.5t143.5 139.5t120 86
t95 45.5t68 17.5zM568 846q5 15 15 28t23 23t27.5 16t29.5 6q29 1 43.5 -19.5t4.5 -49.5t-36.5 -50t-57.5 -22q-29 -1 -43 19t-6 49zM747 846q5 15 15 28t23 23t27.5 16t29.5 6q29 1 43.5 -19.5t4.5 -49.5t-36.5 -50t-57.5 -22q-29 -1 -43 19t-6 49z" />
    <glyph glyph-name="ydieresis" unicode="&#xff;" horiz-adv-x="571" 
d="M523 168q-15 -116 -51.5 -199.5t-85 -138.5t-105.5 -84t-113 -37t-107 2.5t-89 35.5q-37 24 -45.5 54.5t4.5 64.5t44.5 70.5t74 73.5t93 73t102.5 69q28 18 44 26.5t23 11t6.5 0t-5.5 -8.5q-11 -13 -45 -41l68 37q3 1 -13 -12t-37 -29l-56 -42q-43 -18 -85.5 -45.5
t-77 -59t-56.5 -63.5t-24.5 -57.5t17.5 -41.5t71 -16q79 0 134 37.5t93.5 98.5t65.5 138t51 156q-40 -45 -81 -80q-18 -15 -38 -29t-41 -25.5t-43 -18t-43 -6.5q-66 0 -91 32t-16.5 84.5t47 118t101.5 133.5q24 25 41.5 34.5t24.5 4.5t2 -24t-26 -51q-42 -62 -50 -105
t2 -69.5t32 -38.5t40 -12q33 0 62.5 21.5t55 54t47.5 70.5t41 70.5t34.5 54t28.5 21.5q9 0 13 -13.5t4 -35.5t-3 -50.5t-8 -57.5q-11 -69 -32 -156zM293 646q5 15 15 28t23 23t27.5 16t29.5 6q29 1 43.5 -19.5t4.5 -49.5t-36.5 -50t-57.5 -22q-29 -1 -43 19t-6 49zM472 646
q5 15 15 28t23 23t27.5 16t29.5 6q29 1 43.5 -19.5t4.5 -49.5t-36.5 -50t-57.5 -22q-29 -1 -43 19t-6 49z" />
    <glyph glyph-name="Aring" unicode="&#xc5;" horiz-adv-x="1181" 
d="M794 1187q7 21 22 40t34 33.5t41 22.5t43 8q43 0 63 -30.5t5 -73.5q-8 -21 -22.5 -40t-33.5 -33.5t-41 -22.5t-43 -8q-43 0 -63 30.5t-5 73.5zM866 1179q-11 -28 -1 -47.5t33 -19.5t46 19.5t34 47.5q9 28 -1 47.5t-33 19.5t-46 -19.5t-32 -47.5zM1084 29q18 -18 19.5 -35
t-12.5 -29t-43.5 -15.5t-74.5 5.5q-32 6 -65.5 45.5t-65.5 104.5q-78 -2 -166 -2.5t-177 1t-173.5 4.5t-154.5 8q-75 -99 -146 -190.5t-129 -165t-98.5 -122t-54.5 -61.5q-20 -18 -35 -23t-22 0t-3.5 19.5t20.5 36.5q7 9 42 53.5t90 114t125 158t147 185.5q-31 2 -54.5 5
t-40.5 6q-75 13 -120 37.5t-71 50.5q-30 29 -43 63q81 -18 194 -25t239 -7q48 60 95.5 120t92.5 117t86.5 109.5t77.5 97.5q84 106 160 201q-2 19 0 37q2 15 6 31t15 27q11 10 34.5 18t49.5 10.5t49.5 -1.5t33.5 -17q5 -7 3 -41.5t-5 -89t-6 -124.5t0 -148t13 -159.5
t33 -158.5q52 2 90.5 3.5t57.5 -0.5q51 -3 72.5 -21.5t20 -42t-22 -48t-51.5 -40.5q-25 -11 -96 -17q25 -47 64 -85zM276 252q130 2 259.5 7.5t241.5 11.5q-18 60 -31.5 127t-21 138.5t-8 146t7.5 148.5q-13 -16 -55 -70t-103 -132.5t-136 -176t-154 -200.5z" />
    <glyph glyph-name="aring" unicode="&#xe5;" horiz-adv-x="712" 
d="M484 661q7 21 22 40t34 33.5t41 22.5t43 8q43 0 63 -30.5t5 -73.5q-8 -21 -22.5 -40t-33.5 -33.5t-41 -22.5t-43 -8q-43 0 -63 30.5t-5 73.5zM556 653q-11 -28 -1 -47.5t33 -19.5t46 19.5t34 47.5q9 28 -1 47.5t-33 19.5t-46 -19.5t-32 -47.5zM790 186q13 0 10 -14
q-1 -1 -13.5 -14t-34.5 -32.5t-51 -42t-62.5 -41.5t-68.5 -32t-69 -13q-36 0 -56.5 23.5t-30.5 52.5t-12.5 53.5t-2.5 27.5q-3 -3 -26.5 -27.5t-58.5 -53.5t-77.5 -52.5t-83.5 -23.5q-44 0 -70 17.5t-35 47.5t-1.5 69.5t30 83t60 88t89.5 85.5q55 44 106.5 66t96.5 30
q40 7 73 4.5t54 -9.5t29.5 -16.5t1.5 -16.5q-9 -8 -14.5 -7t-14.5 5.5t-25 9.5t-46 5q-28 0 -61 -12.5t-65.5 -34t-62 -50.5t-50.5 -61q-32 -48 -40.5 -84.5t-3 -62t21.5 -38.5t34 -13q33 0 62 20t54 49.5t46 64t39 64t33 49t28 19.5t17 -21.5t5.5 -53t2.5 -69t7 -69t20 -53
t41 -21.5q20 0 40 8.5t37 19.5q18 12 36 28l45 39q7 9 17 9z" />
    <glyph glyph-name="cedilla" unicode="&#xb8;" horiz-adv-x="451" 
d="M177 22q2 5 15.5 6.5t29.5 2.5q18 1 40 0q-16 -15 -29 -28q-11 -11 -20.5 -23.5t-8.5 -20.5q0 -6 10 -3t23.5 8t28 9t24 -0.5t12 -19.5t-7.5 -48q-11 -33 -33.5 -53t-51 -30.5t-59.5 -13t-57 0.5t-45 9.5t-23 14.5q-6 12 -2.5 17t9.5 5.5t12 -1t5 -3.5t17 -8t42.5 -7.5
t50 7t40.5 35.5q10 18 8 27t-11 12t-22.5 2t-27 -2.5t-24 -2t-13.5 4.5q-5 7 4.5 22t23 31.5t26 30.5t14.5 19z" />
    <glyph glyph-name="Ccedilla" unicode="&#xc7;" horiz-adv-x="964" 
d="M846 45q16 18 28.5 25.5t18 5.5t1.5 -13.5t-21 -30.5q-12 -13 -35 -39t-56.5 -58t-77 -66t-96 -63t-115 -49.5t-132.5 -25.5t-122 14.5t-87.5 57t-55 90t-26 113.5t0.5 127.5t25 132.5q19 66 56.5 139t89.5 145.5t116.5 139t138 118.5t153.5 85.5t163 39.5q67 5 116 -4.5
t83.5 -28t55 -44t31 -52.5t11 -54t-5.5 -49q-1 -9 -5 -18q-1 -2 -1 -4.5t-2 -4.5q-5 -18 -16 -34t-26 -28.5t-33 -20.5t-36 -9q-35 -2 -54 21t-10 58q6 18 17 34t26 28.5t32.5 20.5t35.5 9q23 2 39 -7q-3 27 -15 57t-39 54t-72.5 38t-116.5 9q-56 -4 -112 -37.5t-109 -88
t-101 -125.5t-88 -150t-69 -161.5t-45 -159.5t-16.5 -144.5t18.5 -116.5t58 -76t103 -22q46 3 90 18.5t84 37t74 47t61 49t45 42.5t25 28zM317 -256q2 5 15.5 6.5t29.5 2.5q18 1 40 0q-16 -15 -29 -28q-11 -11 -20.5 -23.5t-8.5 -20.5q0 -6 10 -3t23.5 8t28 9t24 -0.5
t12 -19.5t-7.5 -48q-11 -33 -33.5 -53t-51 -30.5t-59.5 -13t-57 0.5t-45 9.5t-23 14.5q-6 12 -2.5 17t9.5 5.5t12 -1t5 -3.5t17 -8t42.5 -7.5t50 7t40.5 35.5q10 18 8 27t-11 12t-22.5 2t-27 -2.5t-24 -2t-13.5 4.5q-5 7 4.5 22t23 31.5t26 30.5t14.5 19z" />
    <glyph glyph-name="ccedilla" unicode="&#xe7;" horiz-adv-x="522" 
d="M586 186q10 9 16 10t8.5 -3t1 -10t-5.5 -10q-3 -3 -22.5 -17.5t-50.5 -34t-70 -41.5t-82 -40.5t-86 -30.5t-82 -12q-59 0 -93 24t-49 60t-13.5 79t15.5 81q13 39 44 84t74 83.5t96 64t110 25.5q32 0 55 -10t37.5 -26.5t19 -37.5t-1.5 -43q-5 -16 -12.5 -32t-17.5 -30
t-22.5 -24.5t-27.5 -16.5q-14 -7 -30 -7q-23 0 -33 15.5t-2 38.5t30 39t45 16q21 0 30 -14q3 10 5 27t-3.5 33.5t-22 29t-51.5 12.5q-34 0 -65.5 -29.5t-55 -74t-36 -96.5t-8.5 -96.5t27.5 -74t72.5 -29.5q29 0 68 12q33 11 80.5 34.5t107.5 71.5zM243 22q2 5 15.5 6.5
t29.5 2.5q18 1 40 0q-16 -15 -29 -28q-11 -11 -20.5 -23.5t-8.5 -20.5q0 -6 10 -3t23.5 8t28 9t24 -0.5t12 -19.5t-7.5 -48q-11 -33 -33.5 -53t-51 -30.5t-59.5 -13t-57 0.5t-45 9.5t-23 14.5q-6 12 -2.5 17t9.5 5.5t12 -1t5 -3.5t17 -8t42.5 -7.5t50 7t40.5 35.5
q10 18 8 27t-11 12t-22.5 2t-27 -2.5t-24 -2t-13.5 4.5q-5 7 4.5 22t23 31.5t26 30.5t14.5 19z" />
    <glyph glyph-name="equal" unicode="=" 
d="M472 406q27 -2 35.5 -21.5t4.5 -42t-17 -41t-29 -18.5h-66.5t-63 0.5t-63.5 0.5h-68q-43 0 -62 19t-24 42q-6 26 0 61q50 -5 101 -4.5t98 2.5t87 3.5t67 -1.5zM422 266q27 -2 36 -21.5t5.5 -42t-16.5 -41t-29 -18.5h-67t-63.5 0.5t-64 0.5h-68.5q-43 0 -62 19t-24 42
q-6 26 0 61q50 -5 101.5 -4.5t98.5 2.5t87 3.5t66 -1.5z" />
    <glyph glyph-name="acute" unicode="&#xb4;" horiz-adv-x="667" 
d="M782 773q7 -25 -11.5 -47.5t-52 -43t-76.5 -38t-85 -31.5t-78 -24.5t-54 -15.5q-11 -3 -19.5 0t-12 8.5t0 12t17.5 11.5q9 3 38.5 21.5t69 43t84 50.5t82.5 43.5t65 22t32 -12.5z" />
    <glyph glyph-name="grave" unicode="`" horiz-adv-x="667" 
d="M308 748q23 26 49 28t52.5 -10.5t51.5 -35.5t47 -48t38.5 -48t25.5 -35q5 -7 4 -16.5t-5.5 -17t-11.5 -9.5t-14 6q-5 6 -28.5 16.5t-55.5 25t-65.5 32t-58.5 36.5t-35 38t6 38z" />
    <glyph glyph-name="Agrave" unicode="&#xc0;" horiz-adv-x="1181" 
d="M1084 29q18 -18 19.5 -35t-12.5 -29t-43.5 -15.5t-74.5 5.5q-32 6 -65.5 45.5t-65.5 104.5q-78 -2 -166 -2.5t-177 1t-173.5 4.5t-154.5 8q-75 -99 -146 -190.5t-129 -165t-98.5 -122t-54.5 -61.5q-20 -18 -35 -23t-22 0t-3.5 19.5t20.5 36.5q7 9 42 53.5t90 114t125 158
t147 185.5q-31 2 -54.5 5t-40.5 6q-75 13 -120 37.5t-71 50.5q-30 29 -43 63q81 -18 194 -25t239 -7q48 60 95.5 120t92.5 117t86.5 109.5t77.5 97.5q84 106 160 201q-2 19 0 37q2 15 6 31t15 27q11 10 34.5 18t49.5 10.5t49.5 -1.5t33.5 -17q5 -7 3 -41.5t-5 -89t-6 -124.5
t0 -148t13 -159.5t33 -158.5q52 2 90.5 3.5t57.5 -0.5q51 -3 72.5 -21.5t20 -42t-22 -48t-51.5 -40.5q-25 -11 -96 -17q25 -47 64 -85zM276 252q130 2 259.5 7.5t241.5 11.5q-18 60 -31.5 127t-21 138.5t-8 146t7.5 148.5q-13 -16 -55 -70t-103 -132.5t-136 -176
t-154 -200.5zM747 1229q23 26 49 28t52.5 -10.5t51.5 -35.5t47 -48t38.5 -48t25.5 -35q5 -7 4 -16.5t-5.5 -17t-11.5 -9.5t-14 6q-5 6 -28.5 16.5t-55.5 25t-65.5 32t-58.5 36.5t-35 38t6 38z" />
    <glyph glyph-name="agrave" unicode="&#xe0;" horiz-adv-x="712" 
d="M790 186q13 0 10 -14q-1 -1 -13.5 -14t-34.5 -32.5t-51 -42t-62.5 -41.5t-68.5 -32t-69 -13q-36 0 -56.5 23.5t-30.5 52.5t-12.5 53.5t-2.5 27.5q-3 -3 -26.5 -27.5t-58.5 -53.5t-77.5 -52.5t-83.5 -23.5q-44 0 -70 17.5t-35 47.5t-1.5 69.5t30 83t60 88t89.5 85.5
q55 44 106.5 66t96.5 30q40 7 73 4.5t54 -9.5t29.5 -16.5t1.5 -16.5q-9 -8 -14.5 -7t-14.5 5.5t-25 9.5t-46 5q-28 0 -61 -12.5t-65.5 -34t-62 -50.5t-50.5 -61q-32 -48 -40.5 -84.5t-3 -62t21.5 -38.5t34 -13q33 0 62 20t54 49.5t46 64t39 64t33 49t28 19.5t17 -21.5
t5.5 -53t2.5 -69t7 -69t20 -53t41 -21.5q20 0 40 8.5t37 19.5q18 12 36 28l45 39q7 9 17 9zM359 748q23 26 49 28t52.5 -10.5t51.5 -35.5t47 -48t38.5 -48t25.5 -35q5 -7 4 -16.5t-5.5 -17t-11.5 -9.5t-14 6q-5 6 -28.5 16.5t-55.5 25t-65.5 32t-58.5 36.5t-35 38t6 38z" />
    <glyph glyph-name="aacute" unicode="&#xe1;" horiz-adv-x="712" 
d="M790 186q13 0 10 -14q-1 -1 -13.5 -14t-34.5 -32.5t-51 -42t-62.5 -41.5t-68.5 -32t-69 -13q-36 0 -56.5 23.5t-30.5 52.5t-12.5 53.5t-2.5 27.5q-3 -3 -26.5 -27.5t-58.5 -53.5t-77.5 -52.5t-83.5 -23.5q-44 0 -70 17.5t-35 47.5t-1.5 69.5t30 83t60 88t89.5 85.5
q55 44 106.5 66t96.5 30q40 7 73 4.5t54 -9.5t29.5 -16.5t1.5 -16.5q-9 -8 -14.5 -7t-14.5 5.5t-25 9.5t-46 5q-28 0 -61 -12.5t-65.5 -34t-62 -50.5t-50.5 -61q-32 -48 -40.5 -84.5t-3 -62t21.5 -38.5t34 -13q33 0 62 20t54 49.5t46 64t39 64t33 49t28 19.5t17 -21.5
t5.5 -53t2.5 -69t7 -69t20 -53t41 -21.5q20 0 40 8.5t37 19.5q18 12 36 28l45 39q7 9 17 9zM760 773q7 -25 -11.5 -47.5t-52 -43t-76.5 -38t-85 -31.5t-78 -24.5t-54 -15.5q-11 -3 -19.5 0t-12 8.5t0 12t17.5 11.5q9 3 38.5 21.5t69 43t84 50.5t82.5 43.5t65 22t32 -12.5z
" />
    <glyph glyph-name="Aacute" unicode="&#xc1;" horiz-adv-x="1181" 
d="M1084 29q18 -18 19.5 -35t-12.5 -29t-43.5 -15.5t-74.5 5.5q-32 6 -65.5 45.5t-65.5 104.5q-78 -2 -166 -2.5t-177 1t-173.5 4.5t-154.5 8q-75 -99 -146 -190.5t-129 -165t-98.5 -122t-54.5 -61.5q-20 -18 -35 -23t-22 0t-3.5 19.5t20.5 36.5q7 9 42 53.5t90 114t125 158
t147 185.5q-31 2 -54.5 5t-40.5 6q-75 13 -120 37.5t-71 50.5q-30 29 -43 63q81 -18 194 -25t239 -7q48 60 95.5 120t92.5 117t86.5 109.5t77.5 97.5q84 106 160 201q-2 19 0 37q2 15 6 31t15 27q11 10 34.5 18t49.5 10.5t49.5 -1.5t33.5 -17q5 -7 3 -41.5t-5 -89t-6 -124.5
t0 -148t13 -159.5t33 -158.5q52 2 90.5 3.5t57.5 -0.5q51 -3 72.5 -21.5t20 -42t-22 -48t-51.5 -40.5q-25 -11 -96 -17q25 -47 64 -85zM276 252q130 2 259.5 7.5t241.5 11.5q-18 60 -31.5 127t-21 138.5t-8 146t7.5 148.5q-13 -16 -55 -70t-103 -132.5t-136 -176
t-154 -200.5zM1114 1252q7 -25 -11.5 -47.5t-52 -43t-76.5 -38t-85 -31.5t-78 -24.5t-54 -15.5q-11 -3 -19.5 0t-12 8.5t0 12t17.5 11.5q9 3 38.5 21.5t69 43t84 50.5t82.5 43.5t65 22t32 -12.5z" />
    <glyph glyph-name="Egrave" unicode="&#xc8;" horiz-adv-x="833" 
d="M803 686q7 18 19.5 34t28.5 27.5t34.5 18.5t36.5 7q20 0 35 -9q6 27 6.5 56t-14 52t-46.5 38t-90 15q-46 0 -90 -23.5t-82.5 -61.5t-70 -86.5t-51.5 -99.5t-27 -99t3.5 -85.5t40.5 -60t83 -20.5q24 0 33.5 -7t6.5 -15t-17 -15t-35 -7q-76 0 -141 -27.5t-117 -72
t-90.5 -101.5t-60 -116.5t-26 -116.5t10.5 -101.5t51.5 -72t95.5 -27.5q44 0 86 21.5t79.5 55.5t70 75t57.5 79.5t41.5 70t23.5 45.5q9 21 18.5 30.5t15.5 7.5t5.5 -15.5t-12.5 -38.5q-8 -16 -28.5 -53t-51.5 -82t-71 -93.5t-87 -88.5t-99 -65.5t-106 -25.5q-87 0 -150 33
t-95.5 89.5t-33.5 132t35 161.5t111.5 178t194.5 181q-31 74 -21.5 144.5t46 132.5t94 113.5t124 88.5t134.5 57.5t126 20.5q54 0 87.5 -14.5t52.5 -37t25 -51.5t4 -58.5t-9.5 -56t-15.5 -45.5q-1 -4 -1 -7.5t-3 -8.5q-6 -18 -18.5 -33.5t-28 -27.5t-34 -18.5t-36.5 -6.5
q-36 0 -52.5 25t-4.5 61zM675 1204q23 26 49 28t52.5 -10.5t51.5 -35.5t47 -48t38.5 -48t25.5 -35q5 -7 4 -16.5t-5.5 -17t-11.5 -9.5t-14 6q-5 6 -28.5 16.5t-55.5 25t-65.5 32t-58.5 36.5t-35 38t6 38z" />
    <glyph glyph-name="egrave" unicode="&#xe8;" horiz-adv-x="522" 
d="M479 356q-15 -25 -43.5 -54.5t-63 -58.5t-70 -56t-64.5 -47q10 -32 31.5 -52t61.5 -20q29 0 68 12q33 11 80.5 34.5t107.5 71.5q10 9 16 10t8.5 -3t1 -10t-5.5 -10q-3 -3 -22.5 -17.5t-50.5 -34t-70 -41.5t-82 -40.5t-86 -30.5t-82 -12q-59 0 -93 24t-49 60t-13.5 79
t15.5 81q13 39 44 84t74 83.5t96 64t110 25.5q46 0 69.5 -13.5t30 -34.5t0 -46t-18.5 -48zM399 469q-34 0 -66 -30.5t-56 -75.5t-37 -97.5t-8 -97.5q28 18 61 41.5t64 49t56 51t36 47.5q16 31 17.5 52.5t-6.5 34.5t-24.5 19t-36.5 6zM265 748q23 26 49 28t52.5 -10.5
t51.5 -35.5t47 -48t38.5 -48t25.5 -35q5 -7 4 -16.5t-5.5 -17t-11.5 -9.5t-14 6q-5 6 -28.5 16.5t-55.5 25t-65.5 32t-58.5 36.5t-35 38t6 38z" />
    <glyph glyph-name="eacute" unicode="&#xe9;" horiz-adv-x="522" 
d="M479 356q-15 -25 -43.5 -54.5t-63 -58.5t-70 -56t-64.5 -47q10 -32 31.5 -52t61.5 -20q29 0 68 12q33 11 80.5 34.5t107.5 71.5q10 9 16 10t8.5 -3t1 -10t-5.5 -10q-3 -3 -22.5 -17.5t-50.5 -34t-70 -41.5t-82 -40.5t-86 -30.5t-82 -12q-59 0 -93 24t-49 60t-13.5 79
t15.5 81q13 39 44 84t74 83.5t96 64t110 25.5q46 0 69.5 -13.5t30 -34.5t0 -46t-18.5 -48zM399 469q-34 0 -66 -30.5t-56 -75.5t-37 -97.5t-8 -97.5q28 18 61 41.5t64 49t56 51t36 47.5q16 31 17.5 52.5t-6.5 34.5t-24.5 19t-36.5 6zM665 773q7 -25 -11.5 -47.5t-52 -43
t-76.5 -38t-85 -31.5t-78 -24.5t-54 -15.5q-11 -3 -19.5 0t-12 8.5t0 12t17.5 11.5q9 3 38.5 21.5t69 43t84 50.5t82.5 43.5t65 22t32 -12.5z" />
    <glyph glyph-name="Eacute" unicode="&#xc9;" horiz-adv-x="833" 
d="M803 686q7 18 19.5 34t28.5 27.5t34.5 18.5t36.5 7q20 0 35 -9q6 27 6.5 56t-14 52t-46.5 38t-90 15q-46 0 -90 -23.5t-82.5 -61.5t-70 -86.5t-51.5 -99.5t-27 -99t3.5 -85.5t40.5 -60t83 -20.5q24 0 33.5 -7t6.5 -15t-17 -15t-35 -7q-76 0 -141 -27.5t-117 -72
t-90.5 -101.5t-60 -116.5t-26 -116.5t10.5 -101.5t51.5 -72t95.5 -27.5q44 0 86 21.5t79.5 55.5t70 75t57.5 79.5t41.5 70t23.5 45.5q9 21 18.5 30.5t15.5 7.5t5.5 -15.5t-12.5 -38.5q-8 -16 -28.5 -53t-51.5 -82t-71 -93.5t-87 -88.5t-99 -65.5t-106 -25.5q-87 0 -150 33
t-95.5 89.5t-33.5 132t35 161.5t111.5 178t194.5 181q-31 74 -21.5 144.5t46 132.5t94 113.5t124 88.5t134.5 57.5t126 20.5q54 0 87.5 -14.5t52.5 -37t25 -51.5t4 -58.5t-9.5 -56t-15.5 -45.5q-1 -4 -1 -7.5t-3 -8.5q-6 -18 -18.5 -33.5t-28 -27.5t-34 -18.5t-36.5 -6.5
q-36 0 -52.5 25t-4.5 61zM1045 1182q7 -25 -11.5 -47.5t-52 -43t-76.5 -38t-85 -31.5t-78 -24.5t-54 -15.5q-11 -3 -19.5 0t-12 8.5t0 12t17.5 11.5q9 3 38.5 21.5t69 43t84 50.5t82.5 43.5t65 22t32 -12.5z" />
    <glyph glyph-name="Igrave" unicode="&#xcc;" horiz-adv-x="471" 
d="M11 -576q-25 24 -40 64q-13 34 -18.5 88.5t10.5 134.5q7 40 26.5 111t47 160.5t61.5 192t69.5 204.5t70.5 198t65.5 172.5t54.5 128t37 64.5q25 26 53.5 38t49.5 5t29.5 -34.5t-6.5 -79.5q-8 -26 -31.5 -87t-58 -146.5t-76 -189t-85 -215.5t-85.5 -226.5t-77.5 -221
t-61 -199.5t-35.5 -162zM371 1226q23 26 49 28t52.5 -10.5t51.5 -35.5t47 -48t38.5 -48t25.5 -35q5 -7 4 -16.5t-5.5 -17t-11.5 -9.5t-14 6q-5 6 -28.5 16.5t-55.5 25t-65.5 32t-58.5 36.5t-35 38t6 38z" />
    <glyph glyph-name="igrave" unicode="&#xec;" horiz-adv-x="477" 
d="M555 186q13 0 10 -14q0 -1 -14 -14t-37.5 -32.5t-54 -42t-65 -41.5t-70.5 -32t-70 -13q-37 0 -56 14.5t-25.5 38.5t-3 55t12 62.5t20 62.5t21 55t14 38.5t0.5 14.5q-21 -25 -50 -57t-55 -60.5t-46 -49.5t-23 -24q-7 -7 -14 -8.5t-11.5 1t-4.5 7.5t8 12q59 55 109.5 115.5
t94.5 111.5t83.5 84.5t77.5 33.5q16 0 18 -18t-4.5 -48t-19.5 -67.5t-27 -77.5t-26 -77.5t-16.5 -67.5t0.5 -48t25 -18t44 8.5t45 19.5q25 12 49 28l44 39q7 9 17 9zM242 748q23 26 49 28t52.5 -10.5t51.5 -35.5t47 -48t38.5 -48t25.5 -35q5 -7 4 -16.5t-5.5 -17t-11.5 -9.5
t-14 6q-5 6 -28.5 16.5t-55.5 25t-65.5 32t-58.5 36.5t-35 38t6 38z" />
    <glyph glyph-name="iacute" unicode="&#xed;" horiz-adv-x="477" 
d="M555 186q13 0 10 -14q0 -1 -14 -14t-37.5 -32.5t-54 -42t-65 -41.5t-70.5 -32t-70 -13q-37 0 -56 14.5t-25.5 38.5t-3 55t12 62.5t20 62.5t21 55t14 38.5t0.5 14.5q-21 -25 -50 -57t-55 -60.5t-46 -49.5t-23 -24q-7 -7 -14 -8.5t-11.5 1t-4.5 7.5t8 12q59 55 109.5 115.5
t94.5 111.5t83.5 84.5t77.5 33.5q16 0 18 -18t-4.5 -48t-19.5 -67.5t-27 -77.5t-26 -77.5t-16.5 -67.5t0.5 -48t25 -18t44 8.5t45 19.5q25 12 49 28l44 39q7 9 17 9zM641 773q7 -25 -11.5 -47.5t-52 -43t-76.5 -38t-85 -31.5t-78 -24.5t-54 -15.5q-11 -3 -19.5 0t-12 8.5
t0 12t17.5 11.5q9 3 38.5 21.5t69 43t84 50.5t82.5 43.5t65 22t32 -12.5z" />
    <glyph glyph-name="Iacute" unicode="&#xcd;" horiz-adv-x="471" 
d="M11 -576q-25 24 -40 64q-13 34 -18.5 88.5t10.5 134.5q7 40 26.5 111t47 160.5t61.5 192t69.5 204.5t70.5 198t65.5 172.5t54.5 128t37 64.5q25 26 53.5 38t49.5 5t29.5 -34.5t-6.5 -79.5q-8 -26 -31.5 -87t-58 -146.5t-76 -189t-85 -215.5t-85.5 -226.5t-77.5 -221
t-61 -199.5t-35.5 -162zM819 1287q7 -25 -11.5 -47.5t-52 -43t-76.5 -38t-85 -31.5t-78 -24.5t-54 -15.5q-11 -3 -19.5 0t-12 8.5t0 12t17.5 11.5q9 3 38.5 21.5t69 43t84 50.5t82.5 43.5t65 22t32 -12.5z" />
    <glyph glyph-name="Eth" unicode="&#xd0;" horiz-adv-x="987" 
d="M700 932q60 0 116.5 -23.5t102 -66t76 -101.5t40 -129t-6.5 -148.5t-64 -161.5t-132 -167t-211 -164q-81 -52 -157 -79.5t-146 -36.5t-133 -2t-119 24q-5 -12 -14 -19t-17.5 -6.5t-14 10.5t-3.5 33q-69 28 -123.5 65t-92.5 71q-45 40 -78 81q4 11 10 17q5 5 12 5t17 -11
q6 -8 24.5 -31t50.5 -51.5t78 -58.5t108 -53q8 31 30.5 95.5t52 147t63.5 174.5t65.5 177.5t58 156.5t41.5 111q-102 0 -213 -3.5t-230 -3.5q-31 0 -61 9.5t-55 24t-43.5 32.5t-27.5 35t-6.5 30.5t19.5 19.5q13 4 62.5 6.5t121 3.5t158.5 0t176 -2q209 -4 465 -11zM273 -113
q64 0 128 23t124 62t114 91.5t98 111.5t76 121.5t48 122t13.5 112.5t-26.5 93q-30 48 -75.5 79.5t-104.5 50t-130.5 26.5t-152.5 10q-15 -43 -41.5 -116t-58 -160.5t-65 -181t-63 -177t-51.5 -148t-31 -94.5q42 -12 91.5 -19t106.5 -7zM331 326q27 -2 35.5 -21.5t4.5 -42
t-17 -41t-29 -18.5h-67t-63.5 0.5t-64 0.5h-68.5q-42 0 -60.5 19t-22.5 42q-6 26 1 61q49 -5 100 -4.5t97.5 2.5t86.5 3.5t67 -1.5z" />
    <glyph glyph-name="eth" unicode="&#xf0;" horiz-adv-x="579" 
d="M381 471q-8 12 -13.5 24t-10.5 23q-16 -5 -29 -8.5t-22 -5.5q-10 -3 -18.5 0t-11.5 8.5t0.5 12t17.5 11.5q5 2 16.5 8t27.5 17q-8 20 -13.5 37.5t-6.5 30.5q-2 33 12.5 60.5t34.5 47t40.5 29t31.5 6.5q7 -2 23.5 -34.5t34.5 -80.5q30 17 59 31.5t52 22t38.5 6.5t20.5 -13
q5 -18 -4.5 -35.5t-29 -33.5t-47 -31t-58.5 -28q11 -30 21 -60.5t18.5 -58.5t15 -51.5t10.5 -39.5q9 -29 9 -61.5t-14 -68.5q-17 -49 -52 -92t-80.5 -75.5t-98 -51t-104.5 -18.5t-91 18.5t-61.5 51t-26.5 75.5t13 92q16 45 46 84.5t69.5 71t86 52t94.5 27.5zM184 62
q29 -3 61 7.5t62 31.5t55.5 51.5t41.5 66.5q17 36 17 74t-7 70q-8 37 -24 72q-31 5 -70 -9t-76.5 -40t-70 -60.5t-49.5 -70.5t-20.5 -69.5t5 -59.5t27.5 -43t48 -21z" />
    <glyph glyph-name="ograve" unicode="&#xf2;" horiz-adv-x="531" 
d="M388 486q48 0 83.5 -19.5t55.5 -52.5t22.5 -77.5t-15.5 -95.5t-52 -95.5t-77 -77.5t-92 -52.5t-97 -19.5t-83 19.5t-55 52.5t-22.5 77.5t15.5 95.5t52 95.5t77 77.5t91.5 52.5t96.5 19.5zM351 77q30 7 59 27.5t52.5 50t39 66t20.5 74.5q4 38 -4 69t-26 52t-43.5 29.5
t-55.5 1.5q-31 -7 -59.5 -27.5t-51.5 -49.5t-38.5 -65.5t-19.5 -74.5q-5 -38 3 -69.5t25 -52t42.5 -29.5t56.5 -2zM270 748q23 26 49 28t52.5 -10.5t51.5 -35.5t47 -48t38.5 -48t25.5 -35q5 -7 4 -16.5t-5.5 -17t-11.5 -9.5t-14 6q-5 6 -28.5 16.5t-55.5 25t-65.5 32
t-58.5 36.5t-35 38t6 38z" />
    <glyph glyph-name="Ograve" unicode="&#xd2;" horiz-adv-x="1089" 
d="M787 956q93 0 157.5 -47.5t96.5 -129t28.5 -191.5t-46.5 -235q-30 -83 -73 -160t-95.5 -144t-113 -121.5t-124 -94t-128 -61t-126.5 -21.5q-93 0 -158.5 47.5t-97.5 129t-28.5 191t47.5 234.5q29 83 72 160t96 144t113 122t124 94.5t129 61t127 21.5zM546 -105
q79 14 155.5 66t141 130t111 175t66.5 202q19 105 6.5 191.5t-51 145.5t-100 86.5t-139.5 13.5q-79 -14 -155.5 -66t-141 -130t-111.5 -175t-66 -202q-20 -104 -7 -190.5t51.5 -146t100 -87t139.5 -13.5zM711 1165q23 26 49 28t52.5 -10.5t51.5 -35.5t47 -48t38.5 -48
t25.5 -35q5 -7 4 -16.5t-5.5 -17t-11.5 -9.5t-14 6q-5 6 -28.5 16.5t-55.5 25t-65.5 32t-58.5 36.5t-35 38t6 38z" />
    <glyph glyph-name="Oacute" unicode="&#xd3;" horiz-adv-x="1089" 
d="M787 956q93 0 157.5 -47.5t96.5 -129t28.5 -191.5t-46.5 -235q-30 -83 -73 -160t-95.5 -144t-113 -121.5t-124 -94t-128 -61t-126.5 -21.5q-93 0 -158.5 47.5t-97.5 129t-28.5 191t47.5 234.5q29 83 72 160t96 144t113 122t124 94.5t129 61t127 21.5zM546 -105
q79 14 155.5 66t141 130t111 175t66.5 202q19 105 6.5 191.5t-51 145.5t-100 86.5t-139.5 13.5q-79 -14 -155.5 -66t-141 -130t-111.5 -175t-66 -202q-20 -104 -7 -190.5t51.5 -146t100 -87t139.5 -13.5zM1076 1205q7 -25 -11.5 -47.5t-52 -43t-76.5 -38t-85 -31.5
t-78 -24.5t-54 -15.5q-11 -3 -19.5 0t-12 8.5t0 12t17.5 11.5q9 3 38.5 21.5t69 43t84 50.5t82.5 43.5t65 22t32 -12.5z" />
    <glyph glyph-name="oacute" unicode="&#xf3;" horiz-adv-x="531" 
d="M388 486q48 0 83.5 -19.5t55.5 -52.5t22.5 -77.5t-15.5 -95.5t-52 -95.5t-77 -77.5t-92 -52.5t-97 -19.5t-83 19.5t-55 52.5t-22.5 77.5t15.5 95.5t52 95.5t77 77.5t91.5 52.5t96.5 19.5zM351 77q30 7 59 27.5t52.5 50t39 66t20.5 74.5q4 38 -4 69t-26 52t-43.5 29.5
t-55.5 1.5q-31 -7 -59.5 -27.5t-51.5 -49.5t-38.5 -65.5t-19.5 -74.5q-5 -38 3 -69.5t25 -52t42.5 -29.5t56.5 -2zM669 773q7 -25 -11.5 -47.5t-52 -43t-76.5 -38t-85 -31.5t-78 -24.5t-54 -15.5q-11 -3 -19.5 0t-12 8.5t0 12t17.5 11.5q9 3 38.5 21.5t69 43t84 50.5
t82.5 43.5t65 22t32 -12.5z" />
    <glyph glyph-name="otilde" unicode="&#xf5;" horiz-adv-x="531" 
d="M388 486q48 0 83.5 -19.5t55.5 -52.5t22.5 -77.5t-15.5 -95.5t-52 -95.5t-77 -77.5t-92 -52.5t-97 -19.5t-83 19.5t-55 52.5t-22.5 77.5t15.5 95.5t52 95.5t77 77.5t91.5 52.5t96.5 19.5zM351 77q30 7 59 27.5t52.5 50t39 66t20.5 74.5q4 38 -4 69t-26 52t-43.5 29.5
t-55.5 1.5q-31 -7 -59.5 -27.5t-51.5 -49.5t-38.5 -65.5t-19.5 -74.5q-5 -38 3 -69.5t25 -52t42.5 -29.5t56.5 -2zM415 615q-41 19 -77 24t-65 -15q-15 -10 -28.5 -13.5t-18 -0.5t3.5 12t35 25q58 34 101.5 43.5t76 5t57 -18t43.5 -25.5t35 -17.5t33 6.5q7 6 18.5 8.5
t17.5 0.5t2 -9t-26 -20q-44 -29 -74.5 -37t-54 -4.5t-42 14.5t-37.5 21z" />
    <glyph glyph-name="Otilde" unicode="&#xd5;" horiz-adv-x="1089" 
d="M787 956q93 0 157.5 -47.5t96.5 -129t28.5 -191.5t-46.5 -235q-30 -83 -73 -160t-95.5 -144t-113 -121.5t-124 -94t-128 -61t-126.5 -21.5q-93 0 -158.5 47.5t-97.5 129t-28.5 191t47.5 234.5q29 83 72 160t96 144t113 122t124 94.5t129 61t127 21.5zM546 -105
q79 14 155.5 66t141 130t111 175t66.5 202q19 105 6.5 191.5t-51 145.5t-100 86.5t-139.5 13.5q-79 -14 -155.5 -66t-141 -130t-111.5 -175t-66 -202q-20 -104 -7 -190.5t51.5 -146t100 -87t139.5 -13.5zM801 1038q-41 19 -77 24t-65 -15q-15 -10 -28.5 -13.5t-18 -0.5
t3.5 12t35 25q58 34 101.5 43.5t76 5t57 -18t43.5 -25.5t35 -17.5t33 6.5q7 6 18.5 8.5t17.5 0.5t2 -9t-26 -20q-44 -29 -74.5 -37t-54 -4.5t-42 14.5t-37.5 21z" />
    <glyph glyph-name="slash" unicode="/" 
d="M584 518q51 50 80 74t37 26.5t-4.5 -14t-42.5 -46.5q-64 -64 -122.5 -123t-117 -117t-118.5 -118l-126 -126q-78 -79 -125 -121t-72 -61q-29 -23 -40 -25q96 93 190 187.5t178.5 181t157 159.5t125.5 123z" />
    <glyph glyph-name="Oslash" unicode="&#xd8;" horiz-adv-x="1089" 
d="M787 956q93 0 157.5 -47.5t96.5 -129t28.5 -191.5t-46.5 -235q-30 -83 -73 -160t-95.5 -144t-113 -121.5t-124 -94t-128 -61t-126.5 -21.5q-93 0 -158.5 47.5t-97.5 129t-28.5 191t47.5 234.5q29 83 72 160t96 144t113 122t124 94.5t129 61t127 21.5zM546 -105
q79 14 155.5 66t141 130t111 175t66.5 202q19 105 6.5 191.5t-51 145.5t-100 86.5t-139.5 13.5q-79 -14 -155.5 -66t-141 -130t-111.5 -175t-66 -202q-20 -104 -7 -190.5t51.5 -146t100 -87t139.5 -13.5zM1024.28 773.184q81.6758 73.666 128.119 109.026
q46.4443 35.3604 59.2559 39.043q12.8125 3.68359 -7.20703 -20.626q-20.0186 -24.3105 -68.0635 -68.5098q-102.496 -94.293 -196.184 -181.22q-93.6885 -86.9268 -187.376 -172.379q-93.6875 -85.4531 -189.777 -173.853l-201.79 -185.64
q-124.917 -116.393 -200.188 -178.272t-115.308 -89.873q-46.4434 -33.8867 -64.0605 -36.833q153.744 137.019 304.285 276.248t285.868 266.673q135.327 127.442 251.436 234.996q116.109 107.553 200.989 181.219z" />
    <glyph glyph-name="oslash" unicode="&#xf8;" horiz-adv-x="531" 
d="M388 486q48 0 83.5 -19.5t55.5 -52.5t22.5 -77.5t-15.5 -95.5t-52 -95.5t-77 -77.5t-92 -52.5t-97 -19.5t-83 19.5t-55 52.5t-22.5 77.5t15.5 95.5t52 95.5t77 77.5t91.5 52.5t96.5 19.5zM351 77q30 7 59 27.5t52.5 50t39 66t20.5 74.5q4 38 -4 69t-26 52t-43.5 29.5
t-55.5 1.5q-31 -7 -59.5 -27.5t-51.5 -49.5t-38.5 -65.5t-19.5 -74.5q-5 -38 3 -69.5t25 -52t42.5 -29.5t56.5 -2zM521.041 434.005q41.2227 40.9268 64.6621 60.5723q23.4404 19.6455 29.9072 21.6914q6.46582 2.0459 -3.6377 -11.46t-34.3516 -38.0615
q-51.7305 -52.3867 -99.0156 -100.681q-47.2852 -48.2949 -94.5703 -95.7695q-47.2842 -47.4756 -95.7812 -96.5879l-101.845 -103.137q-63.0469 -64.665 -101.036 -99.0439t-58.1973 -49.9307q-23.4395 -18.8271 -32.3311 -20.4639q77.5957 76.124 153.575 153.477
q75.9785 77.3525 144.279 148.156q68.2998 70.8037 126.901 130.558q58.6006 59.7539 101.44 100.681z" />
    <glyph glyph-name="Ugrave" unicode="&#xd9;" horiz-adv-x="900" 
d="M499 911q-4 -12 -20.5 -52t-40 -99.5t-52 -134t-56 -156.5t-51.5 -167t-40 -164.5t-21 -149.5t6 -122t40.5 -82.5t83.5 -30.5t106.5 32t102.5 87.5t97.5 129t90.5 156.5t81.5 171.5t71.5 172.5t59.5 160t45.5 134t30 94t13 41q4 12 9.5 17t10 4t6.5 -6.5t-1 -14.5
q-1 -3 -12.5 -42.5t-31.5 -104t-49 -150t-65.5 -180.5t-80.5 -195t-94 -194t-105.5 -178t-116.5 -146.5t-126 -99t-133 -36.5q-85 0 -134 38t-70.5 103t-19 152t20 184t47 199.5t61.5 199t63.5 181.5t53.5 147q5 15 27.5 39.5t51.5 48.5t60 44t53.5 26.5t32 -5.5t-4.5 -51z
M673 1205q23 26 49 28t52.5 -10.5t51.5 -35.5t47 -48t38.5 -48t25.5 -35q5 -7 4 -16.5t-5.5 -17t-11.5 -9.5t-14 6q-5 6 -28.5 16.5t-55.5 25t-65.5 32t-58.5 36.5t-35 38t6 38z" />
    <glyph glyph-name="ugrave" unicode="&#xf9;" horiz-adv-x="690" 
d="M770 186q12 0 9 -14q0 -1 -13 -14t-35 -32.5t-51 -42t-62 -41.5t-68 -32t-69 -13q-37 0 -55.5 18t-25 45t-4.5 58t5.5 58t6 45t-3.5 18q-40 -68 -81 -121q-18 -23 -38 -44.5t-41 -38.5t-43 -27.5t-43 -10.5q-35 0 -56 18t-31.5 48.5t-11 70.5t7 83.5t20.5 87.5t30 83
q16 36 41 63t47 41t36 13t7 -19q-11 -32 -21 -71t-16.5 -78.5t-9 -76.5t0 -65.5t11.5 -46t26 -17.5q32 0 64 27.5t62 69t57.5 90t51 90t42 69t31.5 27.5q16 0 22.5 -18t6.5 -48t-4.5 -67.5t-9 -77.5t-8 -77.5t-1.5 -67.5t11.5 -48t29.5 -18t40.5 8.5t37.5 19.5q19 12 36 28
l44 39q7 9 18 9zM292 748q23 26 49 28t52.5 -10.5t51.5 -35.5t47 -48t38.5 -48t25.5 -35q5 -7 4 -16.5t-5.5 -17t-11.5 -9.5t-14 6q-5 6 -28.5 16.5t-55.5 25t-65.5 32t-58.5 36.5t-35 38t6 38z" />
    <glyph glyph-name="uacute" unicode="&#xfa;" horiz-adv-x="690" 
d="M770 186q12 0 9 -14q0 -1 -13 -14t-35 -32.5t-51 -42t-62 -41.5t-68 -32t-69 -13q-37 0 -55.5 18t-25 45t-4.5 58t5.5 58t6 45t-3.5 18q-40 -68 -81 -121q-18 -23 -38 -44.5t-41 -38.5t-43 -27.5t-43 -10.5q-35 0 -56 18t-31.5 48.5t-11 70.5t7 83.5t20.5 87.5t30 83
q16 36 41 63t47 41t36 13t7 -19q-11 -32 -21 -71t-16.5 -78.5t-9 -76.5t0 -65.5t11.5 -46t26 -17.5q32 0 64 27.5t62 69t57.5 90t51 90t42 69t31.5 27.5q16 0 22.5 -18t6.5 -48t-4.5 -67.5t-9 -77.5t-8 -77.5t-1.5 -67.5t11.5 -48t29.5 -18t40.5 8.5t37.5 19.5q19 12 36 28
l44 39q7 9 18 9zM749 773q7 -25 -11.5 -47.5t-52 -43t-76.5 -38t-85 -31.5t-78 -24.5t-54 -15.5q-11 -3 -19.5 0t-12 8.5t0 12t17.5 11.5q9 3 38.5 21.5t69 43t84 50.5t82.5 43.5t65 22t32 -12.5z" />
    <glyph glyph-name="Uacute" unicode="&#xda;" horiz-adv-x="900" 
d="M499 911q-4 -12 -20.5 -52t-40 -99.5t-52 -134t-56 -156.5t-51.5 -167t-40 -164.5t-21 -149.5t6 -122t40.5 -82.5t83.5 -30.5t106.5 32t102.5 87.5t97.5 129t90.5 156.5t81.5 171.5t71.5 172.5t59.5 160t45.5 134t30 94t13 41q4 12 9.5 17t10 4t6.5 -6.5t-1 -14.5
q-1 -3 -12.5 -42.5t-31.5 -104t-49 -150t-65.5 -180.5t-80.5 -195t-94 -194t-105.5 -178t-116.5 -146.5t-126 -99t-133 -36.5q-85 0 -134 38t-70.5 103t-19 152t20 184t47 199.5t61.5 199t63.5 181.5t53.5 147q5 15 27.5 39.5t51.5 48.5t60 44t53.5 26.5t32 -5.5t-4.5 -51z
M1048 1217q7 -25 -11.5 -47.5t-52 -43t-76.5 -38t-85 -31.5t-78 -24.5t-54 -15.5q-11 -3 -19.5 0t-12 8.5t0 12t17.5 11.5q9 3 38.5 21.5t69 43t84 50.5t82.5 43.5t65 22t32 -12.5z" />
    <glyph glyph-name="Yacute" unicode="&#xdd;" horiz-adv-x="985" 
d="M1276 948q40 6 62 3.5t27.5 -10.5t-4.5 -19t-34 -23q-49 -6 -109 -47.5t-127 -108t-139.5 -153t-144.5 -182.5t-142.5 -197t-134 -196.5t-118.5 -180.5t-96.5 -150t-67.5 -104t-32 -43q-15 -9 -35.5 -11.5t-40 -1t-35 6.5t-18.5 12q-2 3 13 30t41 68.5t59.5 93.5
t69.5 106q84 126 191 283q-30 216 -56 390q-11 74 -21.5 146t-19 130.5t-14.5 97t-7 45.5q-3 15 2 24.5t13 13t18 0t17 -15.5q5 -9 11.5 -45.5t14 -90.5t15 -120t15.5 -134.5t15 -135t13.5 -121.5t11.5 -92.5t8 -48.5q98 165 186.5 286t166 206.5t143.5 139.5t120 86
t95 45.5t68 17.5zM965 973q7 -25 -11.5 -47.5t-52 -43t-76.5 -38t-85 -31.5t-78 -24.5t-54 -15.5q-11 -3 -19.5 0t-12 8.5t0 12t17.5 11.5q9 3 38.5 21.5t69 43t84 50.5t82.5 43.5t65 22t32 -12.5z" />
    <glyph glyph-name="yacute" unicode="&#xfd;" horiz-adv-x="571" 
d="M523 168q-15 -116 -51.5 -199.5t-85 -138.5t-105.5 -84t-113 -37t-107 2.5t-89 35.5q-37 24 -45.5 54.5t4.5 64.5t44.5 70.5t74 73.5t93 73t102.5 69q28 18 44 26.5t23 11t6.5 0t-5.5 -8.5q-11 -13 -45 -41l68 37q3 1 -13 -12t-37 -29l-56 -42q-43 -18 -85.5 -45.5
t-77 -59t-56.5 -63.5t-24.5 -57.5t17.5 -41.5t71 -16q79 0 134 37.5t93.5 98.5t65.5 138t51 156q-40 -45 -81 -80q-18 -15 -38 -29t-41 -25.5t-43 -18t-43 -6.5q-66 0 -91 32t-16.5 84.5t47 118t101.5 133.5q24 25 41.5 34.5t24.5 4.5t2 -24t-26 -51q-42 -62 -50 -105
t2 -69.5t32 -38.5t40 -12q33 0 62.5 21.5t55 54t47.5 70.5t41 70.5t34.5 54t28.5 21.5q9 0 13 -13.5t4 -35.5t-3 -50.5t-8 -57.5q-11 -69 -32 -156zM689 773q7 -25 -11.5 -47.5t-52 -43t-76.5 -38t-85 -31.5t-78 -24.5t-54 -15.5q-11 -3 -19.5 0t-12 8.5t0 12t17.5 11.5
q9 3 38.5 21.5t69 43t84 50.5t82.5 43.5t65 22t32 -12.5z" />
    <glyph glyph-name="endash" unicode="&#x2013;" 
d="M444 326q27 -2 35.5 -21.5t4.5 -42t-17 -41t-29 -18.5h-67t-63.5 0.5t-64 0.5h-68.5q-43 0 -61.5 19t-23.5 42q-6 26 1 61q50 -5 101 -4.5t98 2.5t87 3.5t67 -1.5z" />
    <glyph glyph-name="emdash" unicode="&#x2014;" 
d="M444 326q27 -2 35.5 -21.5t4.5 -42t-17 -41t-29 -18.5h-67t-63.5 0.5t-64 0.5h-68.5q-43 0 -61.5 19t-23.5 42q-6 26 1 61q50 -5 101 -4.5t98 2.5t87 3.5t67 -1.5z" />
    <glyph glyph-name="underscore" unicode="_" 
d="M359 -12q27 -2 36 -21.5t5.5 -42t-16.5 -41t-29 -18.5h-67t-63.5 0.5t-64 0.5h-68.5q-43 0 -61.5 19t-23.5 42q-6 26 -1 61q50 -5 101.5 -4.5t98.5 2.5t87 3.5t66 -1.5z" />
    <glyph glyph-name="macron" unicode="&#xaf;" 
d="M637 659q27 -2 36 -17.5t6 -32.5t-15.5 -31t-28.5 -14h-67t-63.5 0.5t-64 0.5h-68.5q-43 0 -62 14.5t-25 32.5q-7 20 -1 47q49 -5 100 -4.5t98.5 2.5t87.5 3.5t67 -1.5z" />
    <glyph glyph-name="macron" unicode="&#x2c9;" 
d="M637 659q27 -2 36 -17.5t6 -32.5t-15.5 -31t-28.5 -14h-67t-63.5 0.5t-64 0.5h-68.5q-43 0 -62 14.5t-25 32.5q-7 20 -1 47q49 -5 100 -4.5t98.5 2.5t87.5 3.5t67 -1.5z" />
    <glyph glyph-name="ampersand" unicode="&#x26;" horiz-adv-x="963" 
d="M803 686q7 18 19.5 34t28.5 27.5t34.5 18.5t36.5 7q20 0 35 -9q6 27 6.5 56t-14 52t-46.5 38t-90 15q-46 0 -90 -23.5t-82.5 -61.5t-70 -86.5t-51.5 -99.5t-27 -99t3.5 -85.5t40.5 -60t83 -20.5q24 0 33.5 -7t6.5 -15t-17 -15t-35 -7q-76 0 -141 -27.5t-117 -72
t-90.5 -101.5t-60 -116.5t-26 -116.5t10.5 -101.5t51.5 -72t95.5 -27.5q44 0 86 21.5t79.5 55.5t70 75t57.5 79.5t41.5 70t23.5 45.5q9 21 18.5 30.5t15.5 7.5t5.5 -15.5t-12.5 -38.5q-8 -16 -28.5 -53t-51.5 -82t-71 -93.5t-87 -88.5t-99 -65.5t-106 -25.5q-87 0 -150 33
t-95.5 89.5t-33.5 132t35 161.5t111.5 178t194.5 181q-31 74 -21.5 144.5t46 132.5t94 113.5t124 88.5t134.5 57.5t126 20.5q54 0 87.5 -14.5t52.5 -37t25 -51.5t4 -58.5t-9.5 -56t-15.5 -45.5q-1 -4 -1 -7.5t-3 -8.5q-6 -18 -18.5 -33.5t-28 -27.5t-34 -18.5t-36.5 -6.5
q-36 0 -52.5 25t-4.5 61zM473 365q-5 4 6 6.5t32.5 4.5t49 4.5t55.5 7.5t52.5 13.5t40.5 22.5q47 44 86 78.5t61 43t22.5 -17.5t-29.5 -102q27 -6 52.5 -13.5t46 -15t35 -13t19.5 -5.5q8 0 15 2.5t13 5t11 3t10 -3.5q4 -4 2 -9.5t-14 -15.5t-36.5 -26.5t-64.5 -41.5
q-33 -21 -68 -19t-70 15q-11 -37 -20.5 -70t-16.5 -61q-15 -76 -6.5 -122.5t42.5 -46.5q17 0 42.5 14t49.5 31q28 19 58 45q7 5 13 9q13 7 19 1q7 -8 0 -14t-11 -10q-2 -1 -14.5 -14t-33 -30.5t-48 -38t-58.5 -38t-64.5 -29t-65.5 -11.5t-51.5 14.5t-29 37t-11.5 51
t1.5 56.5t9 53.5t11.5 41.5t23.5 66.5t41.5 116.5q-8 2 -29.5 4t-46 3t-45.5 0.5t-27 -1.5q-36 -10 -48.5 -9.5t-13.5 5t2.5 11.5t-0.5 11z" />
    <glyph glyph-name="uni00AD" unicode="&#xad;" horiz-adv-x="443" 
d="M154 320h356l-16 -45h-356z" />
    <glyph glyph-name="cacute" unicode="&#x107;" horiz-adv-x="522" 
d="M586 186q10 9 16 10t8.5 -3t1 -10t-5.5 -10q-3 -3 -22.5 -17.5t-50.5 -34t-70 -41.5t-82 -40.5t-86 -30.5t-82 -12q-59 0 -93 24t-49 60t-13.5 79t15.5 81q13 39 44 84t74 83.5t96 64t110 25.5q32 0 55 -10t37.5 -26.5t19 -37.5t-1.5 -43q-5 -16 -12.5 -32t-17.5 -30
t-22.5 -24.5t-27.5 -16.5q-14 -7 -30 -7q-23 0 -33 15.5t-2 38.5t30 39t45 16q21 0 30 -14q3 10 5 27t-3.5 33.5t-22 29t-51.5 12.5q-34 0 -65.5 -29.5t-55 -74t-36 -96.5t-8.5 -96.5t27.5 -74t72.5 -29.5q29 0 68 12q33 11 80.5 34.5t107.5 71.5zM731 751
q7 -25 -11.5 -47.5t-52 -43t-76.5 -38t-85 -31.5t-78 -24.5t-54 -15.5q-11 -3 -19.5 0t-12 8.5t0 12t17.5 11.5q9 3 38.5 21.5t69 43t84 50.5t82.5 43.5t65 22t32 -12.5z" />
    <glyph glyph-name="gcircumflex" unicode="&#x11d;" horiz-adv-x="560" 
d="M500 82q-15 -116 -51.5 -199.5t-85 -138.5t-105.5 -84t-113 -37t-107.5 2.5t-88.5 35.5q-31 20 -42 45t-5.5 52.5t25 57.5t49 60.5t67 61.5t78.5 61q-53 9 -70.5 49t-3 96.5t59.5 121.5t117 122q54 44 105.5 66t96.5 30q40 7 73 4.5t54.5 -9.5t30 -16.5t1.5 -16.5
q-10 -8 -15.5 -7t-14.5 5.5t-25 9.5t-46 5q-28 0 -61 -12.5t-65.5 -34t-62 -50.5t-50.5 -61q-31 -48 -40 -84.5t-3.5 -62t21.5 -38.5t34 -13q34 0 63 20t54 49.5t46 64t39 64t33 49t28 19.5q9 0 13.5 -12.5t4.5 -32.5t-2.5 -46t-6.5 -53q-10 -63 -29 -143zM397 155
q-27 -31 -58 -59q-26 -24 -59.5 -48t-69.5 -38l-2 -2q-44 -17 -86.5 -45t-77 -59t-56.5 -63t-24.5 -58t18 -42t71.5 -16q79 0 133.5 37.5t93.5 98.5t66 138t51 156zM697 599q-9 -14 -31 -26.5t-47 -20.5t-47.5 -10t-31.5 5q-9 6 -21 27t-24.5 44t-24 41t-19.5 18t-29.5 -17
t-46 -36.5t-46.5 -33.5t-31 -7q-6 4 6 19.5t35 36t52 43.5t56.5 42.5t50 32t30.5 12.5t25.5 -10t38.5 -25.5t42 -34.5t37 -38t24 -35.5t2 -26.5z" />
    <glyph glyph-name="ubreve" unicode="&#x16d;" horiz-adv-x="690" 
d="M412 657q-11 -28 -1 -47.5t33 -19.5t46 19.5t34 47.5l2 8h22q-8 -21 -22.5 -40t-33.5 -33.5t-41 -22.5t-43 -8q-43 0 -63 30.5t-5 73.5h74q-2 -6 -2 -8zM770 186q12 0 9 -14q0 -1 -13 -14t-35 -32.5t-51 -42t-62 -41.5t-68 -32t-69 -13q-37 0 -55.5 18t-25 45t-4.5 58
t5.5 58t6 45t-3.5 18q-40 -68 -81 -121q-18 -23 -38 -44.5t-41 -38.5t-43 -27.5t-43 -10.5q-35 0 -56 18t-31.5 48.5t-11 70.5t7 83.5t20.5 87.5t30 83q16 36 41 63t47 41t36 13t7 -19q-11 -32 -21 -71t-16.5 -78.5t-9 -76.5t0 -65.5t11.5 -46t26 -17.5q32 0 64 27.5t62 69
t57.5 90t51 90t42 69t31.5 27.5q16 0 22.5 -18t6.5 -48t-4.5 -67.5t-9 -77.5t-8 -77.5t-1.5 -67.5t11.5 -48t29.5 -18t40.5 8.5t37.5 19.5q19 12 36 28l44 39q7 9 18 9z" />
    <glyph glyph-name="uni1E02" unicode="&#x1e02;" horiz-adv-x="1080" 
d="M571 1055q10 29 37 50.5t58 22.5q29 1 42.5 -19.5t3.5 -49.5t-36.5 -50t-55.5 -22q-31 -1 -45 19t-4 49zM848 468q119 -76 158 -171q16 -41 17 -89.5t-25.5 -104.5t-85.5 -118.5t-162 -130.5q-92 -60 -171 -95.5t-146.5 -52t-124.5 -16.5t-104 12t-85 32.5t-68 45.5
q-24 -72 -45.5 -134.5t-37 -110t-25.5 -78t-11 -38.5q-5 -25 -17 -43t-22.5 -19t-14.5 20t9 74q3 16 13 50.5t26 83t36.5 108.5t43.5 128q-33 36 -52.5 67.5t-30.5 43.5q-17 21 -37 43t-34.5 42.5t-19.5 38t9 29.5q12 9 32 0.5t46 -30.5t58 -55.5t67 -72.5q31 88 63.5 181
t64 181.5t60.5 169.5t53 147q-59 -26 -116.5 -50t-111.5 -43.5t-103.5 -33t-91.5 -19.5q-84 -11 -138.5 2t-86.5 38t-45 58.5t-14 63.5t7 52.5t19 27.5q6 3 13 0q6 -2 14.5 -10t19.5 -27q19 -25 61 -30.5t97 2.5t118.5 26t127.5 41t123.5 48t105.5 47q47 21 103 48.5
t116.5 51.5t123.5 41t123 17t115 -20.5t101 -70.5q34 -38 47.5 -75t12 -72.5t-15.5 -67.5t-34 -60q-47 -65 -128 -123zM930 792q-8 24 -35 31t-68.5 0t-95 -25.5t-115 -44.5t-130 -56.5t-138.5 -61.5q-15 -46 -35 -101t-40 -116q28 4 73.5 15.5t100.5 28.5t115.5 39.5
t117.5 48.5t107.5 55.5t86 60.5t51.5 63t5 63zM86 -117q44 -36 115 -50.5t154 -8t170.5 32.5t165.5 71.5t138 108.5t89 144q24 68 13 110t-47 63.5t-92 26t-121 -2t-133.5 -21.5t-130.5 -32t-111.5 -33t-76.5 -26q-33 -95 -66.5 -192.5t-66.5 -190.5z" />
    <glyph glyph-name="asciitilde" unicode="~" horiz-adv-x="667" 
d="M483 615q-41 19 -77 24t-65 -15q-15 -10 -28.5 -13.5t-18 -0.5t3.5 12t35 25q58 34 101.5 43.5t76 5t57 -18t43.5 -25.5t35 -17.5t33 6.5q7 6 18.5 8.5t17.5 0.5t2 -9t-26 -20q-44 -29 -74.5 -37t-54 -4.5t-42 14.5t-37.5 21z" />
    <glyph glyph-name="asciicircum" unicode="^" horiz-adv-x="517" 
d="M665 599q-9 -14 -31 -26.5t-47 -20.5t-47.5 -10t-31.5 5q-9 6 -21 27t-24.5 44t-24 41t-19.5 18t-29.5 -17t-46 -36.5t-46.5 -33.5t-31 -7q-6 4 6 19.5t35 36t52 43.5t56.5 42.5t50 32t30.5 12.5t25.5 -10t38.5 -25.5t42 -34.5t37 -38t24 -35.5t2 -26.5z" />
    <glyph glyph-name="colon" unicode=":" horiz-adv-x="210" 
d="M113 161q5 15 15 28t23 23t27.5 16t29.5 6q29 1 42.5 -19.5t5.5 -49.5q-10 -29 -37.5 -50t-56.5 -22t-44 19t-5 49zM201 411q5 15 15 28t23 23t27.5 16t29.5 6q29 1 43.5 -19.5t4.5 -49.5t-37.5 -50t-56.5 -22t-44 19t-5 49z" />
    <glyph glyph-name="semicolon" unicode=";" horiz-adv-x="210" 
d="M201 411q5 15 15 28t23 23t27.5 16t29.5 6q29 1 43.5 -19.5t4.5 -49.5t-37.5 -50t-56.5 -22t-44 19t-5 49zM117 174q7 14 19 26t26 20t29 11.5t29 1.5q27 -4 37.5 -27.5t-4.5 -52.5q-9 -24 -25.5 -47.5t-34.5 -43t-35 -34t-27 -22.5q-11 -8 -20 -8.5t-13 4.5t-1.5 14
t16.5 20q16 12 19 29.5t4 32.5q-20 8 -26 29t7 47z" />
    <glyph glyph-name="fraction" unicode="&#x2044;" horiz-adv-x="500" 
d="M635 631q51 50 80 74t37 26.5t-4.5 -14t-42.5 -46.5q-64 -64 -122.5 -123t-117 -117t-119 -118t-127.5 -126q-79 -79 -125.5 -121t-70.5 -61q-29 -23 -39 -25q96 93 190 187.5t178.5 181t157 159.5t125.5 123z" />
    <glyph glyph-name="fraction" unicode="&#x2215;" horiz-adv-x="500" 
d="M635 631q51 50 80 74t37 26.5t-4.5 -14t-42.5 -46.5q-64 -64 -122.5 -123t-117 -117t-119 -118t-127.5 -126q-79 -79 -125.5 -121t-70.5 -61q-29 -23 -39 -25q96 93 190 187.5t178.5 181t157 159.5t125.5 123z" />
    <glyph glyph-name="percent" unicode="%" horiz-adv-x="500" 
d="M227 593q7 21 22 40t34 33.5t41 22.5t43 8q43 0 63 -30.5t5 -73.5q-8 -21 -22.5 -40t-33.5 -33.5t-41 -22.5t-43 -8q-43 0 -63 30.5t-5 73.5zM299 585q-11 -28 -1 -47.5t33 -19.5t46 19.5t34 47.5q9 28 -1 47.5t-33 19.5t-46 -19.5t-32 -47.5zM313 128q7 21 22 40
t34 33.5t41 22.5t43 8q43 0 63 -30.5t5 -73.5q-8 -21 -22.5 -40t-33.5 -33.5t-41 -22.5t-43 -8q-43 0 -63 30.5t-5 73.5zM385 120q-11 -28 -1 -47.5t33 -19.5t46 19.5t34 47.5q9 28 -1 47.5t-33 19.5t-46 -19.5t-32 -47.5zM635 631q51 50 80 74t37 26.5t-4.5 -14
t-42.5 -46.5q-64 -64 -122.5 -123t-117 -117t-119 -118t-127.5 -126q-79 -79 -125.5 -121t-70.5 -61q-29 -23 -39 -25q96 93 190 187.5t178.5 181t157 159.5t125.5 123z" />
    <glyph glyph-name="perthousand" unicode="&#x2030;" horiz-adv-x="633" 
d="M227 593q7 21 22 40t34 33.5t41 22.5t43 8q43 0 63 -30.5t5 -73.5q-8 -21 -22.5 -40t-33.5 -33.5t-41 -22.5t-43 -8q-43 0 -63 30.5t-5 73.5zM299 585q-11 -28 -1 -47.5t33 -19.5t46 19.5t34 47.5q9 28 -1 47.5t-33 19.5t-46 -19.5t-32 -47.5zM313 128q7 21 22 40
t34 33.5t41 22.5t43 8q43 0 63 -30.5t5 -73.5q-8 -21 -22.5 -40t-33.5 -33.5t-41 -22.5t-43 -8q-43 0 -63 30.5t-5 73.5zM385 120q-11 -28 -1 -47.5t33 -19.5t46 19.5t34 47.5q9 28 -1 47.5t-33 19.5t-46 -19.5t-32 -47.5zM452 129q7 21 22.5 40t35 33.5t41.5 22.5t43 8
q43 0 62 -30.5t4 -73.5q-8 -21 -22.5 -40t-33.5 -33.5t-41 -22.5t-43 -8q-43 0 -63 30.5t-5 73.5zM524 121q-11 -28 -1 -47.5t33 -19.5t46 19.5t34 47.5q9 28 0 47.5t-32 19.5t-47 -19.5t-33 -47.5zM635 631q51 50 80 74t37 26.5t-4.5 -14t-42.5 -46.5q-64 -64 -122.5 -123
t-117 -117t-119 -118t-127.5 -126q-79 -79 -125.5 -121t-70.5 -61q-29 -23 -39 -25q96 93 190 187.5t178.5 181t157 159.5t125.5 123z" />
    <glyph glyph-name="plus" unicode="+" 
d="M444 326q27 -2 35.5 -21.5t4.5 -42t-17 -41t-29 -18.5h-67t-63.5 0.5t-64 0.5h-68.5q-43 0 -61.5 19t-23.5 42q-6 26 1 61q50 -5 101 -4.5t98 2.5t87 3.5t67 -1.5zM278 404q12 28 37 43.5t48.5 19.5t39.5 -2.5t10 -22.5q-12 -35 -23.5 -67t-22.5 -63.5t-22.5 -64
t-24.5 -68.5q-15 -43 -43 -68t-56 -39q-33 -16 -69 -21q24 51 42 102.5t32.5 98t27 85.5t24.5 67z" />
    <glyph glyph-name="multiply" unicode="&#xd7;" horiz-adv-x="456" 
d="M391 405q27 18 51 15t38 -16t16.5 -30.5t-13.5 -28.5q-33 -25 -63.5 -47.5t-60.5 -44.5t-61.5 -45t-65.5 -48q-42 -31 -74.5 -35t-55.5 3q-27 8 -48 28q51 33 100 69t92.5 70.5t80.5 63t64 46.5zM169 323q-7 14 -3 30t13.5 31.5t23 28.5t27 20.5t25 9t16.5 -5.5
q31 -50 58.5 -93t60.5 -94q19 -30 12.5 -61t-22.5 -57q-18 -30 -48 -58q-19 40 -43 75.5t-47.5 67t-43 58.5t-29.5 48z" />
    <glyph glyph-name="dollar" unicode="$" horiz-adv-x="1186" 
d="M489 284q-76 24 -131.5 48t-88 54t-41 69t10.5 93q19 53 67.5 93t112 67.5t134 42.5t132.5 18q-1 6 2 16q5 13 15.5 21.5t23.5 8.5t19 -8.5t1 -21.5q-3 -8 -10 -15q58 -2 101 -14t70.5 -31.5t39 -44.5t6.5 -53q-5 -29 -18.5 -48.5t-31 -32.5t-36.5 -18.5t-35 -5.5
q-25 0 -36 17t-3 37q8 21 30.5 38t49.5 17q10 0 18.5 -3.5t15.5 -8.5q8 -5 14 -12q16 40 0 72q-7 13 -21 26.5t-38.5 23.5t-61.5 16.5t-89 6.5q-67 0 -132 -14t-115.5 -37.5t-80 -54t-24.5 -63t51 -64.5t145 -59q8 8 18 13.5t21 5.5q15 0 22.5 -10.5t3.5 -25.5
q63 -18 111.5 -42t77 -55.5t35.5 -72.5t-12 -93q-20 -56 -58.5 -97t-91 -68t-116 -40t-132.5 -14q4 -7 1 -21q-5 -12 -16 -21t-24 -9t-18.5 9t-0.5 21q6 14 17 22q-65 3 -120 17.5t-92.5 38t-54 55.5t-2.5 70q7 22 22 35t32 18.5t34 3.5t28 -11q10 -8 9.5 -25t-10.5 -35
t-30 -34.5t-48 -23.5q4 -18 28 -34t59 -29t75.5 -20.5t77.5 -7.5q61 0 117.5 13.5t99.5 35.5t67 51t20.5 60.5t-39.5 63t-113 59.5q-8 -10 -20 -15.5t-23 -5.5q-16 0 -22.5 10.5t-0.5 26.5z" />
    <glyph glyph-name="Euro" unicode="&#x20ac;" horiz-adv-x="529" 
d="M542 406q27 -2 35.5 -21.5t4.5 -42t-17 -41t-29 -18.5h-66.5t-63 0.5t-63.5 0.5h-68q-43 0 -62 19t-24 42q-6 26 0 61q50 -5 101 -4.5t98 2.5t87 3.5t67 -1.5zM492 266q27 -2 36 -21.5t5.5 -42t-16.5 -41t-29 -18.5h-67t-63.5 0.5t-64 0.5h-68.5q-43 0 -62 19t-24 42
q-6 26 0 61q50 -5 101.5 -4.5t98.5 2.5t87 3.5t66 -1.5zM670 96q12 14 22 19.5t14.5 4t1.5 -10t-16 -23.5q-10 -10 -28 -30t-43.5 -44.5t-58.5 -50.5t-73.5 -48.5t-88 -38t-101.5 -19.5q-81 -6 -130.5 29.5t-72.5 94.5t-22 135t22 151q14 50 42.5 106.5t68.5 112t89.5 106
t105.5 90.5t117.5 65.5t124.5 30.5q77 6 124.5 -12t72 -46.5t29.5 -61t-2 -57.5q-1 -5 -2 -8t-1 -6q-1 -2 -1 -3.5t-2 -3.5q-3 -14 -12 -26t-20.5 -22t-25.5 -16t-27 -7q-27 -2 -41.5 16t-6.5 45q7 28 32 48t52 22q19 2 30 -5q-2 21 -11.5 44t-30.5 41.5t-56 29t-90 6.5
q-53 -4 -106.5 -42.5t-102 -99t-89 -136t-68.5 -153t-40 -151t-3.5 -130t41 -89t93.5 -27.5q53 4 102 27t88 51.5t65.5 55t34.5 36.5z" />
    <glyph glyph-name="yen" unicode="&#xa5;" horiz-adv-x="741" 
d="M1100 955q33 5 51 3t22.5 -8.5t-4 -15.5t-27.5 -19q-40 -5 -89 -38.5t-103.5 -87.5t-113 -124t-117 -148.5t-115.5 -160.5t-109 -159.5t-96.5 -146.5t-78 -122t-54.5 -84.5t-26 -34.5q-13 -7 -30 -9.5t-33 -1t-28 5.5t-14 10q-2 3 10.5 24.5t33.5 55.5t48.5 76t56.5 86
q68 102 155 230q-26 176 -46 317q-9 60 -17.5 118.5t-15.5 105.5t-11.5 78.5t-5.5 37.5q-3 12 1 20t10.5 10.5t14.5 -0.5t14 -12q4 -8 10 -37.5t12 -73t12 -97.5t12.5 -109.5t12 -109.5t10.5 -98.5t9 -75t6 -39.5q80 134 152 232t135 167.5t117 113.5t97.5 70t76.5 37t55 14
zM560 280q22 -2 28.5 -18t3.5 -34t-13.5 -33t-23.5 -15q-57 0 -106.5 0.5t-107.5 0.5q-35 0 -50 15t-19 34q-5 22 1 50q40 -4 82 -3.5t80 2t70.5 2.5t54.5 -1zM520 166q22 -2 28.5 -18t3.5 -34t-13.5 -33t-23.5 -15q-57 0 -106.5 0.5t-107.5 0.5q-35 0 -50 15t-19 34
q-5 22 1 50q40 -4 82 -3.5t80 2t70.5 2.5t54.5 -1z" />
    <glyph glyph-name="sterling" unicode="&#xa3;" horiz-adv-x="441" 
d="M1006 -81q-80 12 -189.5 12.5t-233 -6t-251.5 -18.5t-245 -24q-34 -99 -55.5 -163.5t-23.5 -77.5q-4 -25 -16 -43t-23 -19t-15 20t8 74q5 22 22 74.5t42 127.5q-65 -7 -123.5 -13.5t-105.5 -11.5t-82 -8t-53 -3q-53 0 -75.5 16.5t-22.5 40t19 48.5t51 43q15 8 56.5 16
t101.5 15t135 13t156 11q53 210 110 357t114 243.5t112 149.5t104 77q115 55 226 -14q23 -18 25.5 -33t-6.5 -23.5t-24.5 -8.5t-28.5 13q-28 27 -64 39t-79 -4t-92.5 -65t-103.5 -142.5t-112.5 -237t-119.5 -348.5q92 5 185 8t175.5 4.5t149 0t105.5 -5.5q77 -8 125 -30
t75 -45q32 -27 47 -59zM540 526q27 -2 36 -21.5t5.5 -42t-16.5 -41t-29 -18.5h-67t-63.5 0.5t-64 0.5h-68.5q-43 0 -62 19t-24 42q-6 26 0 61q50 -5 101 -4.5t98 2.5t87 3.5t67 -1.5z" />
    <glyph glyph-name="mu" unicode="&#xb5;" horiz-adv-x="690" 
d="M770 186q12 0 9 -14q0 -1 -13 -14t-35 -32.5t-51 -42t-62 -41.5t-68 -32t-69 -13q-37 0 -55.5 18t-25 45t-4.5 58t5.5 58t6 45t-3.5 18q-40 -68 -81 -121q-18 -23 -38 -44.5t-41 -38.5t-43 -27.5t-43 -10.5q-32 0 -53 16q-5 -17 -10 -35t-13 -38q-23 -67 -56 -106
t-64 -60q-36 -25 -74 -33q26 63 52 135.5t51 145.5t48 141.5t42 123.5q7 26 16 52t20 49q16 36 41 63t47 41t36 13t7 -19q-11 -32 -21 -71t-16.5 -78.5t-9 -76.5t0 -65.5t11.5 -46t26 -17.5q32 0 64 27.5t62 69t57.5 90t51 90t42 69t31.5 27.5q16 0 22.5 -18t6.5 -48
t-4.5 -67.5t-9 -77.5t-8 -77.5t-1.5 -67.5t11.5 -48t29.5 -18t40.5 8.5t37.5 19.5q19 12 36 28l44 39q7 9 18 9z" />
    <glyph glyph-name="mu" unicode="&#x3bc;" horiz-adv-x="690" 
d="M770 186q12 0 9 -14q0 -1 -13 -14t-35 -32.5t-51 -42t-62 -41.5t-68 -32t-69 -13q-37 0 -55.5 18t-25 45t-4.5 58t5.5 58t6 45t-3.5 18q-40 -68 -81 -121q-18 -23 -38 -44.5t-41 -38.5t-43 -27.5t-43 -10.5q-32 0 -53 16q-5 -17 -10 -35t-13 -38q-23 -67 -56 -106
t-64 -60q-36 -25 -74 -33q26 63 52 135.5t51 145.5t48 141.5t42 123.5q7 26 16 52t20 49q16 36 41 63t47 41t36 13t7 -19q-11 -32 -21 -71t-16.5 -78.5t-9 -76.5t0 -65.5t11.5 -46t26 -17.5q32 0 64 27.5t62 69t57.5 90t51 90t42 69t31.5 27.5q16 0 22.5 -18t6.5 -48
t-4.5 -67.5t-9 -77.5t-8 -77.5t-1.5 -67.5t11.5 -48t29.5 -18t40.5 8.5t37.5 19.5q19 12 36 28l44 39q7 9 18 9z" />
    <glyph glyph-name="cent" unicode="&#xa2;" horiz-adv-x="522" 
d="M214 -3h-1q-59 0 -93 24t-49 60t-13.5 79t15.5 81q13 37 41.5 79.5t68.5 80t89.5 64.5t103.5 32q1 2 1 4.5t2 5.5q5 11 15 19t21 8t16.5 -8t0.5 -19q-2 -3 -3.5 -6t-3.5 -5q25 -5 42.5 -16t28 -27t13.5 -34.5t-2 -37.5q-5 -16 -12.5 -32t-17.5 -30t-22.5 -24.5
t-27.5 -16.5q-14 -7 -30 -7q-23 0 -33 15.5t-2 38.5t30 39t45 16q21 0 30 -14q2 9 4.5 24t-1 30.5t-15.5 28.5t-38 17l-2 -2q-3 -10 -12.5 -16.5t-19.5 -6.5t-14 6t-1 15q-24 -9 -46 -32t-40 -54t-31 -67t-18 -72t-2 -68.5t17 -56.5q15 13 31 13q13 0 18.5 -9t0.5 -22
q-2 -8 -11 -17q18 -9 43 -9q29 0 68 12q33 11 80.5 34.5t107.5 71.5q10 9 16 10t8.5 -3t1 -10t-5.5 -10q-3 -3 -19 -15t-41.5 -28.5t-58.5 -36t-70 -37.5t-76.5 -32.5t-76.5 -21.5q0 -2 0.5 -4.5t-1.5 -5.5q-3 -11 -13 -18.5t-21 -7.5t-15.5 7.5t-1.5 18.5z" />
    <glyph glyph-name="asterisk" unicode="*" horiz-adv-x="307" 
d="M315 442q15 13 31 15t27 -3t15.5 -14.5t-4.5 -17.5q-35 -36 -65.5 -66.5l-67.5 -67.5q-21 -23 -41 -30t-35 -6q-18 1 -34 9q27 25 52.5 51t47.5 50.5t41 45t33 34.5zM198 384q-7 12 -0.5 27t18.5 27t24.5 17.5t17.5 -1.5q20 -29 37 -54t40 -54q12 -18 8.5 -36.5
t-12.5 -34.5q-11 -18 -27 -36q-12 24 -28 45t-31 39t-27.5 33.5t-19.5 27.5zM367 398q16 1 22.5 -10t5.5 -24.5t-7.5 -25t-16.5 -11.5q-44 -5 -81.5 -8.5t-82.5 -7.5q-27 -3 -39.5 6.5t-17.5 22.5q-5 15 -3 35q31 0 63 3.5t61 8t54 8t42 3.5z" />
    <glyph glyph-name="less" unicode="&#x3c;" horiz-adv-x="286" 
d="M354 464q13 -3 19.5 -21t6.5 -40.5t-6 -44t-16 -33.5q-7 -7 -22 -18.5t-34 -24.5t-39.5 -27.5t-38.5 -27t-30 -22.5t-14 -15q-3 -8 8.5 -23.5t25 -33t21 -34.5t-2.5 -28q-7 -8 -19.5 -1t-28 22.5t-31 36.5t-27.5 41.5t-18.5 38.5t-3.5 26t20 29t42 47.5t54 54.5t56 50.5
t48 36t30 11.5z" />
    <glyph glyph-name="greater" unicode="&#x3e;" horiz-adv-x="286" 
d="M254 467q10 2 22 -12t22.5 -36.5t20 -51t16 -54.5t9 -47.5t-0.5 -29.5t-22 -26t-46 -39t-57.5 -42.5t-57 -36.5t-44.5 -22t-19 1q-3 11 17 28t45.5 34.5t48.5 33t26 24.5q3 8 -9 26t-27.5 39t-30 40.5t-16.5 30.5q-2 12 7.5 34t25.5 44.5t35 40.5t35 21z" />
    <glyph glyph-name="florin" unicode="&#x192;" horiz-adv-x="456" 
d="M104 -169q-11 -23 -36 -48t-58.5 -49t-71 -46.5t-71.5 -40.5t-61.5 -29.5t-41.5 -14.5t-10 4.5t33 28.5q51 36 92.5 97t77 138t67.5 166t63.5 182.5t63.5 187.5t69.5 180t81 160.5t97 129t118.5 85t145 29.5q38 -1 42.5 -27t-14 -70t-56.5 -101.5t-85 -119.5
t-99.5 -124.5t-99.5 -116.5q11 8 22.5 14t22.5 12q25 13 54.5 7t56 -18t46.5 -24t26 -13q6 0 10.5 2.5t8.5 5t7 3t5 -3.5q3 -4 1 -9.5t-11 -15.5t-26.5 -26.5t-47.5 -41.5q-20 -17 -38.5 -18t-36 6.5t-34.5 20t-33 24t-30.5 18.5t-28.5 2q-24 -9 -38 -23q-35 -92 -65 -178.5
t-54 -158t-40 -121t-23 -65.5zM648 951q-39 0 -80.5 -42.5t-83.5 -113.5t-84 -163t-81 -191q48 55 97 114t92.5 115.5t78.5 107.5t55.5 89.5t23.5 61t-18 22.5z" />
    <glyph glyph-name="at" unicode="@" horiz-adv-x="852" 
d="M530 -84q51 7 99.5 25t93 46t83 63.5t68.5 77.5l-26 -73q-45 -52 -99.5 -95t-115 -73.5t-124 -47.5t-125.5 -17q-89 0 -155.5 33.5t-104 92t-44 136t25.5 166.5q31 89 92.5 167.5t140 137t168.5 92t179 33.5q56 0 97 -21t67.5 -56.5t40.5 -83.5t16.5 -102.5t-5 -112.5
t-22.5 -114h-27q2 6 5.5 24t7.5 38.5t7 38.5l4 24q9 75 -1 140t-42 110.5t-86.5 67t-133.5 11.5t-152 -47t-131 -93.5t-96 -126.5t-47 -146q-9 -75 14 -137.5t69.5 -105t113 -62.5t145.5 -10zM874 206q10 0 7 -10q0 -1 -21.5 -22t-54.5 -46t-74 -45.5t-80 -20.5
q-27 0 -42.5 18t-23 40t-9.5 41t-2 21q-2 -2 -20 -21t-45 -41t-60 -40t-64 -18q-51 0 -71 29.5t-11.5 73.5t44 96.5t94.5 99.5q43 33 82.5 50t73.5 23q31 6 56.5 4t42 -7.5t22.5 -12.5t0 -13q-7 -6 -11 -5t-10.5 4t-18.5 7t-35 4q-21 0 -47 -9.5t-51.5 -26t-48.5 -38.5
t-39 -47q-24 -36 -30.5 -64.5t-2 -47.5t17 -29t26.5 -10q25 0 47.5 15t41 38t35 49.5t30 49t25 37t21.5 14.5t13 -16t4.5 -40.5t2 -53t5.5 -53t15.5 -40.5t31.5 -16q15 0 30.5 6.5t27.5 14.5q14 10 27 22l36 29q1 3 5.5 5t7.5 2z" />
    <glyph glyph-name="bar" unicode="|" 
d="M435 562q22 61 37.5 92t22 36.5t3.5 -11.5t-16 -53q-27 -77 -52 -147t-50 -139.5t-51 -140.5t-54 -150q-17 -47 -31 -83.5t-25.5 -63.5t-20.5 -46.5t-16 -32.5q-17 -31 -26 -38q43 113 83 226t75.5 215t66 188.5t54.5 147.5z" />
    <glyph glyph-name="dagger" unicode="&#x2020;" horiz-adv-x="500" 
d="M437 562q22 61 37.5 92t22 36.5t3.5 -11.5t-16 -53q-27 -77 -52 -147t-50 -139.5t-51 -140.5t-54 -150q-17 -47 -31 -83.5t-25.5 -63.5t-20.5 -46.5t-16 -32.5q-17 -31 -26 -38q43 113 83 226t75.5 215t66 188.5t54.5 147.5zM500 326q27 -2 35.5 -21.5t4.5 -42t-17 -41
t-29 -18.5h-67t-63.5 0.5t-64 0.5h-68.5q-43 0 -61.5 19t-23.5 42q-6 26 1 61q50 -5 101 -4.5t98 2.5t87 3.5t67 -1.5z" />
    <glyph glyph-name="daggerdbl" unicode="&#x2021;" horiz-adv-x="500" 
d="M437 562q22 61 37.5 92t22 36.5t3.5 -11.5t-16 -53q-27 -77 -52 -147t-50 -139.5t-51 -140.5t-54 -150q-17 -47 -31 -83.5t-25.5 -63.5t-20.5 -46.5t-16 -32.5q-17 -31 -26 -38q43 113 83 226t75.5 215t66 188.5t54.5 147.5zM528 406q27 -2 35.5 -21.5t4.5 -42t-17 -41
t-29 -18.5h-66.5t-63 0.5t-63.5 0.5h-68q-43 0 -62 19t-24 42q-6 26 0 61q50 -5 101 -4.5t98 2.5t87 3.5t67 -1.5zM478 266q27 -2 36 -21.5t5.5 -42t-16.5 -41t-29 -18.5h-67t-63.5 0.5t-64 0.5h-68.5q-43 0 -62 19t-24 42q-6 26 0 61q50 -5 101.5 -4.5t98.5 2.5t87 3.5
t66 -1.5z" />
    <glyph glyph-name="brokenbar" unicode="&#xa6;" horiz-adv-x="104" 
d="M273 655q10 26 20 39t16 15.5t7.5 -5t-4.5 -22.5q-24 -65 -45.5 -122t-46.5 -124q-14 -40 -26 -62.5t-22 -33.5q-11 -13 -21 -16q20 48 37.5 96t32.5 91.5t27.5 80.5t24.5 63zM121 236q10 26 20 39t16 15.5t7.5 -5t-4.5 -22.5q-23 -65 -45 -122t-47 -124
q-14 -40 -26.5 -62.5t-21.5 -33.5q-11 -13 -20 -16q20 48 37 96t32 91.5t27.5 80.5t24.5 63z" />
    <glyph glyph-name="bullet" unicode="&#x2022;" horiz-adv-x="350" 
d="M192 367q9 25 26.5 47.5t40 39t48.5 26t51 9.5t44 -9.5t29.5 -26t12 -39t-7.5 -47.5t-26.5 -47.5t-39.5 -39t-47.5 -26t-50.5 -9.5t-44 9.5t-30 26t-13 39t7 47.5z" />
    <glyph glyph-name="question" unicode="?" horiz-adv-x="556" 
d="M241 192l13.5 40.5t29.5 62t53 65t83 48.5q66 23 114 72t74 109t30.5 123t-15 113.5t-64 80.5t-115.5 25q-55 -5 -98 -21.5t-75 -39t-55 -48t-37 -47.5q15 8 35 10q29 3 43.5 -15t7.5 -44q-9 -28 -33.5 -48.5t-53.5 -23.5q-29 -2 -43 15.5t-6 45.5q0 4 2 6q0 6 3 14
q7 25 31 60.5t65 69t100.5 59t136.5 31.5q96 8 162.5 -10t103.5 -57.5t45.5 -99t-11.5 -135.5q-14 -51 -36.5 -89t-49 -66.5t-56 -48t-58 -33t-53 -21.5t-42.5 -14q-42 -14 -78 -38.5t-62.5 -52t-43 -54t-20.5 -43.5q-3 -17 -9.5 -24.5t-11.5 -7.5t-7.5 8t1.5 23zM130 6
q-10 -29 4 -49t45 -19q29 1 55.5 22t36.5 50t-3.5 49.5t-44.5 19.5q-15 0 -29.5 -6t-27.5 -16t-22.5 -23t-13.5 -28z" />
    <glyph glyph-name="questiondown" unicode="&#xbf;" horiz-adv-x="556" 
d="M499.015 368.012q-4 -11.999 -13.499 -40.4971q-9.5 -28.499 -29.498 -61.9971q-19.999 -33.498 -52.9971 -64.9961t-82.9951 -48.4961q-65.9961 -22.999 -113.993 -71.9961t-73.9951 -108.993t-30.498 -122.993q-4.5 -62.9961 14.999 -113.492
q19.499 -50.4971 63.9961 -80.4951q44.4971 -29.999 115.493 -24.999q54.9961 5 97.9941 21.499q42.9971 16.499 74.9951 38.9971q31.998 22.499 54.9971 47.9971q22.998 25.499 36.9971 47.4971q-14.999 -7.99902 -34.998 -9.99902q-28.998 -3 -43.4971 14.999
t-7.49902 43.9971q8.99902 27.999 33.4971 48.4971q24.499 20.499 53.4971 23.499q28.998 2 42.9971 -15.499q14 -17.499 6 -45.4971q0 -4 -2 -6q0 -6 -3 -13.999q-6.99902 -24.998 -30.998 -60.4961q-23.998 -35.498 -64.9961 -68.9961q-40.9971 -33.498 -100.493 -58.9961
q-59.4971 -25.499 -136.492 -31.498q-95.9941 -8 -162.49 9.99902q-66.4951 17.999 -103.493 57.4971q-36.998 39.4971 -45.4971 98.9932q-8.5 59.4971 11.499 135.492q13.999 50.9971 36.498 88.9941q22.498 37.998 48.9971 66.4961q26.498 28.498 55.9961 47.9971
t57.9971 32.998q28.498 13.499 52.9961 21.499q24.499 7.99902 42.498 13.999q41.9971 13.999 77.9951 38.4971q35.9971 24.499 62.4961 51.9971q26.498 27.498 42.9971 53.9971q16.499 26.498 20.499 43.4971q3 16.999 9.49902 24.499q6.5 7.49902 11.499 7.49902
q5 0 7.5 -7.99902q2.5 -8 -1.5 -22.999zM610.008 554q10 28.999 -4 48.9971q-13.999 19.999 -44.9971 18.999q-28.998 -1 -55.4961 -21.998q-26.499 -20.999 -36.498 -49.9971q-9.99902 -28.999 3.5 -49.4971q13.499 -20.499 44.4971 -19.499q14.999 0 29.498 6
q14.499 5.99902 27.498 15.999q13 9.99902 22.499 22.998t13.499 27.998z" />
    <glyph glyph-name="exclamdown" unicode="&#xa1;" horiz-adv-x="265" 
d="M261.013 270.016q7.99902 -9 8.99902 -32.998q1 -19.999 -5.49902 -58.9961q-6.5 -38.998 -28.499 -104.994q-21.998 -65.9961 -48.4971 -134.991q-26.498 -68.9961 -52.4961 -129.492q-25.999 -60.4961 -50.4971 -106.494q-24.499 -45.9971 -42.498 -65.9951
q-16.998 -18.999 -41.4971 -25.499q-24.498 -6.49902 -42.9971 2t-25.999 32.998q-7.49902 24.498 9.5 67.4961q11.999 28.998 37.4971 73.4951q25.499 44.4971 57.4971 96.9941t66.9961 108.493q34.9971 55.9971 66.9951 108.494q31.998 52.4961 56.4971 96.4932
q24.498 43.998 34.498 72.9961zM404.004 473.003q9.99902 28.998 -5 48.9971t-43.9971 18.999t-55.4971 -21.999q-26.498 -20.998 -36.4971 -49.9961q-10 -28.999 3.49902 -49.4971q13.5 -20.499 42.498 -19.499q30.998 1 57.9961 22.498q26.998 21.499 36.998 50.4971z" />
    <glyph glyph-name="divide" unicode="&#xf7;" horiz-adv-x="210" 
d="M356 326q27 -2 35.5 -21.5t4.5 -42t-17 -41t-29 -18.5h-67t-63.5 0.5t-64 0.5h-68.5q-43 0 -61.5 19t-23.5 42q-6 26 1 61q50 -5 101 -4.5t98 2.5t87 3.5t67 -1.5zM96 138q5 15 15 28t23 23t27.5 16t29.5 6q29 1 42.5 -19.5t5.5 -49.5q-10 -29 -37.5 -50t-56.5 -22
t-44 19t-5 49zM184 388q5 15 15 28t23 23t27.5 16t29.5 6q29 1 43.5 -19.5t4.5 -49.5t-37.5 -50t-56.5 -22t-44 19t-5 49z" />
    <glyph glyph-name="backslash" unicode="\" 
d="M240 502q-15 51 -19.5 78.5t-1.5 35t11.5 -4.5t17.5 -42q21 -63 41 -120.5t39.5 -114.5t39.5 -115.5t41 -123.5q26 -78 37 -123.5t13 -69.5q3 -28 -3 -39q-29 94 -60.5 186.5t-61 176t-54.5 154.5t-40 122z" />
    <glyph glyph-name="guilsinglleft" unicode="&#x2039;" horiz-adv-x="286" 
d="M354 464q13 -3 19.5 -21t6.5 -40.5t-6 -44t-16 -33.5q-7 -7 -22 -18.5t-34 -24.5t-39.5 -27.5t-38.5 -27t-30 -22.5t-14 -15q-3 -8 8.5 -23.5t25 -33t21 -34.5t-2.5 -28q-7 -8 -19.5 -1t-28 22.5t-31 36.5t-27.5 41.5t-18.5 38.5t-3.5 26t20 29t42 47.5t54 54.5t56 50.5
t48 36t30 11.5z" />
    <glyph glyph-name="guilsinglright" unicode="&#x203a;" horiz-adv-x="286" 
d="M254 467q10 2 22 -12t22.5 -36.5t20 -51t16 -54.5t9 -47.5t-0.5 -29.5t-22 -26t-46 -39t-57.5 -42.5t-57 -36.5t-44.5 -22t-19 1q-3 11 17 28t45.5 34.5t48.5 33t26 24.5q3 8 -9 26t-27.5 39t-30 40.5t-16.5 30.5q-2 12 7.5 34t25.5 44.5t35 40.5t35 21z" />
    <glyph glyph-name="guillemotleft" unicode="&#xab;" horiz-adv-x="382" 
d="M354 464q13 -3 19.5 -21t6.5 -40.5t-6 -44t-16 -33.5q-7 -7 -22 -18.5t-34 -24.5t-39.5 -27.5t-38.5 -27t-30 -22.5t-14 -15q-3 -8 8.5 -23.5t25 -33t21 -34.5t-2.5 -28q-7 -8 -19.5 -1t-28 22.5t-31 36.5t-27.5 41.5t-18.5 38.5t-3.5 26t20 29t42 47.5t54 54.5t56 50.5
t48 36t30 11.5zM454 464q13 -3 19.5 -21t6.5 -40.5t-6 -44t-16 -33.5q-7 -7 -22 -18.5t-34 -24.5t-39.5 -27.5t-38.5 -27t-30 -22.5t-14 -15q-3 -8 8.5 -23.5t25 -33t21 -34.5t-2.5 -28q-7 -8 -19.5 -1t-28 22.5t-31 36.5t-27.5 41.5t-18.5 38.5t-3.5 26t20 29t42 47.5
t54 54.5t56 50.5t48 36t30 11.5z" />
    <glyph glyph-name="guillemotright" unicode="&#xbb;" horiz-adv-x="396" 
d="M254 467q10 2 22 -12t22.5 -36.5t20 -51t16 -54.5t9 -47.5t-0.5 -29.5t-22 -26t-46 -39t-57.5 -42.5t-57 -36.5t-44.5 -22t-19 1q-3 11 17 28t45.5 34.5t48.5 33t26 24.5q3 8 -9 26t-27.5 39t-30 40.5t-16.5 30.5q-2 12 7.5 34t25.5 44.5t35 40.5t35 21zM354 467
q11 2 22.5 -12t22 -36.5t20 -51t16 -54.5t9 -47.5t-0.5 -29.5t-22 -26t-46 -39t-57.5 -42.5t-57 -36.5t-44.5 -22t-19 1q-3 11 17 28t45.5 34.5t48.5 33t26 24.5q3 8 -9 26t-27.5 39t-30 40.5t-16.5 30.5q-2 12 7.5 34t25.5 44.5t35 40.5t35 21z" />
    <glyph glyph-name="trademark" unicode="&#x2122;" horiz-adv-x="575" 
d="M474 695q13 -1 18 -5.5t4.5 -10t-5.5 -11.5t-12 -10q-5 -2 -20 -3.5t-36 -2.5t-46.5 -1t-50.5 1q-5 -14 -15 -43t-22 -63.5t-25 -71.5t-23.5 -68t-18 -52.5t-8.5 -25.5q0 -6 -3 -10.5t-5.5 -4.5t-3.5 5t2 18q2 7 9.5 30t18 53.5t23 66t24 68t20.5 59t14 39.5
q-32 1 -60 2.5t-42 3.5q-19 3 -30 9.5t-17 12.5q-7 7 -10 15q21 -5 50.5 -6.5t62 -1.5t66 1.5t62 3t49.5 2.5t30 1zM699 594q0 -7 -4 -26t-11 -43t-15.5 -50.5t-17.5 -49.5t-18 -40t-16 -21q-6 -4 -9 -1t-4.5 9t-3 12.5t-5.5 11.5q-3 3 5 25t19 53t22 66t15 64t-4 46.5
t-34 13.5q-12 -2 -23 -10.5t-19 -13.5q1 -20 -3.5 -46.5t-12 -55.5t-16 -57t-17 -50.5t-14.5 -37.5t-8 -17q-4 -5 -10 -4.5t-10.5 6t-7 16t0.5 25.5q26 66 42 119q7 22 12 44t7 38.5t-0.5 27t-11.5 10.5q-23 0 -43.5 -21.5t-37.5 -54t-31 -70t-24.5 -70.5t-18 -55t-11.5 -23
q-14 -3 -21.5 7.5t-1.5 24.5q37 84 54 138.5t19 87t-9.5 45t-30.5 12.5q29 0 44 -13.5t21 -29.5q7 -18 6 -42q11 24 28 42q14 16 34.5 29.5t47.5 13.5q21 0 23 -33q9 8 24 19.5t29 13.5q31 4 46 -4.5t21 -23t5.5 -30.5t-1.5 -27z" />
    <glyph glyph-name="degree" unicode="&#xb0;" horiz-adv-x="304" 
d="M274 661q7 21 22 40t34 33.5t41 22.5t43 8q43 0 63 -30.5t5 -73.5q-8 -21 -22.5 -40t-33.5 -33.5t-41 -22.5t-43 -8q-43 0 -63 30.5t-5 73.5zM346 653q-11 -28 -1 -47.5t33 -19.5t46 19.5t34 47.5q9 28 -1 47.5t-33 19.5t-46 -19.5t-32 -47.5z" />
    <glyph glyph-name="registered" unicode="&#xae;" horiz-adv-x="1089" 
d="M759 876q93 0 157.5 -47.5t96.5 -129t28.5 -191.5t-46.5 -235q-30 -83 -73 -160t-96 -144t-113.5 -121.5t-124.5 -94t-128.5 -61t-126.5 -21.5q-93 0 -157.5 47.5t-96.5 129t-28.5 191t47.5 234.5q29 83 72 160t96 144t113 122t124 94.5t129 61t127 21.5zM518 -185
q79 14 155.5 66t141 130t111 175t66.5 202q19 105 6.5 191.5t-51.5 145.5t-100 86.5t-139 13.5q-79 -14 -155.5 -66t-141 -130t-111.5 -175t-66 -202q-20 -104 -7 -190.5t51.5 -146t100 -87t139.5 -13.5zM940 186q-10 0 -17 -9l-44 -39q-24 -16 -49 -28q-21 -11 -45 -19.5
t-44 -8.5q-27 0 -38 22.5t-12 57t5 76t12.5 80.5t10.5 70.5t0 44.5q-5 12 -32.5 17t-62 7.5t-68.5 5t-53 8.5q4 12 6 21q1 4 2 9q5 20 -7 34t-34 14q-24 0 -46 -17t-31 -41q-6 -17 -3 -29.5t13 -20.5q3 -5 15 -9t26 -9q-5 -8 -16.5 -26.5t-36.5 -50t-65.5 -76t-103.5 -104.5
q-11 -10 -13 -17t1 -10t10 -1t15 9q28 24 62.5 60t67.5 74.5t60.5 75t40.5 60.5q6 -3 10 -3q9 -3 22.5 -5t26 -4.5t23 -7t13.5 -12.5q5 -11 -2.5 -44t-16.5 -76t-15 -90.5t1 -87t32.5 -65t78.5 -25.5q34 0 70 13t70.5 32t65 41.5t54 42t37 32.5t14.5 14q3 14 -10 14z" />
    <glyph glyph-name="copyright" unicode="&#xa9;" horiz-adv-x="1089" 
d="M751 856q93 0 158 -47.5t97 -129t28.5 -191.5t-47.5 -235q-29 -83 -72 -160t-96 -144t-113 -121.5t-124 -94t-128.5 -61t-126.5 -21.5q-93 0 -157.5 47.5t-96.5 129t-29 191t46 234.5q29 83 72.5 160t96 144t113 122t124 94.5t128.5 61t127 21.5zM510 -205
q79 14 155.5 66t141 130t111 175t66.5 202t7.5 191.5t-51 145.5t-100.5 86.5t-140 13.5t-154 -66t-140.5 -130t-112 -175t-67.5 -202q-20 -104 -7 -190.5t52 -146t100 -87t139 -13.5zM838 186q10 9 16 10t8.5 -3t1 -10t-5.5 -10q-3 -3 -22.5 -17.5t-50.5 -34t-70 -41.5
t-82 -40.5t-86 -30.5t-82 -12q-59 0 -93 24t-49 60t-13.5 79t15.5 81q13 39 44 84t74 83.5t96 64t110 25.5q32 0 55 -10t37.5 -26.5t19 -37.5t-1.5 -43q-5 -16 -12.5 -32t-17.5 -30t-22.5 -24.5t-27.5 -16.5q-14 -7 -30 -7q-23 0 -33 15.5t-2 38.5t30 39t45 16q21 0 30 -14
q3 10 5 27t-3.5 33.5t-22 29t-51.5 12.5q-34 0 -65.5 -29.5t-55 -74t-36 -96.5t-8.5 -96.5t27.5 -74t72.5 -29.5q29 0 68 12q33 11 80.5 34.5t107.5 71.5z" />
    <glyph glyph-name="plusminus" unicode="&#xb1;" 
d="M514 326q27 -2 35.5 -21.5t4.5 -42t-17 -41t-29 -18.5h-67t-63.5 0.5t-64 0.5h-68.5q-43 0 -61.5 19t-23.5 42q-6 26 1 61q50 -5 101 -4.5t98 2.5t87 3.5t67 -1.5zM348 404q12 28 37 43.5t48.5 19.5t39.5 -2.5t10 -22.5q-12 -35 -23.5 -67t-22.5 -63.5t-22.5 -64
t-24.5 -68.5q-15 -43 -43 -68t-56 -39q-33 -16 -69 -21q24 51 42 102.5t32.5 98t27 85.5t24.5 67zM412 35q27 -2 35.5 -21.5t4.5 -42t-17 -41t-29 -18.5h-67t-63.5 0.5t-64 0.5h-68.5q-43 0 -61.5 19t-23.5 42q-6 26 1 61q49 -5 100 -4.5t98.5 2.5t87.5 3.5t67 -1.5z" />
    <glyph glyph-name="twosuperior" unicode="&#xb2;" horiz-adv-x="537" 
d="M324 689q-12 -8 -17.5 -7.5t-7 5t0.5 10.5t6 9q2 2 18.5 15t41.5 31t56.5 37.5t65 34.5t66.5 22.5t60 1.5t46.5 -28.5t26.5 -68.5q9 -58 -15.5 -103t-67 -79.5t-95 -59t-99 -41t-78.5 -25.5t-34 -13t17.5 -6t51 -3t69 -1t70.5 -0.5t56.5 -1.5t27.5 -4q5 -4 -1 -18
t-17 -30t-23.5 -31t-21.5 -22q-6 -4 -31.5 -7t-61 -5t-75.5 -2.5t-75 -0.5t-60.5 1t-30.5 3q-8 2 -11.5 19.5t-3.5 39t4 42t10 27.5q5 7 16 10t34.5 7.5t61.5 13.5t97 29q45 15 76 40.5t49 54.5t23.5 59t0.5 54t-19.5 39t-37.5 15q-34 0 -61.5 -8t-49 -18.5t-36.5 -21
t-22 -15.5z" />
    <glyph glyph-name="threesuperior" unicode="&#xb3;" horiz-adv-x="491" 
d="M486 585q23 -15 40 -35t22 -45t-6 -54.5t-43 -65.5q-46 -51 -88.5 -68.5t-78.5 -14t-65 21.5t-50 39.5t-33.5 39t-13.5 20.5q-2 3 0 8t6 8.5t9.5 3.5t11.5 -7q4 -4 11 -12.5t20 -17.5t34 -15.5t53 -6.5q22 0 47 14t45 36.5t32.5 49t10.5 52.5q-2 12 -9 19t-14 11
q-9 4 -18 6q-13 0 -21 3t-5 9q2 5 11.5 8.5t22.5 3.5q12 0 23 5t20 11.5t16 13.5t11 12q19 25 24.5 51t1 47.5t-19 35.5t-36.5 14q-32 0 -58 -6.5t-45.5 -15.5t-32.5 -17.5t-20 -12.5q-11 -7 -16 -7t-6.5 3.5t0.5 9t7 8.5q2 2 26.5 20t60 39t78 39.5t80.5 21.5t67.5 -15
t40.5 -69q7 -36 -3 -65.5t-32 -54t-53 -44.5t-65 -35z" />
    <glyph glyph-name="onesuperior" unicode="&#xb9;" horiz-adv-x="457" 
d="M254 724q6 4 23 17t39.5 30t48 35.5t50 34t44.5 25.5t32 10q17 0 32.5 -9.5t26 -25t13.5 -35.5t-4 -40q-5 -13 -17 -50t-28.5 -85t-35 -101t-36.5 -98.5t-33 -77.5t-23 -38q-14 -9 -36.5 -7t-44.5 11t-36.5 24t-11.5 32q2 11 15 44t30.5 76t36.5 89.5t33 85.5t20 64.5
t-2 25.5q-13 0 -30 -7t-34.5 -16.5t-33.5 -19.5t-26 -17q-11 -7 -17.5 -6.5t-8.5 5t1.5 11.5t12.5 13z" />
    <glyph glyph-name="ordmasculine" unicode="&#xba;" horiz-adv-x="531" 
d="M517 802q48 0 83.5 -19.5t55.5 -52.5t22.5 -77.5t-15.5 -95.5t-52 -95.5t-77 -77.5t-92 -52.5t-97 -19.5t-83 19.5t-55 52.5t-22.5 77.5t15.5 95.5t52 95.5t77 77.5t91.5 52.5t96.5 19.5zM480 393q30 7 59 27.5t52.5 50t39 66t20.5 74.5q4 38 -4 69t-26 52t-43.5 29.5
t-55.5 1.5q-31 -7 -59.5 -27.5t-51.5 -49.5t-38.5 -65.5t-19.5 -74.5q-5 -38 3 -69.5t25 -52t42.5 -29.5t56.5 -2z" />
    <glyph glyph-name="section" unicode="&#xa7;" horiz-adv-x="414" 
d="M333 62q6 -12 11 -41t-3 -66t-35 -78.5t-85 -78.5t-102 -43t-74.5 6.5t-48 37.5t-23.5 49q-3 11 1 16t9.5 6t10.5 -2t6 -9q4 -32 18.5 -43.5t31 -12t31.5 5.5t20 10q4 4 16.5 12.5t26.5 24.5t25.5 40.5t13.5 59.5q2 38 -13.5 71t-32.5 63l-12 22q-11 18 -19 36t-11 36
q-4 24 0 57t22.5 63t57 52t103.5 26q-6 10 -13 24.5t-13 29t-11 28t-6 22.5q-4 25 0.5 59.5t26 65.5t64 52.5t116.5 21.5q40 0 51.5 -14t2 -38t-36 -57t-60.5 -72q12 -18 23 -37.5t20.5 -38.5t18 -35.5t14.5 -28.5q5 -12 10 -41t-3 -66t-35 -78.5t-86 -78.5q-9 -6 -18 -11
t-17 -9q1 -5 7 -18zM291 360q-32 0 -47 -23.5t-15 -56.5t13 -68t37 -59q16 16 29 41.5t15 63.5q2 33 -5 55t-20 46q-3 1 -7 1zM431 662q-20 0 -35 -12t-21.5 -31.5t-4.5 -43t16 -47.5q27 29 46.5 53.5t27 42.5t1.5 28t-30 10z" />
    <glyph glyph-name="onequarter" unicode="&#xbc;" horiz-adv-x="1126" 
d="M138 372q6 4 23 17t39.5 30t48 35.5t50 34t44.5 25.5t32 10q17 0 32.5 -9.5t26 -25t13.5 -35.5t-4 -40q-5 -13 -17 -50t-28.5 -85t-35 -101t-36.5 -98.5t-33 -77.5t-23 -38q-14 -9 -36.5 -7t-44.5 11t-36.5 24t-11.5 32q2 11 15 44t30.5 76t36.5 89.5t33 85.5t20 64.5
t-2 25.5q-13 0 -30 -7t-34.5 -16.5t-33.5 -19.5t-26 -17q-11 -7 -17.5 -6.5t-8.5 5t1.5 11.5t12.5 13zM844 518q51 50 80 74t37 26.5t-4.5 -14t-42.5 -46.5q-64 -64 -122.5 -123t-117 -117t-118.5 -118l-126 -126q-78 -79 -125 -121t-72 -61q-29 -23 -40 -25
q96 93 190 187.5t178.5 181t157 159.5t125.5 123zM1230 431q-3 -21 -15 -62t-29 -91t-37 -103t-39 -98t-34 -76t-23 -37q-11 -9 -33 -8t-44 9.5t-37.5 23.5t-14.5 35q1 7 5.5 24t12 40t17.5 51t21 59q-25 -21 -52 -36t-54.5 -22t-56 -3t-55.5 21q-37 23 -49.5 50.5t-8 57
t22.5 59.5t43 58t53 53t52.5 44t41.5 30t20 13q5 4 11.5 4.5t9.5 -2.5t1.5 -9t-13.5 -16q-7 -5 -21.5 -16t-31 -28.5t-33 -42.5t-28.5 -59q-10 -27 2.5 -49.5t39 -35t63 -12t75.5 21.5q16 42 32 82t30 71.5t25 52t17 24.5q12 7 33 8t40.5 -8t32 -28t8.5 -50z" />
    <glyph glyph-name="onehalf" unicode="&#xbd;" horiz-adv-x="1048" 
d="M138 372q6 4 23 17t39.5 30t48 35.5t50 34t44.5 25.5t32 10q17 0 32.5 -9.5t26 -25t13.5 -35.5t-4 -40q-5 -13 -17 -50t-28.5 -85t-35 -101t-36.5 -98.5t-33 -77.5t-23 -38q-14 -9 -36.5 -7t-44.5 11t-36.5 24t-11.5 32q2 11 15 44t30.5 76t36.5 89.5t33 85.5t20 64.5
t-2 25.5q-13 0 -30 -7t-34.5 -16.5t-33.5 -19.5t-26 -17q-11 -7 -17.5 -6.5t-8.5 5t1.5 11.5t12.5 13zM846 518q51 50 80 74t37 26.5t-4.5 -14t-42.5 -46.5q-64 -64 -122.5 -123t-117 -117t-118.5 -118l-126 -126q-78 -79 -125 -121t-72 -61q-29 -23 -40 -25
q96 93 190 187.5t178.5 181t157 159.5t125.5 123zM770 357q-12 -8 -17.5 -7.5t-7 5t0.5 10.5t6 9q2 2 18.5 15t41.5 31t56.5 37.5t65 34.5t66.5 22.5t60 1.5t46.5 -28.5t26.5 -68.5q9 -58 -15.5 -103t-67 -79.5t-95 -59t-99 -41t-78.5 -25.5t-34 -13t17.5 -6t51 -3t69 -1
t70.5 -0.5t56.5 -1.5t27.5 -4q5 -4 -1 -18t-17 -30t-23.5 -31t-21.5 -22q-6 -4 -31.5 -7t-61 -5t-75.5 -2.5t-75 -0.5t-60.5 1t-30.5 3q-8 2 -11.5 19.5t-3.5 39t4 42t10 27.5q5 7 16 10t34.5 7.5t61.5 13.5t97 29q45 15 76 40.5t49 54.5t23.5 59t0.5 54t-19.5 39t-37.5 15
q-34 0 -61.5 -8t-49 -18.5t-36.5 -21t-22 -15.5z" />
    <glyph glyph-name="threequarters" unicode="&#xbe;" horiz-adv-x="1149" 
d="M345 235q23 -15 40 -35t22 -45t-6 -54.5t-43 -65.5q-46 -51 -88.5 -68.5t-78.5 -14t-65 21.5t-50 39.5t-33.5 39t-13.5 20.5q-2 3 0 8t6 8.5t9.5 3.5t11.5 -7q4 -4 11 -12.5t20 -17.5t34 -15.5t53 -6.5q22 0 47 14t45 36.5t32.5 49t10.5 52.5q-2 12 -9 19t-14 11
q-9 4 -18 6q-13 0 -21 3t-5 9q2 5 11.5 8.5t22.5 3.5q12 0 23 5t20 11.5t16 13.5t11 12q19 25 24.5 51t1 47.5t-19 35.5t-36.5 14q-32 0 -58 -6.5t-45.5 -15.5t-32.5 -17.5t-20 -12.5q-11 -7 -16 -7t-6.5 3.5t0.5 9t7 8.5q2 2 26.5 20t60 39t78 39.5t80.5 21.5t67.5 -15
t40.5 -69q7 -36 -3 -65.5t-32 -54t-53 -44.5t-65 -35zM867 518q51 50 80 74t37 26.5t-4.5 -14t-42.5 -46.5q-64 -64 -122.5 -123t-117 -117t-118.5 -118l-126 -126q-78 -79 -125 -121t-72 -61q-29 -23 -40 -25q96 93 190 187.5t178.5 181t157 159.5t125.5 123zM1250 431
q-3 -21 -15 -62t-29 -91t-37 -103t-39 -98t-34 -76t-23 -37q-11 -9 -33 -8t-44 9.5t-37.5 23.5t-14.5 35q1 7 5.5 24t12 40t17.5 51t21 59q-25 -21 -52 -36t-54.5 -22t-56 -3t-55.5 21q-37 23 -49.5 50.5t-8 57t22.5 59.5t43 58t53 53t52.5 44t41.5 30t20 13q5 4 11.5 4.5
t9.5 -2.5t1.5 -9t-13.5 -16q-7 -5 -21.5 -16t-31 -28.5t-33 -42.5t-28.5 -59q-10 -27 2.5 -49.5t39 -35t63 -12t75.5 21.5q16 42 32 82t30 71.5t25 52t17 24.5q12 7 33 8t40.5 -8t32 -28t8.5 -50z" />
    <glyph glyph-name="logicalnot" unicode="&#xac;" horiz-adv-x="411" 
d="M444 326q18 -1 24 -18.5t4.5 -41.5t-9 -50.5t-17 -47.5t-18.5 -32t-13 -3q-21 34 -47.5 49t-57.5 20t-65 3.5t-70 -1.5q-43 0 -61.5 19t-23.5 42q-6 26 1 61q50 -5 101 -4.5t98 2.5t87 3.5t67 -1.5z" />
    <glyph glyph-name="ordfeminine" unicode="&#xaa;" horiz-adv-x="712" 
d="M915 484q13 0 10 -14q-1 -1 -13.5 -14t-34.5 -32.5t-51 -42t-62.5 -41.5t-68.5 -32t-69 -13q-36 0 -56.5 23.5t-30.5 52.5t-12.5 53.5t-2.5 27.5q-3 -3 -26.5 -27.5t-58.5 -53.5t-77.5 -52.5t-83.5 -23.5q-44 0 -70 17.5t-35 47.5t-1.5 69.5t30 83t60 88t89.5 85.5
q55 44 106.5 66t96.5 30q40 7 73 4.5t54 -9.5t29.5 -16.5t1.5 -16.5q-9 -8 -14.5 -7t-14.5 5.5t-25 9.5t-46 5q-28 0 -61 -12.5t-65.5 -34t-62 -50.5t-50.5 -61q-32 -48 -40.5 -84.5t-3 -62t21.5 -38.5t34 -13q33 0 62 20t54 49.5t46 64t39 64t33 49t28 19.5t17 -21.5
t5.5 -53t2.5 -69t7 -69t20 -53t41 -21.5q20 0 40 8.5t37 19.5q18 12 36 28l45 39q7 9 17 9z" />
    <glyph glyph-name="currency" unicode="&#xa4;" horiz-adv-x="667" 
d="M195 189q5 15 16 28t24 21q-16 61 11 134q14 36 34 69t48 62q-24 21 -9 59q4 15 14 27.5t23 22t27.5 15t29.5 5.5q20 0 32 -10t15 -27q26 11 51.5 16.5t51.5 5.5q42 0 74 -14t53 -40l2 7q8 23 30 39t45 16t33 -16t2 -39t-30 -39t-45 -16q-9 0 -13 1q11 -30 10.5 -66.5
t-15.5 -77.5q-12 -36 -33 -69t-49 -62q15 -2 22.5 -15t1.5 -30q-6 -19 -24.5 -32t-37.5 -13q-16 0 -24.5 8.5t-6.5 22.5q-39 -26 -82 -40.5t-85 -14.5q-57 0 -97 28q-13 -12 -29 -19t-32 -7q-26 0 -36.5 17t-1.5 43zM526 208q30 7 59 27.5t52.5 50t39 66t20.5 74.5
q4 38 -4 69t-25.5 52t-43 29.5t-56.5 1.5t-59.5 -27.5t-51.5 -49.5t-38.5 -65.5t-19.5 -74.5q-5 -38 3 -69.5t25 -52t42.5 -29.5t56.5 -2z" />
    <glyph glyph-name="numbersign" unicode="#" 
d="M520 326q27 -2 34 -10.5t1.5 -17.5t-20 -16t-30.5 -7h-67t-63.5 0.5t-64 0.5h-68.5q-43 0 -60 7.5t-20 17.5q-4 11 5 25q50 -5 101 -4.5t98 2.5t87 3.5t67 -1.5zM400 345q12 28 37 43.5t49.5 19.5t40.5 -2.5t10 -22.5q-12 -35 -23.5 -67t-22.5 -63.5t-22.5 -64
t-24.5 -68.5q-15 -43 -43 -68t-56 -39q-33 -16 -69 -21q23 51 40.5 102.5t32 98t27 85.5t24.5 67zM222 345q12 28 37 43.5t49.5 19.5t40.5 -2.5t10 -22.5q-12 -35 -23.5 -67t-22.5 -63.5t-22.5 -64t-24.5 -68.5q-15 -43 -43 -68t-56 -39q-33 -16 -69 -21q23 51 40.5 102.5
t32 98t27 85.5t24.5 67zM445 129q27 -2 34 -10.5t1.5 -17.5t-20 -16t-30.5 -7h-67t-63.5 0.5t-64 0.5h-68.5q-43 0 -60 7.5t-20 17.5q-4 11 5 25q50 -5 101 -4.5t98 2.5t87 3.5t67 -1.5z" />
    <glyph glyph-name="parenleft" unicode="(" horiz-adv-x="296" 
d="M98 267q24 64 60.5 116t77 92t82.5 69t77 48.5t59.5 30t30.5 13.5q9 4 18 5t14 -1t4 -6t-12 -10q-12 -6 -45.5 -30t-75 -68t-84.5 -108.5t-73 -150.5q-31 -86 -38.5 -159.5t-3 -129t14.5 -90.5t14 -43t3 -15.5t-5.5 -12t-11.5 -3.5t-16 9q-6 5 -21.5 22.5t-33.5 45
t-35 66t-25 86t-3.5 103.5t28.5 121z" />
    <glyph glyph-name="parenright" unicode=")" horiz-adv-x="296" 
d="M388 268q-22 -64 -57 -120.5t-76.5 -103.5t-85.5 -85t-81 -65.5t-65 -44.5t-37 -23q-14 -8 -21.5 -9t-9 3.5t3 12t14.5 15.5t44 42.5t77 90t87 128.5t74 159t32.5 150t-8 108t-26.5 68t-23 30q-8 6 -6.5 10t8 6t15.5 1t15 -5q4 -3 21 -13.5t38 -30t42 -48.5t33.5 -69
t12.5 -91.5t-21 -115.5z" />
    <glyph glyph-name="bracketright" unicode="]" horiz-adv-x="510" 
d="M50 176q34 28 72 50q32 19 73 35t86 16q29 0 62 -4t63 -15t54.5 -31.5t37.5 -53.5t11 -79.5t-25 -111.5q-17 -48 -55.5 -107t-101.5 -120t-151 -119.5t-203 -106.5t-258.5 -81t-318 -43t-380 8t-445.5 71q-274 61 -509 88.5t-431 27t-352.5 -25.5t-273 -69t-192.5 -103
t-110 -128q-14 -30 -24 -42t-15.5 -10.5t-4.5 14t10 30.5q5 9 21.5 40t54 73t100 90t159 91.5t232 76.5t318 45.5t417 -1t530.5 -63.5q328 -56 584.5 -68t453 7t338.5 61t241 95q231 123 307 317q11 33 8 70.5t-20 69.5t-47.5 54t-74 26t-98.5 -15.5t-122 -70.5
q-23 -18 -29 -18.5t-4 6t7 15.5z" />
    <glyph glyph-name="braceright" unicode="}" horiz-adv-x="510" 
d="M33 174q34 28 73 50q33 19 74 35t86 16q29 0 62 -4t63 -15t54.5 -31.5t37 -53.5t10.5 -80t-24 -111q-23 -65 -68 -136.5t-113 -138t-159.5 -123t-206.5 -90t-255.5 -39.5t-305.5 29q-166 34 -322 51t-295.5 17t-260 -18t-216.5 -53t-164.5 -86.5t-102.5 -120.5
q-14 -30 -24.5 -42t-16 -10.5t-4.5 14t11 30.5q4 9 19 38t45 69t78.5 85t120.5 86.5t170.5 74t229 46.5t295 4.5t369.5 -51.5q184 -38 330 -41t259 19t195.5 62.5t141.5 88.5q137 113 189 283q12 33 9 70.5t-20 69.5t-47.5 54t-73.5 26t-98.5 -15.5t-121.5 -70.5
q-23 -18 -29.5 -18.5t-5 6t6.5 15.5z" />
    <glyph glyph-name="bracketleft" unicode="[" horiz-adv-x="510" 
d="M50 176q34 28 72 50q32 19 73 35t86 16q29 0 62 -4t63 -15t54.5 -31.5t37.5 -53.5t11 -79.5t-25 -111.5q-17 -48 -64 -111t-126.5 -130.5t-193 -134t-262.5 -123t-336 -97t-413 -55.5t-493 1t-577 72q-437 79 -759.5 107.5t-545 10t-352 -81.5t-181.5 -166
q-14 -30 -24 -42t-15.5 -10.5t-4.5 14t10 30.5q5 9 21.5 40t54.5 73.5t100.5 91t159.5 92t232 77t317.5 46t417 -2t529.5 -65.5q399 -70 716.5 -89t564.5 -3t429.5 59.5t311.5 99.5q304 131 424 345q11 33 8 70.5t-20 69.5t-47.5 54t-74 26t-98.5 -15.5t-122 -70.5
q-23 -18 -29 -18.5t-4 6t7 15.5z" />
    <glyph glyph-name="braceleft" unicode="{" horiz-adv-x="510" 
d="M50 176q34 28 72 50q32 19 73 35t86 16q29 0 62 -4t63 -15t54.5 -31.5t37.5 -53.5t11 -79.5t-25 -111.5q-14 -39 -39 -89t-68.5 -105t-109.5 -112t-161 -110t-222.5 -98.5t-295 -77.5t-378 -47t-471.5 -6.5t-575.5 42.5t-690.5 101q-439 78 -766.5 94t-555 -16
t-361.5 -106.5t-186 -177.5q-14 -30 -24 -42t-15.5 -10.5t-4.5 14t10 30.5q5 9 20.5 38t51.5 68t97 83.5t156.5 85.5t230 73.5t318.5 46.5t421 5.5t537 -48.5q356 -48 657.5 -73t554.5 -30.5t461 5.5t376 34t299 55.5t231 70.5q352 133 444 350q11 33 8 70.5t-20 69.5
t-47.5 54t-74 26t-98.5 -15.5t-122 -70.5q-23 -18 -29 -18.5t-4 6t7 15.5z" />
  </font>
</defs>
</svg>
